<svg width="25" height="25" viewBox="0 0 25 25" fill="none" xmlns="http://www.w3.org/2000/svg">
<path d="M21.2943 10.1102L22.9713 21.0109C23.1971 22.4782 22.0617 23.8016 20.5772 23.8016H4.42289C2.93825 23.8016 1.80294 22.4782 2.02869 21.0109L3.70571 10.1102C3.88752 8.92847 4.90431 8.05615 6.09992 8.05615H18.9002C20.0957 8.05615 21.1125 8.92847 21.2943 10.1102Z" stroke="#2C9378" stroke-width="2.13067" stroke-linecap="round" stroke-linejoin="round"/>
<path d="M14.9226 4.42237C14.9226 3.08453 13.8381 2 12.5003 2C11.1624 2 10.0779 3.08453 10.0779 4.42237" stroke="#2C9378" stroke-width="2.13067" stroke-linecap="round" stroke-linejoin="round"/>
<path d="M8.85718 16.5344H12.4907M12.4907 16.5344H16.1243M12.4907 16.5344V12.9009M12.4907 16.5344V20.168" stroke="#2C9378" stroke-width="2.13067" stroke-linecap="round" stroke-linejoin="round"/>
</svg>
