<svg width="25" height="25" viewBox="0 0 25 25" fill="none" xmlns="http://www.w3.org/2000/svg">
<path d="M21.2943 9.97286L22.9713 20.7096C23.1971 22.1549 22.0617 23.4583 20.5772 23.4583H4.42289C2.93825 23.4583 1.80294 22.1549 2.02869 20.7096L3.70571 9.97286C3.88752 8.80891 4.90431 7.94971 6.09992 7.94971H18.9002C20.0957 7.94971 21.1125 8.80891 21.2943 9.97286Z" stroke="black" stroke-width="2.13067" stroke-linecap="round" stroke-linejoin="round"/>
<path d="M14.9227 4.37081C14.9227 3.05309 13.8382 1.98486 12.5004 1.98486C11.1625 1.98486 10.078 3.05309 10.078 4.37081" stroke="black" stroke-width="2.13067" stroke-linecap="round" stroke-linejoin="round"/>
<path d="M8.85718 16.3006H12.4907M12.4907 16.3006H16.1243M12.4907 16.3006V12.7217M12.4907 16.3006V19.8795" stroke="black" stroke-width="2.13067" stroke-linecap="round" stroke-linejoin="round"/>
</svg>
