<svg width="56" height="46" viewBox="0 0 56 46" fill="none" xmlns="http://www.w3.org/2000/svg">
<rect width="56" height="46" fill="white"/>
<path d="M37.42 9.55C37.42 9.13891 37.2567 8.74467 36.966 8.45398C36.6753 8.1633 36.2811 8 35.87 8C35.4589 8 35.0647 8.1633 34.774 8.45398C34.4833 8.74467 34.32 9.13891 34.32 9.55H37.42ZM34.32 15.13C34.32 15.5411 34.4833 15.9353 34.774 16.226C35.0647 16.5167 35.4589 16.68 35.87 16.68C36.2811 16.68 36.6753 16.5167 36.966 16.226C37.2567 15.9353 37.42 15.5411 37.42 15.13H34.32ZM20.68 9.55C20.68 9.13891 20.5167 8.74467 20.226 8.45398C19.9353 8.1633 19.5411 8 19.13 8C18.7189 8 18.3247 8.1633 18.034 8.45398C17.7433 8.74467 17.58 9.13891 17.58 9.55H20.68ZM17.58 15.13C17.58 15.5411 17.7433 15.9353 18.034 16.226C18.3247 16.5167 18.7189 16.68 19.13 16.68C19.5411 16.68 19.9353 16.5167 20.226 16.226C20.5167 15.9353 20.68 15.5411 20.68 15.13H17.58ZM39.9 18.54V31.25H43V18.54H39.9ZM35.25 35.9H19.75V39H35.25V35.9ZM15.1 31.25V18.54H12V31.25H15.1ZM19.7516 13.89H35.2469V10.79H19.7547V13.89H19.7516ZM41.45 19.16H13.55V22.26H41.45V19.16ZM34.32 9.55V15.13H37.42V9.55H34.32ZM17.58 9.55V15.13H20.68V9.55H17.58ZM19.75 35.9C18.245 35.9 17.2716 35.8969 16.5555 35.8008C15.8828 35.7093 15.672 35.5636 15.5542 35.4458L13.3625 37.6375C14.153 38.428 15.1264 38.7365 16.1416 38.8729C17.115 39.0031 18.3318 39 19.75 39V35.9ZM12 31.25C12 32.6682 11.9969 33.8865 12.1271 34.8584C12.2635 35.8736 12.572 36.8486 13.3625 37.6375L15.5542 35.4458C15.4364 35.328 15.2907 35.1172 15.1992 34.4445C15.1031 33.73 15.1 32.755 15.1 31.25H12ZM39.9 31.25C39.9 32.755 39.8969 33.7284 39.8008 34.4445C39.7094 35.1172 39.5637 35.328 39.4459 35.4458L41.6376 37.6375C42.4281 36.847 42.7365 35.8736 42.8729 34.8584C43.0031 33.885 43 32.6682 43 31.25H39.9ZM35.25 39C36.6683 39 37.8865 39.0031 38.8584 38.8729C39.8736 38.7365 40.8486 38.428 41.6376 37.6375L39.4459 35.4458C39.3281 35.5636 39.1173 35.7093 38.4446 35.8008C37.7285 35.8969 36.7551 35.9 35.25 35.9V39ZM43 18.54C43 17.1217 43.0031 15.9034 42.8729 14.9316C42.7365 13.9163 42.4281 12.9414 41.6376 12.1524L39.4459 14.3441C39.5637 14.4619 39.7094 14.6727 39.8008 15.3454C39.8969 16.0615 39.9 17.0349 39.9 18.54H43ZM35.2485 13.89C36.7535 13.89 37.7285 13.8931 38.4446 13.9892C39.1173 14.0806 39.3281 14.2263 39.4459 14.3441L41.6376 12.1524C40.8471 11.3619 39.8736 11.0535 38.8568 10.9171C37.885 10.7869 36.6667 10.79 35.25 10.79L35.2485 13.89ZM15.1 18.54C15.1 17.0349 15.1031 16.0615 15.1992 15.3454C15.2907 14.6727 15.4364 14.4619 15.5542 14.3441L13.3625 12.1524C12.572 12.9429 12.2635 13.9163 12.1271 14.9316C11.9969 15.905 12 17.1217 12 18.54H15.1ZM19.7516 10.79C18.3333 10.79 17.115 10.7869 16.1432 10.9171C15.1264 11.0535 14.1514 11.3619 13.3625 12.1524L15.5542 14.3441C15.672 14.2263 15.8828 14.0806 16.5555 13.9892C17.2731 13.8931 18.245 13.89 19.7516 13.89V10.79Z" fill="#2C9378"/>
</svg>
