<svg width="79" height="66" viewBox="0 0 79 66" fill="none" xmlns="http://www.w3.org/2000/svg">
<path d="M0.229505 35.7437C-0.971223 22.3667 2.83108 6.34081 4.88232 0C2.84106 6.50444 23.4436 14.5736 34 17.7952C12.9873 44.6413 30.3978 65.0444 29.6474 65.8114C28.8969 66.5785 24.094 64.7376 24.3942 65.0444C24.6343 65.2898 16.9897 61.6694 13.1374 59.8286C9.33504 57.3741 1.43023 49.1208 0.229505 35.7437Z" fill="white"/>
<path d="M45.6689 32.94C36.3391 43.1881 34.8924 54.7984 35.3353 59.3226C34.8924 58.5601 27.9541 47.7326 29.1351 39.1926C30.0799 32.3605 32.2352 29.585 33.1209 27.755C35.6305 22.57 39.8624 19.2659 43.0117 17.2325C46.5547 14.1825 65.4506 4.37167 74.7509 0C80.0653 17.69 79.1795 33.3976 78.4414 39.6501C69.584 64.3551 50.7374 67.0493 43.0117 65.7276C41.3583 56.9436 45.7674 46.2076 48.1786 41.9376C58.8075 25.315 61.76 33.7026 65.1553 26.9925C67.8716 21.6245 64.0235 20.7909 61.76 21.045C60.2837 20.74 54.9988 22.692 45.6689 32.94Z" fill="white"/>
</svg>
