<svg width="76" height="76" viewBox="0 0 76 76" fill="none" xmlns="http://www.w3.org/2000/svg">
<ellipse cx="37.5781" cy="38" rx="37.5781" ry="37.5" fill="url(#paint0_linear_817_176)"/>
<path d="M42.2645 37.8998C36.63 44.0322 35.7563 50.9798 36.0238 53.6871C35.7563 53.2308 31.5661 46.7516 32.2793 41.6413C32.8499 37.553 34.1516 35.8922 34.6865 34.7971C36.2021 31.6944 38.7578 29.7172 40.6597 28.5004C42.7994 26.6753 54.211 20.8045 59.8277 18.1885C63.0372 28.7742 62.5023 38.1736 62.0565 41.9151C56.7073 56.6985 45.3254 58.3107 40.6597 57.5198C39.6612 52.2635 42.3239 45.8391 43.7801 43.2839C50.1991 33.337 51.9822 38.3561 54.0327 34.3408C55.6731 31.1286 53.3492 30.6297 51.9822 30.7818C51.0907 30.5993 47.899 31.7674 42.2645 37.8998Z" fill="white"/>
<path d="M13.9686 39.4511C13.2554 31.4936 15.5139 21.9604 16.7324 18.1885C15.5199 22.0577 27.7576 26.8578 34.0281 28.7742C21.5466 44.744 31.8884 56.8811 31.4426 57.3373C30.9969 57.7936 28.144 56.6985 28.3223 56.8811C28.4649 57.0271 23.9241 54.8734 21.6358 53.7783C19.3772 52.3183 14.6818 47.4087 13.9686 39.4511Z" fill="white"/>
<path d="M42.2645 37.8998C36.63 44.0322 35.7563 50.9798 36.0238 53.6871C35.7563 53.2308 31.5661 46.7516 32.2793 41.6413C32.8499 37.553 34.1516 35.8922 34.6865 34.7971C36.2021 31.6944 38.7578 29.7172 40.6597 28.5004C42.7994 26.6753 54.211 20.8045 59.8277 18.1885C63.0372 28.7742 62.5023 38.1736 62.0565 41.9151C56.7073 56.6985 45.3254 58.3107 40.6597 57.5198C39.6612 52.2635 42.3239 45.8391 43.7801 43.2839C50.1991 33.337 51.9822 38.3561 54.0327 34.3408C55.6731 31.1286 53.3492 30.6297 51.9822 30.7818C51.0907 30.5993 47.899 31.7674 42.2645 37.8998Z" fill="white"/>
<path d="M13.9686 39.4511C13.2554 31.4936 15.5139 21.9604 16.7324 18.1885C15.5199 22.0577 27.7576 26.8578 34.0281 28.7742C21.5466 44.744 31.8884 56.8811 31.4426 57.3373C30.9969 57.7936 28.144 56.6985 28.3223 56.8811C28.4649 57.0271 23.9241 54.8734 21.6358 53.7783C19.3772 52.3183 14.6818 47.4087 13.9686 39.4511Z" fill="white"/>
<defs>
<linearGradient id="paint0_linear_817_176" x1="0" y1="0.5" x2="74.9998" y2="75.6561" gradientUnits="userSpaceOnUse">
<stop stop-color="#79E194"/>
<stop offset="1" stop-color="#9EE56E"/>
</linearGradient>
</defs>
</svg>
