<svg width="247" height="76" viewBox="0 0 247 76" fill="none" xmlns="http://www.w3.org/2000/svg">
<path d="M100.381 55.86C98.4374 55.86 96.5534 55.584 94.7294 55.032C92.9294 54.48 91.5014 53.748 90.4454 52.836L92.0654 49.2C93.0974 50.016 94.3574 50.688 95.8454 51.216C97.3574 51.72 98.8694 51.972 100.381 51.972C102.253 51.972 103.645 51.672 104.557 51.072C105.493 50.472 105.961 49.68 105.961 48.696C105.961 47.976 105.697 47.388 105.169 46.932C104.665 46.452 104.017 46.08 103.225 45.816C102.433 45.552 101.353 45.252 99.9854 44.916C98.0654 44.46 96.5054 44.004 95.3054 43.548C94.1294 43.092 93.1094 42.384 92.2454 41.424C91.4054 40.44 90.9854 39.12 90.9854 37.464C90.9854 36.072 91.3574 34.812 92.1014 33.684C92.8694 32.532 94.0094 31.62 95.5214 30.948C97.0574 30.276 98.9294 29.94 101.137 29.94C102.673 29.94 104.185 30.132 105.673 30.516C107.161 30.9 108.445 31.452 109.525 32.172L108.049 35.808C106.945 35.16 105.793 34.668 104.593 34.332C103.393 33.996 102.229 33.828 101.101 33.828C99.2534 33.828 97.8734 34.14 96.9614 34.764C96.0734 35.388 95.6294 36.216 95.6294 37.248C95.6294 37.968 95.8814 38.556 96.3854 39.012C96.9134 39.468 97.5734 39.828 98.3654 40.092C99.1574 40.356 100.237 40.656 101.605 40.992C103.477 41.424 105.013 41.88 106.213 42.36C107.413 42.816 108.433 43.524 109.273 44.484C110.137 45.444 110.569 46.74 110.569 48.372C110.569 49.764 110.185 51.024 109.417 52.152C108.673 53.28 107.533 54.18 105.997 54.852C104.461 55.524 102.589 55.86 100.381 55.86ZM123.922 51.936C126.01 51.936 127.75 51.24 129.142 49.848L131.518 52.62C130.678 53.652 129.598 54.432 128.278 54.96C126.958 55.488 125.47 55.752 123.814 55.752C121.702 55.752 119.842 55.332 118.234 54.492C116.626 53.652 115.378 52.488 114.49 51C113.626 49.488 113.194 47.784 113.194 45.888C113.194 44.016 113.614 42.336 114.454 40.848C115.318 39.336 116.494 38.16 117.982 37.32C119.494 36.48 121.198 36.06 123.094 36.06C124.894 36.06 126.526 36.456 127.99 37.248C129.478 38.016 130.654 39.132 131.518 40.596C132.382 42.036 132.814 43.728 132.814 45.672L118.09 48.552C118.546 49.656 119.278 50.496 120.286 51.072C121.294 51.648 122.506 51.936 123.922 51.936ZM123.094 39.66C121.438 39.66 120.094 40.2 119.062 41.28C118.054 42.36 117.55 43.812 117.55 45.636V45.672L128.422 43.584C128.11 42.408 127.474 41.46 126.514 40.74C125.578 40.02 124.438 39.66 123.094 39.66ZM141.421 39.084C142.717 37.068 144.997 36.06 148.261 36.06V40.344C147.877 40.272 147.529 40.236 147.217 40.236C145.465 40.236 144.097 40.752 143.113 41.784C142.129 42.792 141.637 44.256 141.637 46.176V55.5H137.137V36.276H141.421V39.084ZM161.047 51.936C163.135 51.936 164.875 51.24 166.267 49.848L168.643 52.62C167.803 53.652 166.723 54.432 165.403 54.96C164.083 55.488 162.595 55.752 160.939 55.752C158.827 55.752 156.967 55.332 155.359 54.492C153.751 53.652 152.503 52.488 151.615 51C150.751 49.488 150.319 47.784 150.319 45.888C150.319 44.016 150.739 42.336 151.579 40.848C152.443 39.336 153.619 38.16 155.107 37.32C156.619 36.48 158.323 36.06 160.219 36.06C162.019 36.06 163.651 36.456 165.115 37.248C166.603 38.016 167.779 39.132 168.643 40.596C169.507 42.036 169.939 43.728 169.939 45.672L155.215 48.552C155.671 49.656 156.403 50.496 157.411 51.072C158.419 51.648 159.631 51.936 161.047 51.936ZM160.219 39.66C158.563 39.66 157.219 40.2 156.187 41.28C155.179 42.36 154.675 43.812 154.675 45.636V45.672L165.547 43.584C165.235 42.408 164.599 41.46 163.639 40.74C162.703 40.02 161.563 39.66 160.219 39.66ZM185.17 36.06C187.594 36.06 189.538 36.768 191.002 38.184C192.466 39.6 193.198 41.7 193.198 44.484V55.5H188.698V45.06C188.698 43.38 188.302 42.12 187.51 41.28C186.718 40.416 185.59 39.984 184.126 39.984C182.47 39.984 181.162 40.488 180.202 41.496C179.242 42.48 178.762 43.908 178.762 45.78V55.5H174.262V36.276H178.546V38.76C179.29 37.872 180.226 37.2 181.354 36.744C182.482 36.288 183.754 36.06 185.17 36.06ZM198.907 36.276H203.407V55.5H198.907V36.276ZM201.175 33.108C200.359 33.108 199.675 32.856 199.123 32.352C198.571 31.824 198.295 31.176 198.295 30.408C198.295 29.64 198.571 29.004 199.123 28.5C199.675 27.972 200.359 27.708 201.175 27.708C201.991 27.708 202.675 27.96 203.227 28.464C203.779 28.944 204.055 29.556 204.055 30.3C204.055 31.092 203.779 31.764 203.227 32.316C202.699 32.844 202.015 33.108 201.175 33.108ZM220.113 54.456C219.585 54.888 218.937 55.212 218.169 55.428C217.425 55.644 216.633 55.752 215.793 55.752C213.681 55.752 212.049 55.2 210.897 54.096C209.745 52.992 209.169 51.384 209.169 49.272V32.028H213.669V36.42H218.817V40.02H213.669V49.164C213.669 50.1 213.897 50.82 214.353 51.324C214.833 51.804 215.493 52.044 216.333 52.044C217.341 52.044 218.181 51.78 218.853 51.252L220.113 54.456ZM242.445 36.276V52.584C242.445 59.352 239.121 62.736 232.473 62.736C230.721 62.736 229.041 62.496 227.433 62.016C225.849 61.56 224.541 60.888 223.509 60L225.525 56.616C226.341 57.312 227.337 57.864 228.513 58.272C229.689 58.68 230.925 58.884 232.221 58.884C234.189 58.884 235.629 58.404 236.541 57.444C237.477 56.508 237.945 55.056 237.945 53.088V52.188C237.225 52.98 236.349 53.592 235.317 54.024C234.285 54.432 233.169 54.636 231.969 54.636C229.401 54.636 227.373 53.928 225.885 52.512C224.421 51.096 223.689 48.972 223.689 46.14V36.276H228.189V45.564C228.189 47.268 228.573 48.552 229.341 49.416C230.133 50.256 231.249 50.676 232.689 50.676C234.297 50.676 235.569 50.184 236.505 49.2C237.465 48.216 237.945 46.788 237.945 44.916V36.276H242.445Z" fill="#2C9378"/>
<ellipse cx="37.5781" cy="38" rx="37.5781" ry="37.5" fill="url(#paint0_linear_757_379)"/>
<path d="M42.2646 37.8998C36.6301 44.0322 35.7564 50.9798 36.0238 53.6871C35.7564 53.2308 31.5662 46.7516 32.2794 41.6413C32.85 37.553 34.1516 35.8922 34.6865 34.7971C36.2021 31.6944 38.7579 29.7172 40.6598 28.5004C42.7995 26.6753 54.2111 20.8045 59.8277 18.1885C63.0373 28.7742 62.5023 38.1736 62.0566 41.9151C56.7074 56.6985 45.3255 58.3107 40.6598 57.5198C39.6613 52.2635 42.324 45.8391 43.7802 43.2839C50.1992 33.337 51.9823 38.3561 54.0328 34.3408C55.6732 31.1286 53.3493 30.6297 51.9823 30.7818C51.0907 30.5993 47.899 31.7674 42.2646 37.8998Z" fill="white"/>
<path d="M13.9685 39.4511C13.2553 31.4936 15.5139 21.9604 16.7323 18.1885C15.5198 22.0577 27.7576 26.8578 34.028 28.7742C21.5466 44.744 31.8884 56.8811 31.4426 57.3373C30.9968 57.7936 28.1439 56.6985 28.3222 56.8811C28.4649 57.0271 23.924 54.8734 21.6357 53.7783C19.3772 52.3183 14.6818 47.4087 13.9685 39.4511Z" fill="white"/>
<path d="M42.2646 37.8998C36.6301 44.0322 35.7564 50.9798 36.0238 53.6871C35.7564 53.2308 31.5662 46.7516 32.2794 41.6413C32.85 37.553 34.1516 35.8922 34.6865 34.7971C36.2021 31.6944 38.7579 29.7172 40.6598 28.5004C42.7995 26.6753 54.2111 20.8045 59.8277 18.1885C63.0373 28.7742 62.5023 38.1736 62.0566 41.9151C56.7074 56.6985 45.3255 58.3107 40.6598 57.5198C39.6613 52.2635 42.324 45.8391 43.7802 43.2839C50.1992 33.337 51.9823 38.3561 54.0328 34.3408C55.6732 31.1286 53.3493 30.6297 51.9823 30.7818C51.0907 30.5993 47.899 31.7674 42.2646 37.8998Z" fill="white"/>
<path d="M13.9685 39.4511C13.2553 31.4936 15.5139 21.9604 16.7323 18.1885C15.5198 22.0577 27.7576 26.8578 34.028 28.7742C21.5466 44.744 31.8884 56.8811 31.4426 57.3373C30.9968 57.7936 28.1439 56.6985 28.3222 56.8811C28.4649 57.0271 23.924 54.8734 21.6357 53.7783C19.3772 52.3183 14.6818 47.4087 13.9685 39.4511Z" fill="white"/>
<defs>
<linearGradient id="paint0_linear_757_379" x1="0" y1="0.5" x2="74.9998" y2="75.6561" gradientUnits="userSpaceOnUse">
<stop stop-color="#79E194"/>
<stop offset="1" stop-color="#9EE56E"/>
</linearGradient>
</defs>
</svg>
