<svg width="25" height="19" viewBox="0 0 25 19" fill="none" xmlns="http://www.w3.org/2000/svg">
<path d="M0 13.2766C0 11.942 0.402669 10.7685 1.21951 9.73309C2.03636 8.69765 3.0833 8.04188 4.37184 7.75426C4.63645 6.56926 5.17717 5.53382 5.98251 4.64795C6.78785 3.76208 7.76576 3.12931 8.89323 2.74965C9.60653 2.50805 10.3428 2.3815 11.1137 2.3815C12.0456 2.3815 12.9544 2.56558 13.8173 2.93373C14.1394 2.393 14.5191 1.92131 14.9563 1.53014C15.3935 1.13898 15.8422 0.828348 16.3023 0.621261C16.7625 0.414174 17.2227 0.253106 17.6599 0.149562C18.0971 0.0460189 18.5343 0 18.9485 0C19.3856 0 19.8573 0.057524 20.3636 0.184077L21.3069 0.471698C21.468 0.540727 21.514 0.62126 21.468 0.724804L21.3069 1.41509C21.2264 1.77174 21.1919 2.10538 21.1919 2.40451C21.1919 2.76116 21.2494 3.12931 21.3645 3.49747C21.4795 3.86562 21.6406 4.22227 21.8707 4.57892C22.0893 4.93557 22.3999 5.2462 22.7911 5.53382C23.1822 5.82144 23.6194 6.04004 24.1141 6.1896L24.8274 6.44271C24.9425 6.47722 25 6.53474 25 6.62678C25 6.64979 24.9885 6.6728 24.977 6.70732L24.7699 7.47814C24.4593 8.72066 23.8725 9.69857 23.0442 10.4349C23.5044 11.2402 23.7575 12.1031 23.792 13.012C23.8035 13.0695 23.8035 13.15 23.8035 13.2766C23.8035 14.3005 23.5504 15.2554 23.0327 16.1298C22.5265 17.0041 21.8247 17.6944 20.9618 18.2006C20.0874 18.7069 19.1325 18.9715 18.1086 18.9715H5.67188C4.64795 18.9715 3.69305 18.7184 2.81868 18.2006C1.94432 17.6829 1.26553 16.9926 0.759319 16.1298C0.253107 15.2669 0 14.312 0 13.2766ZM1.96733 13.2766C1.96733 14.3005 2.33548 15.1864 3.07179 15.9342C3.8081 16.682 4.67096 17.0617 5.67188 17.0617H18.1086C19.1325 17.0617 20.0069 16.6935 20.7317 15.9457C21.4565 15.1979 21.8247 14.312 21.8247 13.2766C21.8247 12.2641 21.4565 11.4013 20.7202 10.6765C19.9839 9.95168 19.1095 9.58352 18.0971 9.58352H16.0492L15.9342 8.72066C15.8191 7.55867 15.3359 6.55775 14.4846 5.74091C13.6332 4.92407 12.6208 4.46387 11.4588 4.36033C11.4243 4.36033 11.3668 4.36033 11.2862 4.34883C11.2057 4.33732 11.1597 4.33732 11.1137 4.33732C10.5269 4.33732 9.94018 4.45237 9.34192 4.67096V4.64795C8.50207 4.97009 7.78877 5.49931 7.22503 6.22411C6.64979 6.94892 6.30465 7.77727 6.1896 8.72066L6.10907 9.54901L5.32674 9.58352C4.36033 9.69857 3.55499 10.1012 2.91072 10.803C2.26645 11.5048 1.96733 12.3217 1.96733 13.2766ZM15.4855 3.94616C16.705 4.9931 17.4643 6.21261 17.752 7.60469H18.1201C19.5467 7.60469 20.7662 8.05338 21.7671 8.96226C22.1468 8.60561 22.4344 8.19144 22.6415 7.73125C21.5946 7.23654 20.7662 6.47722 20.1565 5.46479C19.5582 4.45237 19.2476 3.38242 19.2476 2.26645V1.99034C19.1901 1.97883 19.098 1.97883 18.9715 1.97883C18.3042 1.96733 17.6484 2.12839 17.0156 2.48504C16.3829 2.83019 15.8652 3.31339 15.4855 3.94616Z" fill="black"/>
</svg>
