<svg width="25" height="20" viewBox="0 0 25 20" fill="none" xmlns="http://www.w3.org/2000/svg">
<path d="M0 12.5057C0 12.2074 0.103258 11.9665 0.309775 11.7944C0.470399 11.6223 0.711335 11.5305 1.02111 11.5305H3.40753C3.68288 11.5305 3.92382 11.6223 4.09592 11.8059C4.27949 11.9894 4.37127 12.2189 4.37127 12.4943C4.37127 12.7696 4.27949 12.9991 4.09592 13.1941C3.91235 13.3892 3.68288 13.481 3.40753 13.481H1.02111C0.745755 13.481 0.504818 13.3892 0.298302 13.1941C0.0917849 13.0106 0 12.7811 0 12.5057ZM1.05553 18.3341C1.05553 18.0702 1.15879 17.8408 1.35383 17.6342C1.5374 17.4507 1.77834 17.3704 2.05369 17.3704H22.9463C23.2217 17.3704 23.4626 17.4621 23.6576 17.6457C23.8527 17.8293 23.9445 18.0587 23.9445 18.3341C23.9445 18.6095 23.8412 18.8389 23.6462 19.034C23.4511 19.229 23.2102 19.3323 22.9463 19.3323H2.06517C1.78981 19.3323 1.56035 19.229 1.36531 19.034C1.17026 18.8389 1.05553 18.6095 1.05553 18.3341ZM3.40753 4.37127C3.40753 4.07297 3.49931 3.85498 3.67141 3.69436C3.86645 3.48784 4.10739 3.38458 4.38274 3.38458C4.6581 3.38458 4.88756 3.48784 5.08261 3.69436L6.73474 5.36944C6.94126 5.55301 7.03304 5.78247 7.03304 6.05783C7.03304 6.34465 6.94126 6.57412 6.75769 6.75769C6.57412 6.94126 6.34465 7.03304 6.0693 7.03304C5.81689 7.03304 5.58743 6.94126 5.38091 6.75769L3.67141 5.07113C3.49931 4.91051 3.40753 4.68105 3.40753 4.37127ZM6.39055 12.5057C6.39055 13.5039 6.59706 14.3988 6.99862 15.179C7.03304 15.2822 7.12483 15.3396 7.27398 15.3396H9.19C9.27031 15.3396 9.32767 15.3167 9.35062 15.2708C9.37357 15.2249 9.33915 15.156 9.27031 15.0872C8.66223 14.3414 8.35246 13.481 8.35246 12.5057C8.35246 11.3699 8.76549 10.3947 9.58008 9.59156C10.3947 8.78843 11.3699 8.38688 12.5057 8.38688C13.6416 8.38688 14.6168 8.78843 15.4314 9.59156C16.246 10.3947 16.6361 11.3699 16.6361 12.5057C16.6361 13.4924 16.3263 14.3529 15.7182 15.0872C15.6723 15.156 15.6494 15.2019 15.6494 15.2249C15.6379 15.2593 15.6494 15.2937 15.6838 15.3052C15.7067 15.3281 15.7526 15.3396 15.7985 15.3396H17.749C17.8522 15.3396 17.9325 15.2822 17.9899 15.179C18.4259 14.3644 18.6324 13.481 18.6324 12.5057C18.6324 11.4043 18.357 10.3832 17.8063 9.4424C17.2556 8.50161 16.5099 7.75585 15.5691 7.20514C14.6283 6.65443 13.6072 6.37907 12.5057 6.37907C11.4043 6.37907 10.3832 6.65443 9.4424 7.20514C8.50161 7.75585 7.75585 8.50161 7.20514 9.4424C6.65443 10.3832 6.39055 11.4043 6.39055 12.5057ZM11.519 3.40753V1.00964C11.519 0.734282 11.6108 0.504819 11.8059 0.298302C12.0009 0.0917855 12.2304 0 12.5057 0C12.7811 0 13.0106 0.103259 13.2171 0.298302C13.4121 0.493346 13.5154 0.734282 13.5154 1.00964V3.40753C13.5154 3.68288 13.4121 3.91235 13.2171 4.11886C13.0106 4.32538 12.7811 4.41716 12.5057 4.41716C12.2304 4.41716 12.0009 4.31391 11.8059 4.11886C11.6108 3.91235 11.519 3.68288 11.519 3.40753ZM17.967 6.05783C17.967 5.78247 18.0587 5.55301 18.2423 5.36944L19.8944 3.69436C20.0895 3.48784 20.3304 3.38458 20.6058 3.38458C20.8926 3.38458 21.1335 3.47637 21.3171 3.67141C21.5122 3.86645 21.6039 4.09592 21.6039 4.37127C21.6039 4.66957 21.5122 4.89904 21.3401 5.07113L19.6076 6.75769C19.424 6.92979 19.1946 7.0101 18.9307 7.0101C18.6439 7.02157 18.4144 6.92979 18.2308 6.75769C18.0587 6.58559 17.967 6.34465 17.967 6.05783ZM20.6402 12.5057C20.6402 12.196 20.732 11.9665 20.9156 11.7944C21.0762 11.6223 21.3056 11.5305 21.5925 11.5305H23.9904C24.2657 11.5305 24.5067 11.6223 24.7017 11.8059C24.8967 11.9894 25 12.2189 25 12.4943C25 12.7696 24.8967 12.9991 24.7017 13.1941C24.4952 13.3892 24.2657 13.481 23.9904 13.481H21.5925C21.3286 13.481 21.0991 13.3892 20.9156 13.1941C20.732 13.0106 20.6402 12.7811 20.6402 12.5057Z" fill="black"/>
</svg>
