<svg width="142" height="142" viewBox="0 0 142 142" fill="none" xmlns="http://www.w3.org/2000/svg">
<g clip-path="url(#clip0_993_1915)">
<rect width="142" height="142" rx="71" fill="url(#paint0_linear_993_1915)"/>
<path d="M58.3586 98.8671C62.4579 92.0511 71.8693 78.9863 94.2784 60.6283C128.093 32.9265 96.1788 7.58858 61.8934 21.0835C58.2257 22.5273 48.0622 16.7474 38.6476 22.8365C32.5744 26.7644 34.9379 29.8427 32.5732 32.921C30.2085 35.9993 21.0916 35.8182 19.0944 43.8114C17.9115 48.5469 21.1849 53.5073 20.7471 57.0716C20.3092 60.636 16.8537 63.8489 16.6889 68.5543C16.6175 70.5417 16.9383 72.5237 17.6331 74.3871C18.3278 76.2504 19.3828 77.9587 20.7379 79.4143C22.0929 80.8699 23.7214 82.0442 25.5304 82.8703C27.3394 83.6964 29.2934 84.1581 31.2808 84.2289C31.297 88.1578 32.8311 91.9285 35.5625 94.7528C38.2939 97.577 42.0111 99.2364 45.9373 99.384C48.4549 99.476 50.9553 98.9344 53.2092 97.8089C55.4455 99.87 57.3653 100.518 58.3586 98.8671Z" fill="url(#paint1_linear_993_1915)"/>
<path d="M66.7398 19.4066C60.9102 23.146 53.6981 35.41 56.8637 51.8731C57.5543 55.4652 55.3964 56.5406 53.5504 52.1097C47.9807 38.7423 47.335 26.687 56.8637 20.9204C58.5204 19.9231 59.467 20.731 60.6504 20.6331C62.9011 20.4466 65.9314 18.8519 66.7398 19.4066Z" fill="url(#paint2_linear_993_1915)"/>
<path d="M59.1665 91.8269C59.1665 87.5669 59.0216 66.5547 59.0287 66.1997C47.3332 67.9236 47.5698 45.6769 59.4032 51.1202C62.0065 52.7769 69.3432 51.1202 68.6332 37.3936C81.4132 51.1202 96.2507 35.1102 97.5231 48.1562C99.2607 65.9701 97.5126 84.6128 86.4418 84.6142C85.2307 84.5996 84.0232 84.4789 82.8332 84.2536V91.8269C82.8332 96.5602 91.3532 98.9269 91.3532 98.9269C91.3532 98.9269 76.6363 112.796 70.5265 112.719C64.4167 112.642 50.6465 98.9269 50.6465 98.9269C50.6465 98.9269 59.1665 96.5602 59.1665 91.8269Z" fill="url(#paint3_linear_993_1915)"/>
<g style="mix-blend-mode:multiply">
<path d="M82.8329 84.2514C76.9608 82.9491 71.3963 80.5221 66.4467 77.1045C66.4467 77.1045 70.5306 87.0885 82.8177 88.9829L82.8329 84.2514Z" fill="#FFDBC9"/>
</g>
<path d="M114.547 113.126C117.981 120.757 119.753 143.893 119.753 143.893H22.2466C22.2466 143.893 24.0192 120.757 27.4532 113.126C30.4618 106.441 50.2864 98.7658 56.0961 96.5596C59.4506 100.312 64.2578 102.713 70.9999 102.713C77.7421 102.713 82.5492 100.312 85.9038 96.5596C91.7135 98.7658 111.538 106.441 114.547 113.126Z" fill="url(#paint4_linear_993_1915)"/>
</g>
<defs>
<linearGradient id="paint0_linear_993_1915" x1="71" y1="142" x2="71" y2="0" gradientUnits="userSpaceOnUse">
<stop stop-color="white"/>
<stop offset="1" stop-color="#9EE56E" stop-opacity="0.42"/>
</linearGradient>
<linearGradient id="paint1_linear_993_1915" x1="61.0393" y1="99.9514" x2="63.9551" y2="16.7281" gradientUnits="userSpaceOnUse">
<stop stop-color="#0B0A0A"/>
<stop offset="0.910416" stop-color="#64554E"/>
<stop offset="0.9999" stop-color="#A3928B"/>
<stop offset="1" stop-color="#E67240"/>
<stop offset="1" stop-color="#C1C1C1"/>
</linearGradient>
<linearGradient id="paint2_linear_993_1915" x1="58.1201" y1="19.29" x2="58.1201" y2="55.0199" gradientUnits="userSpaceOnUse">
<stop stop-color="#1D0024"/>
<stop offset="1" stop-color="#100014"/>
</linearGradient>
<linearGradient id="paint3_linear_993_1915" x1="74.2468" y1="37.3936" x2="74.2468" y2="112.719" gradientUnits="userSpaceOnUse">
<stop stop-color="#FFE0CC"/>
<stop offset="1" stop-color="#FFEADB"/>
</linearGradient>
<linearGradient id="paint4_linear_993_1915" x1="70.9999" y1="96.5596" x2="70.9999" y2="143.893" gradientUnits="userSpaceOnUse">
<stop stop-color="#2C9378"/>
<stop offset="1" stop-color="#130017"/>
</linearGradient>
<clipPath id="clip0_993_1915">
<rect width="142" height="142" rx="71" fill="white"/>
</clipPath>
</defs>
</svg>
