<svg width="57" height="56" viewBox="0 0 57 56" fill="none" xmlns="http://www.w3.org/2000/svg">
<path d="M28.0125 1.5C13.3769 1.5 1.51245 13.3644 1.51245 28C1.51245 42.6354 13.3769 54.5 28.0125 54.5C42.6479 54.5 54.5125 42.6354 54.5125 28C54.5125 13.3644 42.6479 1.5 28.0125 1.5Z" stroke="#2C9378" stroke-width="3" stroke-linecap="round" stroke-linejoin="round"/>
<path d="M7.53064 44.816C7.53064 44.816 13.4375 37.2749 28.0125 37.2749C42.5875 37.2749 48.4946 44.816 48.4946 44.816" stroke="#2C9378" stroke-width="3" stroke-linecap="round" stroke-linejoin="round"/>
<path d="M28.0125 28.0001C32.4033 28.0001 35.9625 24.4409 35.9625 20.0501C35.9625 15.6594 32.4033 12.1001 28.0125 12.1001C23.6217 12.1001 20.0625 15.6594 20.0625 20.0501C20.0625 24.4409 23.6217 28.0001 28.0125 28.0001Z" stroke="#2C9378" stroke-width="3" stroke-linecap="round" stroke-linejoin="round"/>
</svg>
