<svg width="405" height="512" viewBox="0 0 405 512" fill="none" xmlns="http://www.w3.org/2000/svg">
<g filter="url(#filter0_b_567_1862)">
<circle cx="207" cy="253" r="198" fill="#9EE56E" fill-opacity="0.2"/>
</g>
<g opacity="0.9">
<path d="M165.979 98.2141L52.6469 147.429C50.8915 148.191 50.1533 150.093 50.9981 151.677L127.072 294.304C127.917 295.888 130.025 296.554 131.78 295.792L245.113 246.577C246.868 245.815 247.606 243.913 246.761 242.329L170.688 99.7018C169.843 98.1179 167.735 97.4518 165.979 98.2141Z" fill="#E0E0E0"/>
<path d="M164.174 102.893L57.8444 149.066L131.5 287.159L237.829 240.986L164.174 102.893Z" fill="#FAFAFA"/>
<path d="M133.746 118.676C131.623 117.193 129.083 116.273 126.411 116.021C123.74 115.769 121.044 116.195 118.626 117.25L115.362 111.452C114.224 109.326 112.2 107.693 109.732 106.909C107.264 106.124 104.553 106.253 102.189 107.265C101.013 107.775 99.9595 108.489 99.0894 109.367C98.2193 110.245 97.5496 111.268 97.1187 112.38C96.6877 113.491 96.5039 114.668 96.5778 115.844C96.6517 117.02 96.9818 118.171 97.5493 119.231L100.813 125.346L98.5446 126.376C96.1769 127.449 94.181 129.088 92.7744 131.114C91.3678 133.14 90.6044 135.475 90.5675 137.866V140.903L136.864 120.803L133.746 118.676ZM109.039 119.627C108.087 120.039 107.021 120.186 105.976 120.051C104.93 119.917 103.953 119.505 103.167 118.87C102.38 118.234 101.82 117.402 101.558 116.479C101.295 115.557 101.341 114.584 101.69 113.685C102.039 112.786 102.676 112.001 103.519 111.428C104.363 110.855 105.376 110.52 106.43 110.467C107.484 110.413 108.532 110.642 109.442 111.125C110.352 111.609 111.083 112.324 111.542 113.182C111.848 113.753 112.026 114.374 112.066 115.007C112.105 115.64 112.006 116.275 111.774 116.873C111.541 117.472 111.18 118.024 110.711 118.496C110.241 118.969 109.673 119.353 109.039 119.627Z" fill="#EBEBEB"/>
<path d="M107.693 151.509C107.795 151.681 101.413 154.626 93.451 158.112C85.4885 161.599 78.9605 164.227 78.8141 164.055C78.6677 163.884 85.0933 160.939 93.0558 157.452C101.018 153.965 107.605 151.337 107.693 151.509Z" fill="#E0E0E0"/>
<path d="M95.105 162.378C92.9731 163.686 90.7031 164.801 88.3281 165.706C86.0599 166.797 83.677 167.682 81.2146 168.348C83.3648 167.062 85.6493 165.969 88.0354 165.085C90.2925 163.985 92.6595 163.078 95.105 162.378Z" fill="#E0E0E0"/>
<path d="M169.357 145.196C169.445 145.354 151.559 153.305 129.399 162.919C107.239 172.534 89.2061 180.207 89.1182 180.088C89.0304 179.969 106.917 171.926 129.018 162.299C151.12 152.671 169.27 145.024 169.357 145.196Z" fill="#E0E0E0"/>
<path d="M173.046 152.09C173.134 152.261 155.248 160.199 133.088 169.827C110.928 179.454 92.895 187.114 92.8072 186.996C92.7194 186.877 110.591 178.887 132.766 169.259C154.941 159.631 172.929 151.918 173.046 152.09Z" fill="#E0E0E0"/>
<path d="M176.72 158.997C176.823 159.169 158.922 167.106 136.776 176.734C114.631 186.362 96.5832 194.022 96.4808 193.903C96.3783 193.784 114.279 185.794 136.439 176.166C158.6 166.538 176.632 158.825 176.72 158.997Z" fill="#E0E0E0"/>
<path d="M180.408 165.904C180.496 166.076 162.61 174.013 140.45 183.641C118.289 193.269 100.257 200.916 100.169 200.81C100.081 200.704 117.967 192.701 140.128 183.086C162.288 173.472 180.32 165.732 180.408 165.904Z" fill="#E0E0E0"/>
<path d="M184.097 172.798C184.185 172.97 166.299 180.921 144.139 190.535C121.978 200.15 103.946 207.823 103.858 207.704C103.77 207.585 121.7 199.542 143.802 189.914C165.904 180.287 183.995 172.64 184.097 172.798Z" fill="#E0E0E0"/>
<path d="M187.771 179.705C187.858 179.877 169.972 187.814 147.827 197.442C125.681 207.07 107.619 214.73 107.531 214.611C107.444 214.492 125.33 206.502 147.49 196.874C169.65 187.247 187.683 179.534 187.771 179.705Z" fill="#E0E0E0"/>
<path d="M150.974 203.359C150.522 203.678 150.031 203.948 149.51 204.165L145.265 206.132C141.665 207.757 136.659 209.976 131.126 212.379C125.593 214.783 120.544 216.936 116.885 218.454L112.493 220.224C111.974 220.469 111.424 220.656 110.854 220.779C111.313 220.47 111.803 220.2 112.318 219.973L116.563 218.019C120.163 216.381 125.169 214.162 130.702 211.759C136.234 209.355 141.284 207.215 144.943 205.697L149.334 203.927C149.855 203.682 150.405 203.492 150.974 203.359Z" fill="#E0E0E0"/>
<path d="M163.635 126.442C161.674 127.673 159.574 128.714 157.37 129.545C155.279 130.583 153.071 131.416 150.784 132.028C152.744 130.797 154.844 129.757 157.048 128.925C159.139 127.887 161.347 127.055 163.635 126.442Z" fill="#E0E0E0"/>
<path d="M140.728 226.353C137.437 228.169 134.014 229.784 130.482 231.186C127.06 232.797 123.525 234.205 119.9 235.399C123.191 233.583 126.614 231.968 130.145 230.566C133.567 228.954 137.102 227.547 140.728 226.353Z" fill="#E0E0E0"/>
<path d="M144.797 232.295C141.447 234.134 137.966 235.771 134.376 237.195C130.898 238.836 127.304 240.27 123.618 241.487C126.972 239.65 130.453 238.009 134.039 236.574C137.52 234.941 141.113 233.511 144.797 232.295Z" fill="#E0E0E0"/>
<path d="M200.739 199.133C199.257 200.166 197.621 201.006 195.88 201.629C194.246 202.467 192.493 203.098 190.669 203.504C192.165 202.482 193.804 201.643 195.543 201.008C197.175 200.178 198.923 199.547 200.739 199.133Z" fill="#E0E0E0"/>
<path d="M204.062 204.627C202.566 205.649 200.927 206.488 199.188 207.123C197.555 207.954 195.808 208.584 193.991 208.998C195.474 207.966 197.11 207.125 198.851 206.502C200.484 205.665 202.238 205.034 204.062 204.627Z" fill="#E0E0E0"/>
<path d="M138.591 243.099C137.156 244.096 135.575 244.91 133.892 245.516C132.314 246.324 130.62 246.933 128.857 247.325C130.29 246.307 131.871 245.472 133.556 244.842C135.137 244.054 136.831 243.467 138.591 243.099Z" fill="#E0E0E0"/>
<path d="M207.911 211.059C206.896 211.879 205.72 212.52 204.442 212.947C203.264 213.586 201.971 214.033 200.622 214.268C201.64 213.442 202.822 212.797 204.105 212.366C205.274 211.722 206.564 211.279 207.911 211.059Z" fill="#E0E0E0"/>
<path d="M136.146 262.46C136.272 262.355 136.41 262.263 136.556 262.183L137.786 261.443L142.514 258.709L159.507 249.081L159.844 248.883L159.99 249.213C160.793 251.078 160.86 253.134 160.18 255.038C159.835 256.07 159.234 257.018 158.422 257.81C157.611 258.602 156.61 259.216 155.496 259.607C154.305 260.04 153.013 260.201 151.736 260.074C150.459 259.947 149.237 259.537 148.178 258.881C147.119 258.142 146.325 257.138 145.896 255.994C145.466 254.85 145.42 253.617 145.763 252.449C146.026 251.552 146.529 250.727 147.227 250.046C147.398 249.874 147.584 249.715 147.783 249.57C147.981 249.407 148.202 249.269 148.441 249.161C148.6 249.087 148.775 249.048 148.954 249.048C149.132 249.048 149.308 249.087 149.466 249.161C149.715 249.315 149.917 249.524 150.052 249.768C150.935 251.279 151.435 252.948 151.515 254.655C151.626 256.297 151.342 257.942 150.681 259.475C150.122 261.009 149.015 262.333 147.534 263.239C146.783 263.644 145.92 263.849 145.046 263.833C144.171 263.817 143.319 263.579 142.587 263.147C141.223 262.373 140.191 261.204 139.659 259.832C138.983 257.382 138.983 254.82 139.659 252.37L139.747 251.868L140.128 252.251C141.681 253.847 142.656 255.833 142.923 257.943C143.128 259.52 142.958 261.118 142.426 262.632C142.086 263.573 141.592 264.463 140.962 265.273C140.728 265.55 140.538 265.735 140.406 265.867C140.274 265.999 140.216 266.066 140.201 266.052C141.054 264.983 141.712 263.797 142.148 262.539C142.607 261.058 142.727 259.507 142.499 257.983C142.21 255.966 141.245 254.076 139.733 252.568L140.201 252.449C139.55 254.808 139.55 257.275 140.201 259.634C140.692 260.874 141.637 261.927 142.879 262.618C143.506 262.987 144.236 263.189 144.984 263.2C145.732 263.212 146.469 263.033 147.11 262.685C148.445 261.844 149.442 260.634 149.949 259.238C150.556 257.78 150.816 256.222 150.71 254.668C150.604 253.061 150.104 251.496 149.247 250.085C149.183 249.943 149.077 249.819 148.939 249.729C148.89 249.703 148.835 249.69 148.778 249.69C148.722 249.69 148.666 249.703 148.617 249.729C148.257 249.915 147.935 250.156 147.666 250.442C147.074 251.042 146.652 251.762 146.436 252.542C146.131 253.579 146.171 254.674 146.551 255.691C146.931 256.708 147.634 257.601 148.573 258.26C149.521 258.839 150.61 259.201 151.747 259.316C152.884 259.431 154.035 259.295 155.101 258.921C156.115 258.567 157.027 258.01 157.768 257.291C158.508 256.573 159.058 255.712 159.375 254.774C160.023 253.013 159.976 251.105 159.244 249.372L159.727 249.517L142.587 258.934L137.757 261.575L136.483 262.236C136.38 262.321 136.267 262.396 136.146 262.46Z" fill="#E0E0E0"/>
<path d="M212.142 229.165C212.137 229.588 212.058 230.007 211.907 230.407C211.759 230.9 211.532 231.372 211.234 231.807C210.825 232.435 210.174 232.906 209.405 233.127C208.93 233.273 208.415 233.273 207.941 233.127C207.453 232.946 207.028 232.65 206.711 232.269C206.112 231.462 205.564 230.624 205.072 229.76L201.486 223.711L202.145 223.579C202.028 226.603 201.91 229.905 201.764 233.365C201.764 234.197 201.764 235.003 201.662 235.808V237.129L201.003 235.901C198.998 232.19 197.139 228.716 195.5 225.705H196.114C195.173 228.714 194.681 231.823 194.651 234.95C194.651 237.208 194.812 238.489 194.738 238.503C194.612 238.207 194.538 237.895 194.519 237.578C194.386 236.702 194.303 235.82 194.27 234.937C194.14 231.782 194.525 228.627 195.412 225.573L195.631 224.807L196.012 225.52L201.618 235.676L200.886 235.808C200.886 235.016 200.886 234.197 200.988 233.365C201.149 229.905 201.296 226.603 201.427 223.579V222.39L202.028 223.433C203.316 225.613 204.501 227.646 205.57 229.469C206.032 230.325 206.545 231.159 207.107 231.965C207.321 232.284 207.642 232.534 208.023 232.679C208.404 232.823 208.826 232.856 209.229 232.771C209.81 232.586 210.332 232.275 210.748 231.865C211.164 231.455 211.462 230.959 211.615 230.42C211.759 229.992 211.935 229.572 212.142 229.165Z" fill="#E0E0E0"/>
<path d="M211.994 224.226C212.111 224.371 206.066 228.267 198.499 232.916C190.932 237.565 184.697 241.197 184.58 241.038C184.462 240.88 190.434 236.997 198.075 232.348C205.715 227.699 211.877 224.067 211.994 224.226Z" fill="#E0E0E0"/>
<path d="M219.416 225.375C216.295 228.253 212.991 230.965 209.521 233.497C206.222 236.211 202.752 238.75 199.129 241.104C202.255 238.231 205.558 235.519 209.024 232.982C212.323 230.269 215.793 227.729 219.416 225.375Z" fill="#E0E0E0"/>
</g>
<path d="M292.437 41.5369C292.619 35.5393 286.525 30.9173 280.309 28.7163C274.094 26.5153 267.332 25.69 261.845 22.3473C256.993 19.376 253.734 14.7539 249.626 10.9848C244.556 6.32321 238.212 2.96949 231.242 1.26779C224.273 -0.433922 216.93 -0.422321 209.967 1.30139C203.004 3.0251 196.672 6.39885 191.621 11.0764C186.57 15.7539 182.981 21.5668 181.223 27.9185C178.874 36.4472 180.481 46.5304 187.894 52.2116C196.505 58.787 209.254 57.3289 220.276 55.2792C231.297 53.2296 243.789 51.1524 252.991 57.0812C258.54 60.6303 261.723 66.3941 265.119 71.7314C268.515 77.0688 272.699 82.5024 279.188 84.5108C285.676 86.5192 294.348 83.0526 294.575 76.9037" fill="#263238"/>
<path d="M291.997 44.8248C291.27 49.8457 295.272 54.3439 299.259 57.893C303.246 61.4421 307.749 65.1974 308.461 70.2734C309.28 76.1473 304.55 81.9248 305.93 87.7161C306.794 91.3889 309.947 94.2089 311.857 97.5517C314.389 102.361 314.806 107.866 313.024 112.945C311.387 118.007 308.764 129.301 304.883 133.235C294.165 144.102 277.11 153.484 261.45 156.744C245.79 160.004 229.508 160.032 213.468 159.137C200.34 158.408 185.225 158.959 174.28 142.561C168.61 134.06 165.805 122.78 162.804 113.234C160.196 104.98 157.952 96.2173 160.651 88.0187C162.167 83.2591 165.396 79.0085 166.942 74.2627C168.883 68.2925 168.17 61.8822 168.943 55.7333C169.788 49.0062 172.39 42.5594 176.534 36.9291C180.679 31.2988 186.245 26.6479 192.769 23.3634C199.294 20.0788 206.589 18.2556 214.047 18.0454C221.505 17.8352 228.911 19.2441 235.648 22.1548" fill="#263238"/>
<path d="M175.235 65.4177C176.463 48.3189 189 27.3547 207.784 29.198L266.392 42.7615C269.143 43.0358 271.681 44.2338 273.507 46.1201C275.334 48.0064 276.316 50.4444 276.262 52.9547L269.667 181.271L270.076 181.34C270.076 181.34 256.72 217.532 217.956 206.486C210.27 204.285 206.753 196.664 205.237 188.809H204.843C204.843 187.874 204.843 187.007 204.843 186.058C204.088 180.208 204.012 174.301 204.615 168.437C204.509 158.078 204.524 153.841 204.509 153.938C204.494 154.034 180.435 150.251 175.523 121.735C173.022 107.662 173.871 84.4147 175.235 65.4177Z" fill="#FFBE9D"/>
<path d="M184.68 82.5988C184.663 83.5517 185.058 84.4726 185.781 85.1642C186.504 85.8559 187.496 86.2633 188.545 86.2991C189.058 86.3365 189.574 86.2808 190.063 86.135C190.551 85.9892 191.003 85.7564 191.391 85.4503C191.78 85.1441 192.097 84.7706 192.324 84.3519C192.551 83.9331 192.684 83.4774 192.714 83.0114C192.727 82.0572 192.328 81.1363 191.603 80.4451C190.878 79.7538 189.884 79.3469 188.833 79.3111C188.322 79.2737 187.806 79.3295 187.319 79.4755C186.831 79.6214 186.38 79.8544 185.993 80.1607C185.606 80.4671 185.29 80.8406 185.065 81.2593C184.839 81.678 184.708 82.1334 184.68 82.5988Z" fill="#263238"/>
<path d="M180.754 77.5228C181.254 78.0043 184.316 75.9546 188.652 75.9684C192.988 75.9821 196.232 77.963 196.641 77.4816C196.869 77.2752 196.353 76.4086 194.974 75.5007C193.106 74.31 190.874 73.6799 188.591 73.6987C186.335 73.6815 184.131 74.3176 182.3 75.5144C180.966 76.4498 180.496 77.3027 180.754 77.5228Z" fill="#263238"/>
<path d="M227.295 82.5989C227.282 83.5531 227.681 84.474 228.406 85.1652C229.131 85.8565 230.125 86.2634 231.176 86.2992C231.688 86.3366 232.203 86.2808 232.691 86.1349C233.178 85.9889 233.629 85.7559 234.016 85.4496C234.403 85.1432 234.719 84.7697 234.944 84.351C235.17 83.9323 235.301 83.4769 235.33 83.0116C235.346 82.0587 234.951 81.1377 234.228 80.4461C233.506 79.7545 232.513 79.3471 231.464 79.3112C230.951 79.2719 230.434 79.3263 229.944 79.4714C229.455 79.6164 229.002 79.8491 228.614 80.1556C228.225 80.4621 227.908 80.8363 227.681 81.256C227.455 81.6757 227.323 82.1323 227.295 82.5989Z" fill="#263238"/>
<path d="M223.383 78.3346C223.884 78.816 226.946 76.7801 231.282 76.7939C235.617 76.8076 238.786 78.7885 239.256 78.307C239.483 78.0869 238.983 77.2341 237.588 76.3124C235.715 75.1316 233.487 74.5025 231.206 74.5104C228.953 74.5002 226.755 75.141 224.93 76.3399C223.596 77.2616 223.141 78.1832 223.383 78.3346Z" fill="#263238"/>
<path d="M207.572 107.484C207.572 107.264 204.903 106.837 200.537 106.314C199.431 106.218 198.385 106.012 198.187 105.324C198.099 104.287 198.364 103.25 198.945 102.353L202.235 94.7043C206.783 83.8233 210.118 74.8681 209.633 74.7168C209.148 74.5655 205.085 83.2318 200.537 94.1266C199.426 96.8044 198.374 99.3676 197.384 101.816C196.681 103.023 196.471 104.417 196.793 105.75C196.953 106.105 197.201 106.421 197.516 106.676C197.831 106.931 198.206 107.118 198.612 107.222C199.225 107.375 199.856 107.458 200.492 107.47C204.828 107.69 207.556 107.718 207.572 107.484Z" fill="#263238"/>
<path d="M204.463 154.048C219.258 154.281 233.833 150.781 246.563 143.937C246.563 143.937 235.951 163.649 204.494 160.926L204.463 154.048Z" fill="#EB996E"/>
<path d="M209.391 116.975C210.216 116.034 211.292 115.3 212.518 114.842C213.744 114.385 215.078 114.219 216.394 114.361C217.353 114.439 218.284 114.692 219.131 115.106C219.978 115.519 220.723 116.085 221.321 116.769C221.891 117.427 222.226 118.227 222.283 119.062C222.34 119.898 222.116 120.729 221.64 121.446C220.947 122.156 220.033 122.66 219.018 122.891C218.003 123.122 216.936 123.069 215.955 122.739C213.91 122.075 212.029 121.052 210.421 119.726C209.931 119.419 209.514 119.026 209.193 118.571C209.04 118.351 208.958 118.095 208.958 117.835C208.958 117.574 209.04 117.319 209.193 117.099" fill="#EB996E"/>
<path d="M220.321 110.234C219.624 110.234 219.609 114.471 215.561 117.484C211.513 120.496 206.465 120.029 206.465 120.634C206.465 120.895 207.587 121.459 209.694 121.514C212.451 121.557 215.136 120.714 217.274 119.135C219.324 117.618 220.645 115.438 220.958 113.054C221.17 111.266 220.655 110.207 220.321 110.234Z" fill="#263238"/>
<path d="M221.428 71.4424C221.852 72.5154 226.188 72.0202 231.267 72.5842C236.345 73.1482 240.469 74.4137 241.151 73.4646C241.454 73.0106 240.742 71.9927 239.074 70.961C236.883 69.6563 234.375 68.8538 231.767 68.6224C229.166 68.3284 226.526 68.602 224.065 69.4203C222.201 70.1081 221.261 70.9335 221.428 71.4424Z" fill="#263238"/>
<path d="M182.376 66.133C183.149 67.0272 186.135 66.133 189.728 66.133C193.321 66.133 196.353 66.7383 197.066 65.8166C197.369 65.3627 196.884 64.441 195.55 63.6157C193.768 62.5954 191.692 62.0793 189.586 62.1332C187.481 62.1871 185.44 62.8085 183.725 63.9183C182.467 64.7849 182.012 65.7066 182.376 66.133Z" fill="#263238"/>
<path d="M288.329 136.564C283.989 137.358 279.503 137.203 275.241 136.112C270.98 135.021 267.067 133.025 263.824 130.29C260.581 127.554 258.103 124.158 256.593 120.381C255.084 116.604 254.587 112.556 255.143 108.57C256.114 101.569 260.283 94.4429 257.599 87.8125C254.067 79.0499 240.529 76.3537 236.936 67.6049C234.844 62.5289 236.724 56.6001 234.359 51.6066C232.131 46.9158 226.703 44.2196 221.412 42.4864C216.122 40.7531 210.467 39.5563 206.025 36.4337C201.583 33.3111 198.824 27.396 201.689 23.0078C225.152 25.5569 248.197 30.6367 270.334 38.1395C275.473 39.8727 280.855 41.9636 283.887 46.1042C287.101 50.4786 286.919 56.1324 286.676 61.3872L282.72 138.173" fill="#263238"/>
<path d="M286.358 146.358C286.358 146.358 286.555 146.275 286.873 146.069L288.268 145.106C289.481 144.239 291.3 142.96 293.468 141.186C296.182 139.067 298.655 136.708 300.851 134.143C303.856 130.731 305.878 126.693 306.733 122.395C307.336 119.78 307.285 117.076 306.584 114.481C305.884 111.886 304.552 109.467 302.685 107.401C300.407 105.345 297.959 103.451 295.363 101.733C292.749 99.9354 290.764 97.4893 289.648 94.6902C287.328 88.8852 288.359 82.1585 287.465 75.2805C286.577 68.105 283.488 61.2993 278.551 55.6369C276.005 52.7848 272.836 50.4428 269.242 48.7589C265.714 47.3031 262.031 46.1784 258.251 45.4024C254.732 44.5991 251.44 43.1268 248.594 41.083C245.919 39.0495 243.562 36.6938 241.59 34.0812C237.649 28.9914 234.723 23.5715 230.978 19.0458C229.204 16.8299 227.125 14.8283 224.793 13.0894C222.603 11.4945 220.119 10.2649 217.456 9.45785C215.18 8.67001 212.733 8.3742 210.31 8.59388C207.886 8.81356 205.552 9.54269 203.493 10.7234C202.045 11.7429 200.854 13.031 199.999 14.5019C199.144 15.9727 198.645 17.5923 198.536 19.2522C198.348 21.3551 199.023 23.447 200.431 25.126C200.793 25.5519 201.222 25.9273 201.704 26.2402C201.86 26.3626 202.033 26.4645 202.22 26.5429C202.092 26.3987 201.949 26.2652 201.795 26.1439C201.364 25.7983 200.983 25.4056 200.658 24.9747C199.419 23.307 198.881 21.2908 199.142 19.2934C199.286 17.7232 199.794 16.1983 200.633 14.8186C201.471 13.4389 202.622 12.2355 204.009 11.2874C205.973 10.2087 208.187 9.55785 210.475 9.386C212.763 9.21415 215.065 9.52597 217.198 10.297C219.739 11.0913 222.106 12.2883 224.187 13.8323C226.421 15.5509 228.416 17.5094 230.129 19.6648C233.768 24.108 236.633 29.5279 240.635 34.7965C242.657 37.5138 245.086 39.9629 247.851 42.0734C250.788 44.1832 254.182 45.7066 257.812 46.5441C261.509 47.3099 265.11 48.4161 268.56 49.8456C271.992 51.4666 275.017 53.7148 277.444 56.4485C282.231 61.9175 285.235 68.4935 286.115 75.4318C287.04 82.076 285.979 88.9127 288.45 95.0892C289.643 98.0691 291.746 100.679 294.514 102.614C297.07 104.284 299.487 106.123 301.745 108.116C303.525 110.062 304.802 112.344 305.484 114.796C306.166 117.247 306.235 119.806 305.687 122.285C304.913 126.458 303.017 130.393 300.169 133.744C298.033 136.307 295.642 138.687 293.028 140.855C290.891 142.671 289.163 144.006 288.01 144.982C287.429 145.41 286.877 145.869 286.358 146.358Z" fill="#455A64"/>
<path d="M292.104 149.907C298.562 144.239 309.583 149.164 315.011 155.657C320.438 162.15 324.273 170.541 332.505 173.815C340.737 177.089 351.425 174.269 358.277 179.469C367.798 186.649 362.446 203.28 372.755 209.526C376.833 212.002 382.23 211.919 386.596 213.955C396.89 218.77 396.769 231.948 395.177 242.361C393.009 257.011 390.553 272.143 381.669 284.523C372.786 296.904 355.488 305.556 340.116 300.797C325.335 296.216 317.739 281.745 311.721 268.663C303.413 250.523 295.095 232.425 286.767 214.368C281.962 203.899 277.095 193.266 275.534 182.013C273.972 170.761 276.064 158.628 283.963 149.797" fill="#263238"/>
<path d="M296.243 137.416C300.927 136.907 304.52 142.121 303.277 146.262C302.034 150.402 297.668 153.14 293.195 154.515C290.727 155.404 288.044 155.684 285.418 155.327C284.106 155.141 282.87 154.645 281.835 153.89C280.8 153.134 280.002 152.145 279.521 151.021C279.029 150.052 278.98 148.946 279.383 147.943C279.786 146.941 280.61 146.124 281.674 145.67C284.706 143.923 286.571 142.547 289.011 141.323C292.741 139.466 292.513 139.218 296.243 137.348" fill="#3C6F62"/>
<path d="M188.258 183.293L206.48 170.761L275.17 166.772L277.929 175.136L255.584 301.636L273.215 452.567H177.388L188.258 183.293Z" fill="#9EE56E"/>
<g opacity="0.3">
<path opacity="0.3" d="M261.799 399.029C259.601 396.896 256.008 393.98 252.809 393.911C229.857 393.457 206.434 391.38 183.482 390.913L181.648 452.595C187.136 443.818 192.335 434.712 193.776 424.67C194.412 420.296 195.292 415.041 199.612 413.197C202.099 412.138 205.024 412.551 207.708 413.046C216 414.532 224.232 416.471 232.661 416.953C241.09 417.434 249.929 416.306 257.008 412.124C259.522 410.779 261.546 408.794 262.83 406.416C263.441 405.221 263.669 403.894 263.486 402.588C263.304 401.281 262.719 400.047 261.799 399.029Z" fill="black"/>
</g>
<path d="M203.114 185.852L200.977 167.762C200.889 167.005 200.968 166.238 201.21 165.509C201.451 164.779 201.85 164.099 202.383 163.511C202.916 162.922 203.573 162.435 204.316 162.079C205.058 161.722 205.871 161.503 206.707 161.435L269.925 156.249C270.329 156.221 270.736 156.267 271.12 156.384C271.505 156.501 271.859 156.687 272.163 156.93C272.467 157.174 272.714 157.471 272.89 157.802C273.065 158.134 273.165 158.495 273.184 158.862L273.897 180.391L255.583 208.577L236.77 214.01H213.757L200.522 201.19L203.114 185.852Z" fill="#9EE56E"/>
<path d="M264.558 173.485C263.71 173.453 262.864 173.374 262.026 173.251C259.738 173.057 257.438 173.02 255.144 173.141C251.734 173.364 248.349 173.823 245.017 174.517C241.242 175.232 237.134 176.236 232.783 177.199C228.699 178.167 224.537 178.838 220.336 179.208C216.88 179.503 213.393 179.29 210.012 178.575C207.738 178.091 205.567 177.273 203.584 176.154C203.056 175.843 202.55 175.503 202.068 175.136C201.735 174.888 201.568 174.737 201.598 174.723C201.629 174.709 202.341 175.177 203.766 175.906C205.776 176.911 207.936 177.643 210.179 178.08C213.507 178.713 216.924 178.871 220.306 178.547C224.465 178.145 228.585 177.459 232.631 176.498C236.967 175.548 241.09 174.558 244.895 173.87C248.269 173.214 251.697 172.818 255.144 172.687C257.469 172.597 259.799 172.707 262.102 173.017C262.921 173.146 263.542 173.256 263.967 173.348C264.346 173.403 264.573 173.458 264.558 173.485Z" fill="#263238"/>
<g opacity="0.3">
<path opacity="0.3" d="M204.615 176.332C202.917 180.555 202.872 185.782 206.313 189.015C209.103 191.656 213.605 192.317 217.562 191.601C221.48 190.686 225.198 189.169 228.553 187.117C237.255 182.426 246.108 177.556 255.993 175.562C256.642 175.492 257.256 175.258 257.766 174.888C257.884 174.788 257.978 174.668 258.043 174.534C258.107 174.401 258.141 174.256 258.141 174.11C258.141 173.964 258.107 173.82 258.043 173.686C257.978 173.553 257.884 173.432 257.766 173.333C257.518 173.201 257.236 173.13 256.948 173.127C248.2 172.329 239.514 174.502 230.948 176.318C222.383 178.134 213.211 179.303 204.949 176.593" fill="#374F28"/>
</g>
<path d="M216.698 160.856C215.808 161.298 215.06 161.943 214.53 162.727C213.529 164.185 213.59 166.662 213.666 169.33C213.833 174.681 214.803 178.959 214.576 178.959C214.134 178.088 213.842 177.16 213.711 176.208C213.232 173.939 212.953 171.639 212.878 169.33C212.823 168.05 212.853 166.769 212.969 165.492C213.054 164.413 213.428 163.37 214.06 162.452C214.493 161.831 215.107 161.331 215.834 161.008C216.364 160.815 216.683 160.815 216.698 160.856Z" fill="#263238"/>
<path d="M233.404 176.58C233.422 173.658 233.27 170.738 232.949 167.831C232.221 163.03 230.463 159.385 230.705 159.302C231.28 160.004 231.716 160.79 231.994 161.627C232.822 163.594 233.407 165.637 233.737 167.721C234.065 169.808 234.131 171.921 233.934 174.021C233.919 174.895 233.739 175.76 233.404 176.58Z" fill="#263238"/>
<path d="M253.764 157.775C254.326 158.4 254.735 159.127 254.962 159.908C255.646 161.753 255.929 163.701 255.795 165.644C255.651 167.592 255.085 169.494 254.128 171.243C253.788 171.991 253.27 172.663 252.612 173.21C253.985 170.854 254.795 168.262 254.991 165.602C255.187 162.943 254.764 160.276 253.749 157.775H253.764Z" fill="#263238"/>
<path d="M165.108 191.437C165.108 191.437 143.55 204.532 137.82 228.193C133.363 246.791 121.144 345.036 121.144 345.036L99.7833 382.755L113.731 412.854C125.675 413.619 137.536 410.546 147.234 404.174L156.618 397.983L173.825 374.832L165.108 191.437Z" fill="#EBEBEB"/>
<path d="M201.643 174.077L165.108 191.437L156.482 217.147L148.795 291.691L163.258 379.083L137.88 452.306L181.647 452.595L182.693 409.676L187.059 270.74L191.35 182.234L201.643 174.077Z" fill="#EBEBEB"/>
<path d="M183.952 289.902C183.694 289.571 183.466 289.221 183.27 288.857L181.451 285.817C180.693 284.441 179.935 282.763 179.01 280.809C178.57 279.819 178.191 278.732 177.752 277.59C177.312 276.449 176.827 275.238 176.448 273.945C173.006 263.642 170.732 248.772 171.218 232.374C171.218 231.109 171.324 229.857 171.415 228.605V228.385L171.642 228.303L178.04 225.854L177.949 226.459L171.551 221.796L171.415 221.7V221.562C171.352 215.928 172.336 210.324 174.325 204.986C175.932 200.13 177.691 195.948 179.237 192.509C180.784 189.07 182.133 186.388 183.088 184.572C183.573 183.651 183.952 182.949 184.21 182.495C184.334 182.25 184.481 182.016 184.649 181.793C184.576 182.052 184.469 182.301 184.331 182.536L183.315 184.668C182.436 186.512 181.163 189.222 179.677 192.674C178.191 196.127 176.493 200.309 174.947 205.151C173.034 210.427 172.097 215.954 172.173 221.507L172.021 221.273L178.434 225.909L178.934 226.28L178.343 226.514L171.945 228.963L172.188 228.66C172.097 229.885 172.036 231.136 171.991 232.402C171.521 248.73 173.689 263.532 176.978 273.794C177.327 275.101 177.797 276.297 178.206 277.439C178.616 278.581 178.979 279.681 179.419 280.672C180.314 282.625 180.935 284.345 181.723 285.693L183.391 288.788C183.605 289.147 183.793 289.52 183.952 289.902Z" fill="#263238"/>
<path d="M155.269 342.092C155.132 341.741 155.015 341.383 154.921 341.019C154.708 340.24 154.42 339.194 154.056 337.883C153.677 336.507 153.253 334.857 152.828 332.917C152.404 330.977 151.843 328.79 151.419 326.273C150.994 323.756 150.418 321.101 150.009 318.184C149.599 315.268 149.19 312.132 148.811 308.844C148.144 302.241 147.704 294.964 147.704 287.316C147.704 279.668 148.205 272.391 148.887 265.801C149.296 262.514 149.645 259.377 150.145 256.461C150.645 253.545 151.085 250.835 151.57 248.373C152.055 245.91 152.571 243.695 153.086 241.742C153.602 239.789 153.965 238.124 154.344 236.776C154.723 235.428 154.996 234.424 155.224 233.654C155.311 233.284 155.428 232.921 155.572 232.567C155.543 232.943 155.477 233.316 155.375 233.681L154.648 236.831C154.314 238.207 153.905 239.871 153.526 241.825C153.147 243.778 152.601 245.952 152.192 248.469C151.782 250.986 151.252 253.627 150.873 256.544C150.494 259.46 150.069 262.583 149.69 265.856C149.054 272.446 148.599 279.695 148.568 287.33C148.538 294.964 148.993 302.2 149.599 308.789C149.978 312.063 150.282 315.199 150.736 318.102C151.191 321.004 151.601 323.728 152.04 326.19C152.48 328.653 152.95 330.881 153.329 332.835C153.708 334.788 154.102 336.466 154.435 337.828C154.769 339.19 154.981 340.194 155.148 340.978C155.232 341.345 155.273 341.718 155.269 342.092Z" fill="#263238"/>
<path d="M165.153 409.194C164.726 410.374 164.13 411.498 163.38 412.537C161.742 415.126 159.871 417.588 157.786 419.897C155.704 422.208 153.412 424.357 150.933 426.321C149.954 427.188 148.859 427.942 147.674 428.563C148.566 427.632 149.528 426.758 150.554 425.949C152.893 423.893 155.105 421.721 157.179 419.443C159.235 417.152 161.148 414.76 162.91 412.276C163.578 411.203 164.328 410.173 165.153 409.194Z" fill="#263238"/>
<path d="M333.097 189.304C340.774 192.01 347.6 196.386 352.977 202.047C358.353 207.707 362.116 214.48 363.933 221.768C375.894 269.584 396.345 333.192 396.678 353.73C397.072 379.866 384.55 397.749 368.041 401.051C355.034 403.664 237.179 397.804 237.179 397.804L231.661 357.912L327.169 345.16L314.101 279.021L327.033 187.241L333.097 189.304Z" fill="#EBEBEB"/>
<path d="M327.033 187.172L300.639 177.392L272.82 162.59L272.653 166.923C276.07 172.215 277.26 178.45 276.004 184.476L252.809 294.057L258.054 374.131L268.833 452.54H352.532L314.101 370.485L327.669 259.901L327.033 187.172Z" fill="#EBEBEB"/>
<path d="M351.486 401.725L350.91 401.794L349.227 401.945C347.711 402.083 345.543 402.069 342.693 402.138C337.023 402.138 328.776 402.028 318.513 401.725C298.001 401.106 269.455 399.854 237.209 398.162H236.891V397.86C236.239 393.114 235.542 388.107 234.844 383.031C233.647 374.433 232.495 366.042 231.388 358.022V357.678H231.752L304.641 348.049L326.047 345.298L331.793 344.596L333.309 344.417H333.824L333.324 344.514L331.808 344.748L326.077 345.573L304.717 348.531L231.949 358.394L232.267 357.995C233.389 366.028 234.556 374.406 235.739 383.003C236.451 388.093 237.133 393.1 237.785 397.846L237.422 397.543C269.652 399.249 298.213 400.583 318.71 401.34C328.958 401.698 337.19 401.904 342.86 401.973C345.695 401.973 347.908 401.973 349.378 401.89L351.061 401.808L351.486 401.725Z" fill="#263238"/>
<path d="M313.328 272.253C313.436 272.491 313.507 272.741 313.54 272.996C313.662 273.56 313.813 274.248 313.995 275.115C314.389 277.054 314.92 279.709 315.511 282.942C316.8 289.655 318.543 298.748 320.484 308.803C322.424 318.859 324.001 327.979 325.244 334.706C325.805 337.952 326.26 340.607 326.593 342.561C326.73 343.427 326.836 344.143 326.927 344.706C326.96 344.958 326.96 345.212 326.927 345.463C326.812 345.231 326.736 344.986 326.699 344.734C326.578 344.17 326.426 343.468 326.229 342.616C325.835 340.662 325.289 338.021 324.622 334.788C323.303 328.172 321.59 319.038 319.65 308.927C317.709 298.816 316.072 289.669 314.905 283.024C314.359 279.778 313.904 277.109 313.571 275.156C313.449 274.294 313.343 273.579 313.252 273.01C313.247 272.756 313.272 272.502 313.328 272.253Z" fill="#263238"/>
<path d="M284.964 170.348C284.964 170.348 284.964 170.444 285.07 170.623L285.312 171.421C285.509 172.136 285.843 173.168 286.161 174.544C287.086 178.434 287.755 182.37 288.163 186.333C288.781 192.313 288.948 198.325 288.663 204.326C288.405 211.204 287.617 218.728 286.48 226.748V226.996H286.207L277.52 228.454L277.808 227.972C278.308 229.183 278.809 230.476 279.203 231.81C281.591 240.576 281.25 249.772 278.218 258.373C275.816 265.351 272.411 272.011 268.091 278.182C264.482 283.492 261.238 287.563 258.995 290.383L256.372 293.602C256.099 293.946 255.856 294.208 255.674 294.428C255.606 294.531 255.519 294.624 255.417 294.703C255.417 294.703 255.417 294.593 255.614 294.386L256.251 293.52C256.857 292.722 257.767 291.621 258.737 290.218C260.905 287.357 264.088 283.244 267.605 277.92C271.826 271.756 275.158 265.127 277.52 258.194C280.022 250.395 281.204 241.123 278.445 232.058C278.061 230.781 277.605 229.523 277.081 228.289L276.914 227.89L277.384 227.807L286.01 226.363L285.691 226.665C286.844 218.673 287.677 211.135 287.965 204.312C288.285 198.351 288.178 192.377 287.647 186.429C287.291 182.473 286.699 178.538 285.873 174.64C285.6 173.264 285.297 172.219 285.161 171.504C285.085 171.174 285.024 170.912 284.979 170.692C284.95 170.579 284.945 170.463 284.964 170.348Z" fill="#263238"/>
<path d="M284.964 282.722V265.265C284.964 265.265 285.206 260.96 281.204 261.867C277.202 262.775 277.944 269.585 277.944 269.585C277.944 269.585 277.202 296.148 278.945 295.927C280.688 295.707 281.371 293.658 281.371 293.658V283.437L284.964 282.722Z" fill="#78AC54"/>
<path d="M301.609 283.81C298.183 284.173 294.731 284.293 291.285 284.169C287.839 284.293 284.387 284.173 280.961 283.81C284.388 283.455 287.839 283.335 291.285 283.451C294.731 283.335 298.182 283.455 301.609 283.81Z" fill="#263238"/>
<path d="M339.676 199.676C338.981 199.971 338.261 200.215 337.523 200.405C335.562 201.041 333.648 201.79 331.793 202.648C325.678 205.503 320.375 209.604 316.299 214.629C315.145 216.045 314.13 217.55 313.267 219.127C312.519 220.619 311.91 222.165 311.448 223.749C310.665 226.452 310.157 229.215 309.932 232.003C309.72 234.383 309.674 236.336 309.659 237.67C309.704 238.367 309.704 239.065 309.659 239.761C309.469 239.105 309.367 238.431 309.356 237.753C309.236 235.852 309.236 233.946 309.356 232.044C309.506 229.212 309.968 226.401 310.735 223.653C311.193 222.021 311.807 220.428 312.57 218.893C313.453 217.272 314.493 215.726 315.678 214.271C319.813 209.151 325.268 205.027 331.565 202.262C333.457 201.434 335.419 200.744 337.432 200.199C338.159 199.956 338.91 199.781 339.676 199.676Z" fill="#263238"/>
<path d="M0 345.037L137.881 391.367L254.113 407.489L115.914 346.357L0 345.037Z" fill="#263238"/>
<path d="M59.0032 394.998C57.8957 388.313 55.3953 381.879 51.6354 376.042C50.8232 374.943 50.19 373.743 49.7556 372.48C49.5387 371.848 49.4958 371.178 49.6306 370.528C49.7654 369.878 50.0738 369.268 50.5287 368.752C52.3025 367.005 55.5315 367.775 57.7146 369.096C62.1333 372.015 65.3889 376.157 66.9925 380.898C68.5724 385.605 69.5889 390.452 70.0245 395.356" fill="#FFBE9D"/>
<path d="M112.745 383.085H105.893C104.211 381.573 102.119 380.491 99.8288 379.949C98.9812 379.82 98.1108 379.901 97.3101 380.184C96.5094 380.468 95.8081 380.943 95.2808 381.558C98.3128 376.978 101.648 371.929 102.285 370.554C103.513 367.871 100.769 365.863 96.3571 365.863C91.9456 365.863 72.4194 390.94 72.4194 390.94C72.4194 390.94 84.5475 370.76 85.7148 367.679C88.6558 359.975 79.3627 359.425 75.9972 363.125C71.813 367.734 54.9096 390.94 54.9096 390.94C54.9096 390.94 51.6956 395.645 53.909 400.115C56.1224 404.586 62.5502 402.867 62.5502 402.867C62.6455 404.173 63.1152 405.434 63.913 406.524C64.7108 407.615 65.8088 408.497 67.0982 409.084C72.0404 411.588 78.5593 408.685 78.5593 408.685L103.831 413.83L112.927 413.005C119.135 412.441 124.958 410.013 129.473 406.106C133.988 402.198 136.936 397.035 137.85 391.435L112.745 383.085Z" fill="#FFBE9D"/>
<path d="M95.751 381.201C96.0391 381.366 92.719 386.153 88.3226 391.903C86.1396 394.778 84.1233 397.406 82.6224 399.194C81.8836 400.233 81.0302 401.201 80.0756 402.083C80.6552 400.963 81.356 399.899 82.1676 398.905C83.5472 396.993 85.4877 394.366 87.6707 391.491C89.8538 388.616 91.8549 385.988 93.3103 384.172L95.0688 381.985C95.27 381.706 95.4983 381.444 95.751 381.201Z" fill="#EB996E"/>
<path d="M94.235 406.732C94.8516 405.424 95.6029 404.171 96.4787 402.991C97.9947 400.735 100.087 397.667 102.421 394.255C103.589 392.563 104.711 390.94 105.62 389.441C106.018 388.801 106.272 388.096 106.369 387.366C106.465 386.637 106.401 385.897 106.181 385.19C105.735 383.858 105.004 382.619 104.028 381.545C104.028 381.545 104.438 381.738 104.999 382.288C105.789 383.077 106.375 384.017 106.712 385.039C106.993 385.807 107.1 386.619 107.024 387.425C106.949 388.232 106.693 389.016 106.272 389.73C105.362 391.284 104.256 392.921 103.104 394.627C100.754 398.038 98.5556 401.065 96.9486 403.252C96.136 404.469 95.2291 405.632 94.235 406.732Z" fill="#EB996E"/>
<path d="M107.5 409.016C107.754 407.775 108.209 406.574 108.849 405.453L110.653 401.711C111.405 400.223 112.023 398.682 112.503 397.103C112.732 396.349 112.779 395.56 112.641 394.788C112.502 394.016 112.181 393.281 111.699 392.632C111.211 392.116 110.592 391.715 109.895 391.463C109.31 391.192 108.671 391.028 108.016 390.982C107.058 391.111 106.137 391.405 105.302 391.848C104.985 392.03 104.637 392.16 104.271 392.233C104.271 392.233 104.559 391.972 105.15 391.601C105.517 391.376 105.896 391.169 106.287 390.982C106.819 390.706 107.407 390.533 108.016 390.473C108.758 390.488 109.49 390.638 110.168 390.913C110.974 391.178 111.693 391.623 112.26 392.206C112.835 392.925 113.223 393.752 113.397 394.626C113.57 395.501 113.524 396.399 113.261 397.254C112.778 398.885 112.123 400.47 111.305 401.987C110.593 403.362 109.911 404.614 109.35 405.659C108.799 406.807 108.182 407.928 107.5 409.016Z" fill="#EB996E"/>
<path d="M112.154 387.364C112.526 387.392 112.887 387.491 113.215 387.653C114.153 388.011 115.039 388.473 115.853 389.028C118.606 390.894 120.532 393.594 121.28 396.637C122.028 399.681 121.55 402.867 119.931 405.618C119.467 406.445 118.892 407.217 118.218 407.915C117.733 408.397 117.415 408.617 117.384 408.589C117.354 408.562 118.385 407.461 119.431 405.398C120.839 402.721 121.218 399.693 120.506 396.797C119.794 393.902 118.033 391.307 115.504 389.427C114.431 388.684 113.312 387.995 112.154 387.364Z" fill="#EB996E"/>
<path d="M67.7351 374.199C66.0527 377.072 64.1425 379.831 62.0197 382.453C60.1247 385.257 58.0014 387.928 55.6676 390.445C57.3411 387.57 59.2464 384.812 61.3678 382.191C63.2708 379.389 65.399 376.718 67.7351 374.199Z" fill="#EB996E"/>
<path d="M231.312 359.453L215.546 356.22L200.385 343.276C198.54 341.706 196.148 340.772 193.624 340.634L166.078 339.259C163.322 339.104 160.606 339.922 158.498 341.542L138.79 356.674L224.763 394.572L236.557 395.521L231.312 359.453Z" fill="#FFBE9D"/>
<path d="M184.604 352.781C184.604 352.891 182.572 352.561 179.298 352.176C176.023 351.791 171.354 351.447 166.821 353.359C164.711 354.283 162.718 355.413 160.878 356.729C159.135 357.912 157.573 359.013 156.194 359.852C155.111 360.533 153.97 361.136 152.783 361.654C152.36 361.864 151.905 362.017 151.433 362.108C151.433 361.998 153.238 361.241 155.875 359.439C157.194 358.559 158.71 357.417 160.423 356.193C162.29 354.82 164.325 353.648 166.487 352.698C168.705 351.811 171.098 351.343 173.522 351.323C175.477 351.295 177.431 351.433 179.358 351.736C181.011 351.969 182.39 352.245 183.209 352.451C183.691 352.488 184.163 352.599 184.604 352.781Z" fill="#EB996E"/>
<path d="M190.259 366.702C190.259 366.812 189.137 366.358 187.227 366.193C184.822 365.993 182.4 366.299 180.147 367.087C177.878 367.891 175.705 368.901 173.658 370.099C172.825 370.649 171.924 371.111 170.975 371.475C171.668 370.782 172.464 370.18 173.34 369.687C175.348 368.34 177.546 367.244 179.874 366.427C182.237 365.599 184.799 365.347 187.303 365.698C188.373 365.769 189.399 366.118 190.259 366.702Z" fill="#EB996E"/>
<path d="M225.718 369.013C225.521 369.123 223.308 366.124 220.382 362.575C217.456 359.026 214.939 356.234 215.106 356.096C217.345 357.88 219.326 359.914 221.003 362.149C222.893 364.244 224.478 366.551 225.718 369.013Z" fill="#EB996E"/>
<path d="M182.33 340.676L217.198 311.169C217.554 310.869 217.834 310.502 218.017 310.094C218.201 309.686 218.284 309.247 218.261 308.807C218.238 308.366 218.109 307.936 217.883 307.546C217.658 307.155 217.341 306.815 216.956 306.547C216.338 306.117 215.573 305.897 214.795 305.924C214.017 305.952 213.274 306.226 212.696 306.698L171.763 340.015" fill="#D2DC02"/>
<g opacity="0.3">
<path opacity="0.3" d="M182.33 340.676L217.198 311.169C217.554 310.869 217.834 310.502 218.017 310.094C218.201 309.686 218.284 309.247 218.261 308.807C218.238 308.366 218.109 307.936 217.883 307.546C217.658 307.155 217.341 306.815 216.956 306.547C216.338 306.117 215.573 305.897 214.795 305.924C214.017 305.952 213.274 306.226 212.696 306.698L171.763 340.015" fill="#9EE56E"/>
</g>
<path d="M331.5 408C274.3 464 181.333 453.333 142 441L125.5 511.5L382.5 461.5L331.5 408Z" fill="#FEFCF9"/>
<defs>
<filter id="filter0_b_567_1862" x="-91" y="-45" width="596" height="596" filterUnits="userSpaceOnUse" color-interpolation-filters="sRGB">
<feFlood flood-opacity="0" result="BackgroundImageFix"/>
<feGaussianBlur in="BackgroundImageFix" stdDeviation="50"/>
<feComposite in2="SourceAlpha" operator="in" result="effect1_backgroundBlur_567_1862"/>
<feBlend mode="normal" in="SourceGraphic" in2="effect1_backgroundBlur_567_1862" result="shape"/>
</filter>
</defs>
</svg>
