<svg width="29" height="27" viewBox="0 0 29 27" fill="none" xmlns="http://www.w3.org/2000/svg">
<path d="M13.7013 25.7504C6.14888 25.7504 0 19.9722 0 12.8752C0 5.77813 6.14888 0 13.7013 0C21.2538 0 27.4026 5.77813 27.4026 12.8752C27.4026 19.9722 21.2538 25.7504 13.7013 25.7504ZM13.7013 1.88417C7.24499 1.88417 2.00507 6.8207 2.00507 12.8752C2.00507 18.9297 7.24499 23.8662 13.7013 23.8662C20.1576 23.8662 25.3976 18.9297 25.3976 12.8752C25.3976 6.8207 20.1576 1.88417 13.7013 1.88417Z" fill="#292D32"/>
<path d="M27.7373 27.0065C27.4833 27.0065 27.2294 26.9186 27.0289 26.7302L24.3554 24.218C23.9678 23.8537 23.9678 23.2508 24.3554 22.8865C24.7431 22.5222 25.3847 22.5222 25.7723 22.8865L28.4458 25.3987C28.8334 25.763 28.8334 26.3659 28.4458 26.7302C28.2453 26.9186 27.9913 27.0065 27.7373 27.0065Z" fill="#292D32"/>
</svg>
