<svg width="25" height="26" viewBox="0 0 25 26" fill="none" xmlns="http://www.w3.org/2000/svg">
<path d="M0 12.5C0 12.2175 0.094162 11.9703 0.294256 11.7702C0.49435 11.5819 0.741525 11.4878 1.00047 11.4878H3.4016C3.67232 11.4878 3.89595 11.5819 4.08427 11.782C4.26083 11.9821 4.35499 12.2175 4.35499 12.5C4.35499 12.7825 4.2726 13.0179 4.09605 13.218C3.91949 13.4181 3.68409 13.5122 3.41337 13.5122H1.01224C0.741526 13.5122 0.506121 13.4181 0.306027 13.218C0.105932 13.0179 0 12.7825 0 12.5ZM3.36629 20.6568C3.36629 20.3861 3.46045 20.1507 3.63701 19.9388L5.36723 18.2556C5.54379 18.0673 5.77919 17.9849 6.06168 17.9849C6.34416 17.9849 6.57957 18.0791 6.76789 18.2556C6.95621 18.4322 7.05038 18.6558 7.05038 18.9265C7.05038 19.209 6.95621 19.468 6.76789 19.6798L5.09652 21.3512C4.61394 21.7279 4.13136 21.7279 3.64878 21.3512C3.46045 21.1629 3.36629 20.9275 3.36629 20.6568ZM3.36629 4.36676C3.36629 4.09604 3.46045 3.86064 3.63701 3.64878C3.87241 3.44868 4.11959 3.35452 4.3903 3.35452C4.64925 3.35452 4.88465 3.44868 5.08474 3.63701L6.76789 5.36723C6.95621 5.54378 7.05038 5.77919 7.05038 6.06167C7.05038 6.34416 6.95621 6.57957 6.76789 6.76789C6.57957 6.95621 6.34416 7.05037 6.06168 7.05037C5.77919 7.05037 5.54379 6.95621 5.36723 6.76789L3.64878 5.08474C3.46045 4.89642 3.36629 4.64925 3.36629 4.36676ZM6.3677 12.5C6.3677 11.4054 6.63842 10.3814 7.19162 9.43974C7.74482 8.49812 8.48635 7.74482 9.43974 7.19162C10.3931 6.63842 11.4054 6.3677 12.5 6.3677C13.3239 6.3677 14.1125 6.53248 14.8776 6.86205C15.6309 7.19162 16.29 7.62712 16.8314 8.18032C17.3846 8.73352 17.8202 9.38088 18.1379 10.1342C18.4557 10.8875 18.6205 11.6879 18.6205 12.5118C18.6205 13.6182 18.3498 14.6422 17.7966 15.5838C17.2434 16.5254 16.5019 17.2669 15.5603 17.8201C14.6186 18.3733 13.5946 18.6441 12.4882 18.6441C11.3818 18.6441 10.3578 18.3733 9.41619 17.8201C8.47458 17.2669 7.73305 16.5254 7.17985 15.5838C6.65019 14.6304 6.3677 13.6064 6.3677 12.5ZM8.36864 12.5C8.36864 13.6535 8.76883 14.6304 9.58098 15.4426C10.3814 16.2547 11.3583 16.6667 12.5118 16.6667C13.6653 16.6667 14.6422 16.2547 15.4543 15.4426C16.2665 14.6304 16.6784 13.6535 16.6784 12.5C16.6784 11.3701 16.2665 10.4049 15.4543 9.59275C14.6422 8.79237 13.6653 8.39218 12.5118 8.39218C11.3701 8.39218 10.3931 8.79237 9.59275 9.59275C8.76883 10.4049 8.36864 11.3701 8.36864 12.5ZM11.4995 21.6572C11.4995 21.3748 11.5937 21.1394 11.7938 20.951C11.9939 20.7627 12.2293 20.6685 12.5 20.6685C12.7825 20.6685 13.0297 20.7627 13.218 20.951C13.4063 21.1394 13.5005 21.3748 13.5005 21.6572V23.9995C13.5005 24.282 13.4063 24.5292 13.2062 24.7293C13.0061 24.9294 12.7707 25.0235 12.5 25.0235C12.2293 25.0235 11.9821 24.9294 11.7938 24.7293C11.5937 24.5292 11.4995 24.282 11.4995 23.9995V21.6572ZM11.4995 3.41337V1.01224C11.4995 0.741525 11.5937 0.506121 11.7938 0.306027C11.9939 0.105932 12.2293 0 12.5118 0C12.7943 0 13.0179 0.0941619 13.218 0.294256C13.4181 0.49435 13.5122 0.729755 13.5122 1.00047V3.41337C13.5122 3.68409 13.4181 3.90772 13.218 4.09604C13.0179 4.28437 12.7825 4.36676 12.5118 4.36676C12.2411 4.36676 11.9939 4.2726 11.8056 4.09604C11.6172 3.91949 11.4995 3.68409 11.4995 3.41337ZM17.9967 18.9265C17.9967 18.6558 18.0909 18.4322 18.2674 18.2674C18.444 18.0791 18.6676 17.9967 18.9266 17.9967C19.209 17.9967 19.4444 18.0909 19.6328 18.2674L21.3512 19.9506C21.5395 20.1507 21.6337 20.3978 21.6337 20.6685C21.6337 20.9393 21.5395 21.1747 21.3512 21.363C20.8804 21.7279 20.4096 21.7279 19.9388 21.363L18.2674 19.6916C18.0909 19.4798 17.9967 19.2326 17.9967 18.9265ZM17.9967 6.07344C17.9967 5.77919 18.0909 5.54378 18.2674 5.379L19.9388 3.64878C20.1389 3.46045 20.3743 3.36629 20.6332 3.36629C20.9157 3.36629 21.1511 3.46045 21.3395 3.66055C21.5395 3.86064 21.6337 4.09604 21.6337 4.36676C21.6337 4.66102 21.5395 4.90819 21.3512 5.09651L19.6328 6.77966C19.4209 6.96798 19.1855 7.06215 18.9266 7.06215C18.6558 7.06215 18.444 6.96798 18.2674 6.77966C18.0909 6.59134 17.9967 6.35593 17.9967 6.07344ZM20.6568 12.5C20.6568 12.2175 20.7509 11.9821 20.9393 11.7702C21.1276 11.5819 21.3512 11.4878 21.6102 11.4878H23.9878C24.2585 11.4878 24.4939 11.5937 24.694 11.7938C24.8941 11.9939 25 12.2293 25 12.5C25 12.7707 24.8941 13.0061 24.694 13.2062C24.4939 13.4063 24.2585 13.5005 23.9878 13.5005H21.6102C21.3395 13.5005 21.104 13.4063 20.9275 13.2062C20.7509 13.0061 20.6568 12.7825 20.6568 12.5Z" fill="black"/>
</svg>
