<svg width="322" height="317" viewBox="0 0 322 317" fill="none" xmlns="http://www.w3.org/2000/svg">
<path d="M7.31762 249.791C7.83744 249.856 8.29224 249.921 8.81205 249.921C12.9056 249.921 15.6997 247.061 16.4794 242.121C16.6094 241.341 16.7393 240.561 16.9342 239.781C17.1291 238.871 17.3241 237.961 17.4541 237.051C17.9739 233.476 18.5587 229.901 19.0785 226.391C20.8329 215.212 22.7172 203.577 23.0421 191.942C23.1071 190.252 23.107 188.562 23.172 186.872C23.4319 178.162 23.6269 169.127 24.4066 160.287C26.7458 132.858 30.7744 105.558 36.4924 79.2338L36.9473 77.0888C38.8966 68.0539 40.9109 58.7591 43.8348 49.8542C45.3293 45.3693 46.7588 41.0794 50.0726 37.8944C51.957 36.0744 53.5814 35.2295 55.1409 35.2295C56.7653 35.2295 58.4548 36.2694 60.2741 38.4144C63.0681 41.7294 64.0428 45.9543 64.6276 49.6592C67.3566 66.754 67.4866 84.3687 65.1474 103.543C64.4976 109.068 63.7179 115.308 62.4833 121.353C61.7036 125.188 62.8732 128.308 65.7972 130.128C67.2267 131.038 68.7861 131.493 70.3456 131.493C71.7101 131.493 73.1396 131.103 74.5041 130.453C77.558 128.893 78.4027 125.968 78.9226 123.043C82.4963 101.593 83.7309 83.8487 82.8212 67.2739C82.7562 65.584 82.4313 63.894 82.1714 62.269C81.6516 59.1491 81.1318 56.2241 81.9765 53.6242C82.7562 51.2192 83.2761 48.6842 83.7959 46.3443C84.3157 43.8743 84.7705 41.5994 85.5502 39.3244C86.7198 35.9444 88.0844 33.4095 90.0337 31.3945C91.2682 30.0945 91.7881 29.9645 91.983 29.9645C92.1129 29.9645 92.6977 30.0945 93.6724 32.1095C97.1812 38.9994 97.9609 46.4743 98.2208 52.9092L98.2858 54.9241C99.1305 74.0338 99.9753 93.7935 99.5854 113.228C99.5854 114.268 99.5854 115.308 99.5854 116.283C99.5854 116.998 99.5854 117.713 99.5854 118.428C99.5854 121.223 100.95 123.303 103.679 124.668C104.978 125.318 106.343 125.708 107.708 125.708C111.606 125.708 114.725 122.978 115.375 118.948C115.635 117.453 115.57 116.023 115.57 114.593C115.57 114.268 115.57 113.878 115.57 113.553C115.44 92.0386 115.31 69.8089 115.115 47.3193C115.05 42.1843 115.05 36.9194 117.649 32.1745C119.468 28.9246 122.003 27.2996 125.381 27.2346H125.446C128.305 27.2346 129.8 29.1846 131.294 32.2395C132.334 34.4495 133.049 36.2694 133.439 38.0244C134.998 45.0443 135.843 52.5192 135.843 60.2541C135.843 72.3439 134.543 84.5637 133.244 96.3935L132.984 98.8634C132.854 99.8384 132.789 100.748 132.659 101.723C132.009 107.573 131.359 113.618 130.969 119.533C130.709 123.888 133.763 127.463 138.247 127.983C138.572 128.048 138.832 128.048 139.156 128.048C142.665 128.048 145.654 125.643 146.694 121.873C147.084 120.443 147.409 119.078 147.474 117.843C147.604 116.153 147.799 114.463 147.993 112.773C148.513 107.898 148.968 102.763 149.228 97.7585C149.683 87.5536 152.737 79.6237 158.78 72.7339C167.747 62.594 177.038 57.8491 188.019 57.8491C189.449 57.8491 190.943 57.9141 192.373 58.1091C204.329 59.4091 210.307 63.829 213.101 73.3189L213.166 73.5789C213.945 76.2438 214.335 77.8038 212.776 79.2988C212.126 79.9487 211.476 80.2087 210.632 80.2087C209.657 80.2087 208.487 79.8188 207.448 79.4938L206.603 79.2338C203.029 78.0638 199.325 76.8288 195.622 75.7888C192.763 75.0088 189.969 74.6188 187.175 74.6188C180.807 74.6188 174.829 76.6988 169.891 80.6637C165.472 84.2387 162.158 89.1136 160.534 94.4435C156.051 109.068 155.271 124.148 158.195 139.228C158.715 141.763 159.559 144.233 160.664 146.313C163.653 151.773 167.422 157.818 174.114 161.132C162.613 165.162 151.827 170.947 141.366 176.602C139.806 177.447 138.312 178.292 136.752 179.072C135.193 179.917 133.374 180.892 131.619 181.997C128.825 183.752 127.656 186.482 128.435 189.537C129.215 192.722 131.619 194.737 135.128 195.192C135.518 195.257 135.973 195.257 136.363 195.257C138.247 195.257 140.131 194.737 142.146 193.632C144.745 192.202 147.734 190.577 150.722 189.017L152.022 188.302C165.342 181.217 179.183 173.872 194.582 171.272C198.221 170.687 201.73 169.452 205.173 168.347C206.083 168.022 206.928 167.762 207.838 167.437C221.093 163.147 230.515 148.718 228.825 135.328C228.37 131.688 227.526 128.243 226.681 125.058C226.551 124.668 226.486 124.278 226.356 123.888C225.186 119.468 224.017 115.308 224.537 110.888C225.056 106.273 227.331 103.673 230.969 103.673C232.204 103.673 233.634 103.998 235.128 104.583C240.456 106.663 243.705 110.693 245.329 117.193C247.799 127.008 250.463 138.708 251.567 150.733C252.347 159.182 252.997 169.127 252.022 179.007C250.917 190.057 246.954 201.172 239.871 212.937C234.088 222.557 227.331 231.721 220.768 240.561C218.234 244.006 215.635 247.581 213.101 251.091C203.939 263.831 194.647 277.741 190.294 294.25C189.124 298.8 187.76 303.935 188.019 309.33C188.214 313.75 190.813 316.48 195.167 316.935C195.427 316.935 195.687 317 195.947 317C199.455 317 202.314 314.855 203.484 311.475C203.744 310.695 203.809 309.915 203.874 309.135C203.939 308.745 203.939 308.42 204.004 308.095C206.018 295.42 210.697 283.526 217.909 272.671C222.522 265.716 227.526 258.631 233.179 250.896L234.478 249.076C241.821 239.001 249.488 228.601 255.856 217.552C263.783 203.902 267.942 190.252 268.591 175.887C269.436 157.233 267.162 137.993 261.314 115.243C259.105 106.598 255.076 99.9684 249.358 95.4835C243.705 91.0636 236.298 88.6586 227.396 88.4636H226.941L226.616 88.7236C226.551 88.7886 226.486 88.7886 226.421 88.8536C229.8 84.3037 230.904 78.9738 229.735 73.0589C227.526 62.334 222.262 54.4692 213.945 49.7892C206.213 45.4343 197.116 43.0943 187.76 43.0943C175.739 43.0943 164.368 46.9943 155.791 54.0792C155.271 54.4692 154.816 54.9242 154.361 55.3791C153.646 56.0941 152.932 56.7441 152.152 57.2641C152.022 55.9641 151.892 54.6642 151.762 53.4292C151.372 49.2692 150.982 45.3693 150.463 41.4044C149.033 29.5096 145.069 23.7896 142.21 20.5397C137.532 15.2098 131.944 12.6098 125.121 12.6098C124.991 12.6098 124.862 12.6098 124.732 12.6098C117.649 12.7398 111.346 15.5998 105.628 21.3847C100.82 16.8347 96.5964 14.6898 92.3079 14.6898C86.265 14.6898 80.1572 18.8497 72.035 28.5996C71.905 28.4696 71.7101 28.2746 71.4502 28.0146C71.2552 27.7546 70.9954 27.5596 70.7355 27.2996C65.7972 22.9446 60.0792 20.6047 54.2312 20.6047C46.3689 20.6047 39.0265 24.8946 34.2182 32.3045C31.814 36.0094 29.9297 40.1044 28.3702 44.9793C23.367 61.034 20.1181 77.8038 16.9992 93.9885C16.6743 95.8085 16.2844 97.5635 15.9596 99.3834C11.866 120.248 9.13694 142.348 7.8374 165.032C7.57749 169.322 7.38255 173.677 7.18762 177.902C6.4079 194.217 5.62822 211.052 2.44433 227.431C2.2494 228.471 2.05445 229.511 1.85952 230.551C1.20974 233.736 0.559923 236.986 0.105082 240.236C-0.609668 244.981 2.37935 249.076 7.31762 249.791ZM206.343 115.698C206.733 119.728 207.773 123.693 208.747 127.463C209.397 129.868 210.047 132.338 210.502 134.808C211.606 140.463 209.657 145.403 204.979 149.043C202.055 151.318 198.806 153.463 195.362 153.463C194.062 153.463 192.763 153.138 191.463 152.553C183.016 148.653 177.818 142.543 175.479 133.898C173.465 126.358 174.504 118.753 175.479 111.408C175.609 110.498 175.739 109.588 175.869 108.678C177.883 93.4035 183.276 91.3236 188.279 91.3236C191.008 91.3236 194.387 92.0386 198.481 93.5335C202.055 94.8335 206.213 96.1985 210.632 96.1985C210.956 96.1985 211.281 96.1985 211.606 96.1985C207.253 100.943 205.563 107.248 206.343 115.698Z" fill="#2C9378"/>
<path d="M253.062 67.4039C251.892 67.9239 250.723 68.3789 249.683 69.1589C247.474 70.7189 246.239 72.9288 246.369 75.3338C246.434 77.8038 247.863 80.0137 250.268 81.3787C251.567 82.1587 252.932 82.4837 254.361 82.4837C256.376 82.4837 258.325 81.7687 260.079 80.9887C277.363 73.5788 295.232 67.2089 312.061 61.424C314.14 60.709 315.96 59.929 317.584 59.0841C321.028 57.3291 322.457 54.7941 321.873 51.4792C321.223 47.9043 317.779 45.3693 313.426 45.1743H313.231L313.036 45.2393C312.841 45.3043 312.646 45.3043 312.386 45.3693C311.671 45.4993 310.697 45.6943 309.722 46.0843C307.513 46.8643 305.303 47.6442 303.094 48.4242C286.655 54.2091 269.631 60.254 253.322 67.2739L253.062 67.4039Z" fill="#2C9378"/>
<path d="M231.814 51.8692C231.944 51.8692 232.074 51.8692 232.204 51.8692C235.193 51.8692 237.532 50.2442 239.481 46.8643C243.185 40.4944 247.474 34.3845 251.632 28.4696C252.932 26.5846 254.296 24.6996 255.596 22.7496C256.311 21.7097 257.09 20.6047 257.805 19.5647C259.624 16.9647 261.509 14.2348 263.328 11.5048C265.407 8.38488 265.213 5.19992 262.678 2.79496C260.729 0.909988 258.78 0 256.635 0C255.661 0 254.621 0.194997 253.582 0.64999C251.437 1.49498 249.748 2.98996 248.188 5.26492C241.431 15.1448 233.698 26.3896 226.226 37.3094C225.836 37.9594 225.511 38.5444 225.186 39.1944C224.927 39.7144 224.667 40.2344 224.342 40.6894C222.977 42.7693 222.847 45.3043 224.017 47.5143C225.641 50.2442 228.565 51.8692 231.814 51.8692Z" fill="#2C9378"/>
</svg>
