<svg width="76" height="75" viewBox="0 0 76 75" fill="none" xmlns="http://www.w3.org/2000/svg">
<ellipse cx="37.5781" cy="37.5" rx="37.5781" ry="37.5" fill="url(#paint0_linear_523_1540)"/>
<path d="M42.2646 37.4C36.6301 43.5324 35.7564 50.48 36.0238 53.1873C35.7564 52.731 31.5662 46.2518 32.2794 41.1415C32.85 37.0532 34.1516 35.3923 34.6865 34.2973C36.2021 31.1946 38.7579 29.2173 40.6598 28.0006C42.7995 26.1755 54.2111 20.3047 59.8277 17.6887C63.0373 28.2744 62.5023 37.6737 62.0566 41.4152C56.7074 56.1987 45.3255 57.8109 40.6598 57.02C39.6613 51.7637 42.324 45.3393 43.7802 42.7841C50.1992 32.8372 51.9823 37.8563 54.0328 33.841C55.6732 30.6288 53.3493 30.1299 51.9823 30.282C51.0907 30.0995 47.899 31.2676 42.2646 37.4Z" fill="white"/>
<path d="M13.9685 38.9513C13.2553 30.9938 15.5139 21.4606 16.7323 17.6887C15.5198 21.5579 27.7576 26.358 34.028 28.2744C21.5466 44.2442 31.8884 56.3812 31.4426 56.8375C30.9968 57.2938 28.1439 56.1987 28.3222 56.3812C28.4649 56.5272 23.924 54.3736 21.6357 53.2785C19.3772 51.8184 14.6818 46.9089 13.9685 38.9513Z" fill="white"/>
<path d="M42.2646 37.4C36.6301 43.5324 35.7564 50.48 36.0238 53.1873C35.7564 52.731 31.5662 46.2518 32.2794 41.1415C32.85 37.0532 34.1516 35.3923 34.6865 34.2973C36.2021 31.1946 38.7579 29.2173 40.6598 28.0006C42.7995 26.1755 54.2111 20.3047 59.8277 17.6887C63.0373 28.2744 62.5023 37.6737 62.0566 41.4152C56.7074 56.1987 45.3255 57.8109 40.6598 57.02C39.6613 51.7637 42.324 45.3393 43.7802 42.7841C50.1992 32.8372 51.9823 37.8563 54.0328 33.841C55.6732 30.6288 53.3493 30.1299 51.9823 30.282C51.0907 30.0995 47.899 31.2676 42.2646 37.4Z" fill="white"/>
<path d="M13.9685 38.9513C13.2553 30.9938 15.5139 21.4606 16.7323 17.6887C15.5198 21.5579 27.7576 26.358 34.028 28.2744C21.5466 44.2442 31.8884 56.3812 31.4426 56.8375C30.9968 57.2938 28.1439 56.1987 28.3222 56.3812C28.4649 56.5272 23.924 54.3736 21.6357 53.2785C19.3772 51.8184 14.6818 46.9089 13.9685 38.9513Z" fill="white"/>
<defs>
<linearGradient id="paint0_linear_523_1540" x1="0" y1="0" x2="74.9998" y2="75.1561" gradientUnits="userSpaceOnUse">
<stop stop-color="#79E194"/>
<stop offset="1" stop-color="#9EE56E"/>
</linearGradient>
</defs>
</svg>
