<svg width="81" height="37" viewBox="0 0 81 37" fill="none" xmlns="http://www.w3.org/2000/svg">
<rect width="81" height="37" rx="5" fill="#BFBFBF" fill-opacity="0.3"/>
<path d="M14.6808 24.168C13.8968 24.168 13.1455 24.0653 12.4268 23.86C11.7082 23.6453 11.1295 23.37 10.6908 23.034L11.4608 21.326C11.8808 21.6247 12.3755 21.872 12.9448 22.068C13.5235 22.2547 14.1068 22.348 14.6948 22.348C15.1428 22.348 15.5022 22.306 15.7728 22.222C16.0528 22.1287 16.2582 22.0027 16.3888 21.844C16.5195 21.6853 16.5848 21.5033 16.5848 21.298C16.5848 21.0367 16.4822 20.8313 16.2768 20.682C16.0715 20.5233 15.8008 20.3973 15.4648 20.304C15.1288 20.2013 14.7555 20.108 14.3448 20.024C13.9435 19.9307 13.5375 19.8187 13.1268 19.688C12.7255 19.5573 12.3568 19.3893 12.0208 19.184C11.6848 18.9787 11.4095 18.708 11.1948 18.372C10.9895 18.036 10.8868 17.6067 10.8868 17.084C10.8868 16.524 11.0362 16.0153 11.3348 15.558C11.6428 15.0913 12.1002 14.7227 12.7068 14.452C13.3228 14.172 14.0928 14.032 15.0168 14.032C15.6328 14.032 16.2395 14.1067 16.8368 14.256C17.4342 14.396 17.9615 14.6107 18.4188 14.9L17.7188 16.622C17.2615 16.3607 16.8042 16.1693 16.3468 16.048C15.8895 15.9173 15.4415 15.852 15.0028 15.852C14.5642 15.852 14.2048 15.9033 13.9248 16.006C13.6448 16.1087 13.4442 16.244 13.3228 16.412C13.2015 16.5707 13.1408 16.7573 13.1408 16.972C13.1408 17.224 13.2435 17.4293 13.4488 17.588C13.6542 17.7373 13.9248 17.8587 14.2608 17.952C14.5968 18.0453 14.9655 18.1387 15.3668 18.232C15.7775 18.3253 16.1835 18.4327 16.5848 18.554C16.9955 18.6753 17.3688 18.8387 17.7048 19.044C18.0408 19.2493 18.3115 19.52 18.5168 19.856C18.7315 20.192 18.8388 20.6167 18.8388 21.13C18.8388 21.6807 18.6848 22.1847 18.3768 22.642C18.0688 23.0993 17.6068 23.468 16.9908 23.748C16.3842 24.028 15.6142 24.168 14.6808 24.168ZM22.4746 18.148H27.1926V19.912H22.4746V18.148ZM22.6426 22.18H27.9766V24H20.3886V14.2H27.7946V16.02H22.6426V22.18ZM29.7811 24V14.2H32.0491V22.152H36.9631V24H29.7811ZM40.3164 18.148H45.0344V19.912H40.3164V18.148ZM40.4844 22.18H45.8184V24H38.2304V14.2H45.6364V16.02H40.4844V22.18ZM50.8429 24.168C50.0589 24.168 49.3076 24.0653 48.5889 23.86C47.8703 23.6453 47.2916 23.37 46.8529 23.034L47.6229 21.326C48.0429 21.6247 48.5376 21.872 49.1069 22.068C49.6856 22.2547 50.2689 22.348 50.8569 22.348C51.3049 22.348 51.6643 22.306 51.9349 22.222C52.2149 22.1287 52.4203 22.0027 52.5509 21.844C52.6816 21.6853 52.7469 21.5033 52.7469 21.298C52.7469 21.0367 52.6443 20.8313 52.4389 20.682C52.2336 20.5233 51.9629 20.3973 51.6269 20.304C51.2909 20.2013 50.9176 20.108 50.5069 20.024C50.1056 19.9307 49.6996 19.8187 49.2889 19.688C48.8876 19.5573 48.5189 19.3893 48.1829 19.184C47.8469 18.9787 47.5716 18.708 47.3569 18.372C47.1516 18.036 47.0489 17.6067 47.0489 17.084C47.0489 16.524 47.1983 16.0153 47.4969 15.558C47.8049 15.0913 48.2623 14.7227 48.8689 14.452C49.4849 14.172 50.2549 14.032 51.1789 14.032C51.7949 14.032 52.4016 14.1067 52.9989 14.256C53.5963 14.396 54.1236 14.6107 54.5809 14.9L53.8809 16.622C53.4236 16.3607 52.9663 16.1693 52.5089 16.048C52.0516 15.9173 51.6036 15.852 51.1649 15.852C50.7263 15.852 50.3669 15.9033 50.0869 16.006C49.8069 16.1087 49.6063 16.244 49.4849 16.412C49.3636 16.5707 49.3029 16.7573 49.3029 16.972C49.3029 17.224 49.4056 17.4293 49.6109 17.588C49.8163 17.7373 50.0869 17.8587 50.4229 17.952C50.7589 18.0453 51.1276 18.1387 51.5289 18.232C51.9396 18.3253 52.3456 18.4327 52.7469 18.554C53.1576 18.6753 53.5309 18.8387 53.8669 19.044C54.2029 19.2493 54.4736 19.52 54.6789 19.856C54.8936 20.192 55.0009 20.6167 55.0009 21.13C55.0009 21.6807 54.8469 22.1847 54.5389 22.642C54.2309 23.0993 53.7689 23.468 53.1529 23.748C52.5463 24.028 51.7763 24.168 50.8429 24.168ZM55.2627 24L59.6307 14.2H61.8707L66.2527 24H63.8727L60.2887 15.348H61.1847L57.5867 24H55.2627ZM57.4467 21.9L58.0487 20.178H63.0887L63.7047 21.9H57.4467ZM67.2694 24V14.2H69.5374V24H67.2694Z" fill="black"/>
</svg>
