<svg width="41" height="41" viewBox="0 0 41 41" fill="none" xmlns="http://www.w3.org/2000/svg">
<path d="M33.62 2.05C33.62 1.50631 33.404 0.98488 33.0196 0.600431C32.6351 0.215981 32.1137 0 31.57 0C31.0263 0 30.5049 0.215981 30.1204 0.600431C29.736 0.98488 29.52 1.50631 29.52 2.05H33.62ZM29.52 9.43C29.52 9.97369 29.736 10.4951 30.1204 10.8796C30.5049 11.264 31.0263 11.48 31.57 11.48C32.1137 11.48 32.6351 11.264 33.0196 10.8796C33.404 10.4951 33.62 9.97369 33.62 9.43H29.52ZM11.48 2.05C11.48 1.50631 11.264 0.98488 10.8796 0.600431C10.4951 0.215981 9.9737 0 9.43001 0C8.88631 0 8.36489 0.215981 7.98044 0.600431C7.59599 0.98488 7.38001 1.50631 7.38001 2.05H11.48ZM7.38001 9.43C7.38001 9.97369 7.59599 10.4951 7.98044 10.8796C8.36489 11.264 8.88631 11.48 9.43001 11.48C9.9737 11.48 10.4951 11.264 10.8796 10.8796C11.264 10.4951 11.48 9.97369 11.48 9.43H7.38001ZM36.9 13.94V30.75H41V13.94H36.9ZM30.75 36.9H10.25V41H30.75V36.9ZM4.10001 30.75V13.94H8.47081e-06V30.75H4.10001ZM10.2521 7.79H30.7459V3.69H10.2562V7.79H10.2521ZM38.95 14.76H2.05001V18.86H38.95V14.76ZM29.52 2.05V9.43H33.62V2.05H29.52ZM7.38001 2.05V9.43H11.48V2.05H7.38001ZM10.25 36.9C8.25946 36.9 6.97206 36.8959 6.02496 36.7688C5.13526 36.6478 4.85646 36.4551 4.70066 36.2993L1.80196 39.198C2.84746 40.2435 4.13486 40.6515 5.47761 40.8319C6.76501 41.0041 8.37426 41 10.25 41V36.9ZM8.47081e-06 30.75C8.47081e-06 32.6257 -0.00409148 34.237 0.168108 35.5224C0.348508 36.8651 0.756458 38.1546 1.80196 39.198L4.70066 36.2993C4.54486 36.1435 4.35216 35.8647 4.23121 34.975C4.10411 34.03 4.10001 32.7405 4.10001 30.75H8.47081e-06ZM36.9 30.75C36.9 32.7405 36.8959 34.0279 36.7688 34.975C36.6479 35.8647 36.4552 36.1435 36.2994 36.2993L39.1981 39.198C40.2435 38.1525 40.6515 36.8651 40.8319 35.5224C41.0041 34.235 41 32.6257 41 30.75H36.9ZM30.75 41C32.6258 41 34.237 41.0041 35.5224 40.8319C36.8651 40.6515 38.1546 40.2435 39.1981 39.198L36.2994 36.2993C36.1436 36.4551 35.8648 36.6478 34.9751 36.7688C34.028 36.8959 32.7406 36.9 30.75 36.9V41ZM41 13.94C41 12.0642 41.0041 10.4529 40.8319 9.1676C40.6515 7.82485 40.2435 6.5354 39.1981 5.49195L36.2994 8.39065C36.4552 8.54645 36.6479 8.82525 36.7688 9.71495C36.8959 10.662 36.9 11.9494 36.9 13.94H41ZM30.748 7.79C32.7385 7.79 34.028 7.7941 34.9751 7.9212C35.8648 8.04215 36.1436 8.23485 36.2994 8.39065L39.1981 5.49195C38.1525 4.44645 36.8652 4.0385 35.5204 3.8581C34.235 3.6859 32.6237 3.69 30.75 3.69L30.748 7.79ZM4.10001 13.94C4.10001 11.9494 4.10411 10.662 4.23121 9.71495C4.35216 8.82525 4.54486 8.54645 4.70066 8.39065L1.80196 5.49195C0.756458 6.53745 0.348508 7.82485 0.168108 9.1676C-0.00409148 10.455 8.47081e-06 12.0642 8.47081e-06 13.94H4.10001ZM10.2521 3.69C8.37631 3.69 6.76501 3.6859 5.47966 3.8581C4.13486 4.0385 2.84541 4.44645 1.80196 5.49195L4.70066 8.39065C4.85646 8.23485 5.13526 8.04215 6.02496 7.9212C6.97411 7.7941 8.25946 7.79 10.2521 7.79V3.69Z" fill="black"/>
</svg>
