<svg width="200" height="127" viewBox="0 0 200 127" fill="none" xmlns="http://www.w3.org/2000/svg">
<g clip-path="url(#clip0_865_1369)">
<rect width="200" height="127" rx="10" fill="#3F907B"/>
<g filter="url(#filter0_f_865_1369)">
<path fill-rule="evenodd" clip-rule="evenodd" d="M253.79 -48.2809C289.235 -48.2209 328.916 -52.6909 354.703 -38.5751C380.841 -24.2667 377.797 -0.852482 378.52 19.9977C379.264 41.4905 381.887 64.1447 358.844 80.9743C333.582 99.4242 293.457 116.122 253.79 111.094C215.847 106.284 211.214 76.4547 186.396 59.1155C165.968 44.8437 129.731 38.185 123.403 19.9977C116.164 -0.80827 125.135 -24.6993 152.287 -38.9179C178.73 -52.7651 218.176 -48.3412 253.79 -48.2809Z" fill="white" fill-opacity="0.25"/>
</g>
<g filter="url(#filter1_f_865_1369)">
<path fill-rule="evenodd" clip-rule="evenodd" d="M127.972 23.7479C156.599 19.4753 189.029 34.0712 205.483 53.2151C221.956 72.3816 207.528 98.5626 212.001 121.516C214.633 135.019 224.245 146.599 226.326 160.163C228.627 175.154 231.622 190.601 224.764 204.681C217.447 219.702 204.62 233.712 186.792 241.322C169.123 248.863 147.346 241.896 127.972 245.994C99.8139 251.949 76.735 273.771 47.8563 270.707C18.288 267.568 -11.4082 251.569 -23.6549 229.901C-35.9076 208.223 -18.7861 183.705 -14.6231 160.163C-11.0451 139.93 -16.1359 117.322 -0.845663 100.916C14.2112 84.7608 45.4063 86.1873 65.5937 74.0941C89.6609 59.6766 98.3745 28.1654 127.972 23.7479Z" fill="white" fill-opacity="0.3"/>
</g>
<ellipse cx="44" cy="22.5" rx="72" ry="66.5" fill="url(#paint0_linear_865_1369)" fill-opacity="0.2"/>
<path d="M98.1249 72V62.2H102.367C103.244 62.2 104 62.3447 104.635 62.634C105.27 62.914 105.76 63.32 106.105 63.852C106.45 64.384 106.623 65.0187 106.623 65.756C106.623 66.484 106.45 67.114 106.105 67.646C105.76 68.178 105.27 68.5887 104.635 68.878C104 69.158 103.244 69.298 102.367 69.298H99.3849L100.393 68.276V72H98.1249ZM100.393 68.528L99.3849 67.45H102.241C102.941 67.45 103.464 67.3007 103.809 67.002C104.154 66.7033 104.327 66.288 104.327 65.756C104.327 65.2147 104.154 64.7947 103.809 64.496C103.464 64.1973 102.941 64.048 102.241 64.048H99.3849L100.393 62.97V68.528ZM110.328 66.148H115.046V67.912H110.328V66.148ZM110.496 70.18H115.83V72H108.242V62.2H115.648V64.02H110.496V70.18ZM117.635 72V62.2H119.511L125.293 69.256H124.383V62.2H126.623V72H124.761L118.965 64.944H119.875V72H117.635ZM128.941 72V62.2H133.393C134.457 62.2 135.395 62.4053 136.207 62.816C137.019 63.2173 137.654 63.782 138.111 64.51C138.569 65.238 138.797 66.1013 138.797 67.1C138.797 68.0893 138.569 68.9527 138.111 69.69C137.654 70.418 137.019 70.9873 136.207 71.398C135.395 71.7993 134.457 72 133.393 72H128.941ZM131.209 70.138H133.281C133.935 70.138 134.499 70.0167 134.975 69.774C135.461 69.522 135.834 69.1673 136.095 68.71C136.366 68.2527 136.501 67.716 136.501 67.1C136.501 66.4747 136.366 65.938 136.095 65.49C135.834 65.0327 135.461 64.6827 134.975 64.44C134.499 64.188 133.935 64.062 133.281 64.062H131.209V70.138ZM140.508 72V62.2H142.776V72H140.508ZM145.101 72V62.2H149.553C150.617 62.2 151.555 62.4053 152.367 62.816C153.179 63.2173 153.814 63.782 154.271 64.51C154.729 65.238 154.957 66.1013 154.957 67.1C154.957 68.0893 154.729 68.9527 154.271 69.69C153.814 70.418 153.179 70.9873 152.367 71.398C151.555 71.7993 150.617 72 149.553 72H145.101ZM147.369 70.138H149.441C150.095 70.138 150.659 70.0167 151.135 69.774C151.621 69.522 151.994 69.1673 152.255 68.71C152.526 68.2527 152.661 67.716 152.661 67.1C152.661 66.4747 152.526 65.938 152.255 65.49C151.994 65.0327 151.621 64.6827 151.135 64.44C150.659 64.188 150.095 64.062 149.441 64.062H147.369V70.138ZM156.668 72V62.2H158.936V72H156.668ZM163.292 69.76L163.166 67.142L167.856 62.2H170.376L166.148 66.75L164.888 68.094L163.292 69.76ZM161.262 72V62.2H163.516V72H161.262ZM167.968 72L164.482 67.73L165.966 66.12L170.614 72H167.968ZM169.886 72L174.254 62.2H176.494L180.876 72H178.496L174.912 63.348H175.808L172.21 72H169.886ZM172.07 69.9L172.672 68.178H177.712L178.328 69.9H172.07ZM181.892 72V62.2H183.768L189.55 69.256H188.64V62.2H190.88V72H189.018L183.222 64.944H184.132V72H181.892Z" fill="black"/>
<g filter="url(#filter2_d_865_1369)">
<path d="M58.8126 79.34C58.0824 78.9732 57.2678 78.8073 56.4523 78.8593C56.0081 78.9024 55.5737 79.0167 55.1658 79.1979L59.2811 80.8594C58.0664 82.3073 56.9559 83.8396 55.958 85.4446C55.2447 86.565 54.6678 87.7665 54.2396 89.0237C53.8577 90.0261 53.7091 91.1023 53.8049 92.1708C55.7684 91.732 57.8457 89.5708 59.1877 86.9843C60.1406 85.3347 60.6002 83.4463 60.5121 81.5433C60.4275 81.0662 60.2288 80.6166 59.9329 80.233C59.6369 79.8493 59.2526 79.543 58.8126 79.34ZM31.0454 58.5251V65.1809L53.8807 73.3208H53.8943C55.6414 73.3229 57.3871 73.2235 59.1227 73.0229C63.5738 72.3729 66.4569 71.127 66.4569 69.8162V58.8474L52.4385 63.5979L31.0454 58.5251Z" fill="#383535"/>
<path d="M47.225 44.7479L17 53.0287L31.0454 56.3491L52.3397 61.3947L66.4569 56.6185L82 51.3468L47.225 44.7479Z" fill="#383535"/>
<path d="M51.8021 89.8525C51.8305 89.717 51.859 89.5559 51.886 89.3866C51.9131 89.2174 51.9714 89.0196 52.0418 88.8219L52.0851 88.6946C52.6022 87.1693 53.2948 85.7092 54.1489 84.3437C54.6593 83.4833 55.2256 82.6572 55.8443 81.871C55.8658 81.8443 55.8848 81.8158 55.9011 81.7857L53.117 80.6699C52.4623 81.3573 51.9059 82.132 51.4635 82.9719C50.856 84.0144 50.3508 85.1133 49.955 86.2531L17.7204 71.8854L17.5227 72.748C17.2519 74.0764 17.325 75.4888 18.1876 75.8423L52.1853 92.0286C51.7181 91.6752 51.6057 90.8979 51.8021 89.8525Z" fill="#E3D3A8"/>
<path d="M17.0611 69.2708L17.0639 69.2652L17.0555 69.261L17.0611 69.2708Z" fill="#FCFFFE"/>
<path d="M49.5785 81.9969C51.4987 78.2987 54.8692 76.174 57.4638 76.8633L57.3622 76.8254L21.8492 64.1477C20.5289 63.5857 18.6371 65.0807 17.5958 67.5331C17.3563 68.0899 17.1778 68.6711 17.0636 69.2664L48.9298 83.4662C49.1147 82.9632 49.3314 82.4725 49.5785 81.9969ZM78.2841 59.8956V54.8513L76.1635 55.5582V59.8915C75.7128 60.0921 75.3302 60.4193 75.0619 60.8332C74.7936 61.2472 74.6513 61.7301 74.6522 62.2234V64.0177C74.6522 64.6979 74.9225 65.3503 75.4035 65.8313C75.8844 66.3122 76.5368 66.5825 77.217 66.5825C77.8973 66.5825 78.5496 66.3122 79.0306 65.8313C79.5116 65.3503 79.7818 64.6979 79.7818 64.0177V62.2275C79.7855 61.7354 79.6458 61.2528 79.3798 60.8387C79.1139 60.4247 78.7332 60.0969 78.2841 59.8956Z" fill="#FFF4D5"/>
</g>
</g>
<defs>
<filter id="filter0_f_865_1369" x="71" y="-99" width="358" height="261" filterUnits="userSpaceOnUse" color-interpolation-filters="sRGB">
<feFlood flood-opacity="0" result="BackgroundImageFix"/>
<feBlend mode="normal" in="SourceGraphic" in2="BackgroundImageFix" result="shape"/>
<feGaussianBlur stdDeviation="25" result="effect1_foregroundBlur_865_1369"/>
</filter>
<filter id="filter1_f_865_1369" x="-58" y="-7" width="317" height="308" filterUnits="userSpaceOnUse" color-interpolation-filters="sRGB">
<feFlood flood-opacity="0" result="BackgroundImageFix"/>
<feBlend mode="normal" in="SourceGraphic" in2="BackgroundImageFix" result="shape"/>
<feGaussianBlur stdDeviation="15" result="effect1_foregroundBlur_865_1369"/>
</filter>
<filter id="filter2_d_865_1369" x="13" y="36" width="73" height="73" filterUnits="userSpaceOnUse" color-interpolation-filters="sRGB">
<feFlood flood-opacity="0" result="BackgroundImageFix"/>
<feColorMatrix in="SourceAlpha" type="matrix" values="0 0 0 0 0 0 0 0 0 0 0 0 0 0 0 0 0 0 127 0" result="hardAlpha"/>
<feOffset dy="4"/>
<feGaussianBlur stdDeviation="2"/>
<feComposite in2="hardAlpha" operator="out"/>
<feColorMatrix type="matrix" values="0 0 0 0 0 0 0 0 0 0 0 0 0 0 0 0 0 0 0.25 0"/>
<feBlend mode="normal" in2="BackgroundImageFix" result="effect1_dropShadow_865_1369"/>
<feBlend mode="normal" in="SourceGraphic" in2="effect1_dropShadow_865_1369" result="shape"/>
</filter>
<linearGradient id="paint0_linear_865_1369" x1="44" y1="-44" x2="98.2474" y2="64.8063" gradientUnits="userSpaceOnUse">
<stop stop-color="#D9D9D9" stop-opacity="0"/>
<stop offset="1" stop-color="white"/>
</linearGradient>
<clipPath id="clip0_865_1369">
<rect width="200" height="127" fill="white"/>
</clipPath>
</defs>
</svg>
