<svg width="262" height="163" viewBox="0 0 262 163" fill="none" xmlns="http://www.w3.org/2000/svg">
<g clip-path="url(#clip0_619_1815)">
<rect width="262" height="163" rx="10" fill="#3F907B"/>
<g filter="url(#filter0_f_619_1815)">
<path fill-rule="evenodd" clip-rule="evenodd" d="M253.79 -48.2809C289.235 -48.2209 328.916 -52.6909 354.703 -38.5751C380.841 -24.2667 377.797 -0.852482 378.52 19.9977C379.264 41.4905 381.887 64.1447 358.844 80.9743C333.582 99.4242 293.457 116.122 253.79 111.094C215.847 106.284 211.214 76.4547 186.396 59.1155C165.968 44.8437 129.731 38.185 123.403 19.9977C116.164 -0.80827 125.135 -24.6993 152.287 -38.9179C178.73 -52.7651 218.176 -48.3412 253.79 -48.2809Z" fill="white" fill-opacity="0.25"/>
</g>
<g filter="url(#filter1_f_619_1815)">
<path fill-rule="evenodd" clip-rule="evenodd" d="M127.972 23.7479C156.599 19.4753 189.029 34.0712 205.483 53.2151C221.956 72.3816 207.528 98.5626 212.001 121.516C214.633 135.019 224.245 146.599 226.326 160.163C228.627 175.154 231.622 190.601 224.764 204.681C217.447 219.702 204.62 233.712 186.792 241.322C169.123 248.863 147.346 241.896 127.972 245.994C99.8139 251.949 76.735 273.771 47.8563 270.707C18.288 267.568 -11.4082 251.569 -23.6549 229.901C-35.9076 208.223 -18.7861 183.705 -14.6231 160.163C-11.0451 139.93 -16.1359 117.322 -0.845663 100.916C14.2112 84.7608 45.4063 86.1873 65.5937 74.0941C89.6609 59.6766 98.3745 28.1654 127.972 23.7479Z" fill="white" fill-opacity="0.3"/>
</g>
<ellipse cx="44" cy="22.5" rx="72" ry="66.5" fill="url(#paint0_linear_619_1815)" fill-opacity="0.2"/>
<path d="M188.399 86V78.048H185.263V76.2H193.803V78.048H190.667V86H188.399ZM195.023 86V76.2H199.265C200.143 76.2 200.899 76.3447 201.533 76.634C202.168 76.914 202.658 77.32 203.003 77.852C203.349 78.384 203.521 79.0187 203.521 79.756C203.521 80.484 203.349 81.114 203.003 81.646C202.658 82.1687 202.168 82.57 201.533 82.85C200.899 83.13 200.143 83.27 199.265 83.27H196.283L197.291 82.276V86H195.023ZM201.253 86L198.803 82.444H201.225L203.703 86H201.253ZM197.291 82.528L196.283 81.464H199.139C199.839 81.464 200.362 81.3147 200.707 81.016C201.053 80.708 201.225 80.288 201.225 79.756C201.225 79.2147 201.053 78.7947 200.707 78.496C200.362 78.1973 199.839 78.048 199.139 78.048H196.283L197.291 76.97V82.528ZM204.03 86L208.398 76.2H210.638L215.02 86H212.64L209.056 77.348H209.952L206.354 86H204.03ZM206.214 83.9L206.816 82.178H211.856L212.472 83.9H206.214ZM220.186 86.168C218.795 86.168 217.708 85.7807 216.924 85.006C216.14 84.2313 215.748 83.1253 215.748 81.688V76.2H218.016V81.604C218.016 82.5373 218.207 83.2093 218.59 83.62C218.973 84.0307 219.509 84.236 220.2 84.236C220.891 84.236 221.427 84.0307 221.81 83.62C222.193 83.2093 222.384 82.5373 222.384 81.604V76.2H224.624V81.688C224.624 83.1253 224.232 84.2313 223.448 85.006C222.664 85.7807 221.577 86.168 220.186 86.168ZM226.865 86V76.2H228.741L232.913 83.116H231.919L236.021 76.2H237.883L237.911 86H235.783L235.769 79.462H236.161L232.885 84.964H231.863L228.517 79.462H228.993V86H226.865ZM238.948 86L243.316 76.2H245.556L249.938 86H247.558L243.974 77.348H244.87L241.272 86H238.948ZM241.132 83.9L241.734 82.178H246.774L247.39 83.9H241.132Z" fill="black"/>
<g clip-path="url(#clip1_619_1815)">
<path d="M11.4855 54.9406C16.7846 201.214 115.531 144.553 164.243 97.9384C96.5312 127.016 63.8862 142.436 49.0249 61.3746C37.1359 -3.47446 19.0449 30.0648 11.4855 54.9406Z" fill="#B9B9B9" fill-opacity="0.7"/>
<g filter="url(#filter2_f_619_1815)">
<ellipse cx="23.0082" cy="54.4154" rx="2.51864" ry="5.98178" transform="rotate(1.74132 23.0082 54.4154)" fill="#D9D9D9"/>
</g>
<g filter="url(#filter3_f_619_1815)">
<ellipse cx="32.7781" cy="53.1176" rx="2.51864" ry="5.98178" transform="rotate(1.74132 32.7781 53.1176)" fill="#D9D9D9"/>
</g>
<g filter="url(#filter4_f_619_1815)">
<ellipse cx="136.127" cy="55.6631" rx="2.9579" ry="7.02501" transform="rotate(35.5276 136.127 55.6631)" fill="white"/>
</g>
<g filter="url(#filter5_f_619_1815)">
<ellipse cx="146.511" cy="60.7773" rx="2.9579" ry="7.02501" transform="rotate(35.5276 146.511 60.7773)" fill="white"/>
</g>
<path d="M64.6436 283.116C56.1891 219.913 85.9902 53.7464 143.2 37.3901C214.711 16.9447 90.4174 160.477 64.6436 283.116Z" fill="#BFBFBF" fill-opacity="0.7"/>
<path fill-rule="evenodd" clip-rule="evenodd" d="M85.7971 46.7728C90.7402 54.2908 99.7081 72.1288 97.3458 75.8664L76.8557 81.059C76.8433 81.026 76.8309 80.9931 76.8187 80.9602C68.9856 82.109 61.2512 77.6626 59.0319 70.4459L54.9339 57.1197C52.5525 49.3758 57.4232 41.3746 65.8129 39.2485L67.226 38.8904C74.7508 36.9835 82.5507 40.4504 85.7971 46.7728Z" fill="#191847"/>
<path fill-rule="evenodd" clip-rule="evenodd" d="M66.256 66.0303C61.9502 63.3833 58.4375 59.6775 57.303 54.7914C54.0344 40.713 75.768 38.3072 81.9893 44.2156C88.2107 50.124 93.2562 67.9224 88.4204 70.5359C86.4919 71.5782 81.6725 71.5241 76.3674 70.1895L85.0029 87.9953L68.2586 92.38L66.256 66.0303Z" fill="#B28B67"/>
<path fill-rule="evenodd" clip-rule="evenodd" d="M69.9717 62.4208C73.1181 69.8973 75.5047 78.7406 73.8146 81.411L53.3026 86.6029C46.5717 68.7536 59.7809 72.982 54.5197 55.9041C55.019 55.1151 55.4823 54.3421 55.9645 53.6545L55.787 53.158C57.2926 45.6167 60.7757 41.155 66.2361 39.7729C74.4268 37.6997 78.0847 40.5268 81.1965 42.9254C81.1399 48.5013 74.9877 50.8831 70.3025 55.5356C69.4805 55.2084 68.5357 55.1268 67.6065 55.362C65.458 55.9058 64.2064 57.9376 64.811 59.9002C65.4156 61.8628 67.6475 63.013 69.796 62.4691C69.8552 62.4541 69.9138 62.438 69.9717 62.4208Z" fill="#191847"/>
<path fill-rule="evenodd" clip-rule="evenodd" d="M110.163 226.709C109.991 226.474 109.846 226.218 109.731 225.942C107.35 220.214 69.2152 158.421 65.416 147.124H108.351C111.239 155.713 124.241 209.617 126.07 220.371C131.843 237.335 143.73 292.276 145.247 296.082C146.843 300.086 137.862 304.257 135.468 299.335C131.66 291.503 122.586 269.831 118.546 256.598C114.758 244.192 111.674 233.031 110.163 226.709Z" fill="#997659"/>
<path fill-rule="evenodd" clip-rule="evenodd" d="M75.0364 234.253C57.6016 238.262 -6.1712 245.509 -10.5476 246.646C-15.0495 247.815 -18.9968 239.373 -13.4322 237.545C-4.57796 234.635 19.8195 227.912 34.6117 225.169C46.5097 222.962 57.3668 221.161 64.656 220.107C64.0384 201.48 61.2156 156.778 63.0658 147.124H101.055C99.2809 156.382 84.2826 223.935 81.4949 230.697C80.6102 233.111 77.9706 234.178 75.0364 234.253Z" fill="#B28B67"/>
<path fill-rule="evenodd" clip-rule="evenodd" d="M63.1886 147.123C79.9293 142.766 95.7689 142.766 110.708 147.123C115.905 168.696 128.534 177.258 130.755 210.332C105.51 221.743 74.3259 202.194 48.339 213.322C40.9141 197.756 51.3089 160.271 63.1886 147.123Z" fill="#2B44FF"/>
<path fill-rule="evenodd" clip-rule="evenodd" d="M103.11 102.624L125.671 85.8784C128.917 80.6605 132.31 76.4617 135.852 73.2819C136.995 72.603 139.107 71.954 137.758 75.5683C136.41 79.1826 135.171 83.04 136.415 83.8753C137.66 84.7105 139.945 82.8692 141.528 84.3382C142.583 85.3175 138.545 87.821 129.413 91.8488L114.292 110.13L103.11 102.624ZM144.73 106.583L154.637 99.2114C155.072 93.5878 156.364 90.5783 158.515 90.183C160.026 89.2045 158.551 96.4657 161.57 95.3513C164.59 94.2368 171.179 87.769 172.72 88.5997C174.999 89.8287 174.251 94.9007 172.692 97.6226C169.779 102.71 166.918 104.762 159.477 108.069C155.587 109.798 151.581 112.628 147.459 116.559L144.73 106.583Z" fill="#997659"/>
<path fill-rule="evenodd" clip-rule="evenodd" d="M89.9235 101.765C98.7526 100.194 110.195 96.5213 121.263 87.1752L128.303 96.3224C121.259 105.58 110.396 114.038 99.664 115.56C91.2065 116.759 84.9719 108.272 89.9235 101.765Z" fill="#2026A2"/>
<path fill-rule="evenodd" clip-rule="evenodd" d="M104.873 115.873C114.648 116.425 129.781 111.281 150.271 100.443C157.856 109.814 161.898 116.725 162.396 121.177C145.412 133.339 130.089 140.067 116.835 142.575C118.753 149.711 119.215 156.731 117.286 163.541C113.321 177.543 71.9745 172.163 59.3921 176.714C46.1741 153.835 59.9536 141.309 56.7456 125.785C53.2325 108.784 62.7587 80.0993 64.9591 79.7285L85.0251 76.3465C88.826 89.1418 97.3672 102.51 104.873 115.873Z" fill="#003A70"/>
</g>
</g>
<defs>
<filter id="filter0_f_619_1815" x="71" y="-99" width="358" height="261" filterUnits="userSpaceOnUse" color-interpolation-filters="sRGB">
<feFlood flood-opacity="0" result="BackgroundImageFix"/>
<feBlend mode="normal" in="SourceGraphic" in2="BackgroundImageFix" result="shape"/>
<feGaussianBlur stdDeviation="25" result="effect1_foregroundBlur_619_1815"/>
</filter>
<filter id="filter1_f_619_1815" x="-58" y="-7" width="317" height="308" filterUnits="userSpaceOnUse" color-interpolation-filters="sRGB">
<feFlood flood-opacity="0" result="BackgroundImageFix"/>
<feBlend mode="normal" in="SourceGraphic" in2="BackgroundImageFix" result="shape"/>
<feGaussianBlur stdDeviation="15" result="effect1_foregroundBlur_619_1815"/>
</filter>
<filter id="filter2_f_619_1815" x="18.484" y="46.436" width="9.04834" height="15.959" filterUnits="userSpaceOnUse" color-interpolation-filters="sRGB">
<feFlood flood-opacity="0" result="BackgroundImageFix"/>
<feBlend mode="normal" in="SourceGraphic" in2="BackgroundImageFix" result="shape"/>
<feGaussianBlur stdDeviation="1" result="effect1_foregroundBlur_619_1815"/>
</filter>
<filter id="filter3_f_619_1815" x="28.2539" y="45.1382" width="9.04834" height="15.959" filterUnits="userSpaceOnUse" color-interpolation-filters="sRGB">
<feFlood flood-opacity="0" result="BackgroundImageFix"/>
<feBlend mode="normal" in="SourceGraphic" in2="BackgroundImageFix" result="shape"/>
<feGaussianBlur stdDeviation="1" result="effect1_foregroundBlur_619_1815"/>
</filter>
<filter id="filter4_f_619_1815" x="129.387" y="47.6914" width="13.4797" height="15.9434" filterUnits="userSpaceOnUse" color-interpolation-filters="sRGB">
<feFlood flood-opacity="0" result="BackgroundImageFix"/>
<feBlend mode="normal" in="SourceGraphic" in2="BackgroundImageFix" result="shape"/>
<feGaussianBlur stdDeviation="1" result="effect1_foregroundBlur_619_1815"/>
</filter>
<filter id="filter5_f_619_1815" x="139.771" y="52.8057" width="13.4797" height="15.9434" filterUnits="userSpaceOnUse" color-interpolation-filters="sRGB">
<feFlood flood-opacity="0" result="BackgroundImageFix"/>
<feBlend mode="normal" in="SourceGraphic" in2="BackgroundImageFix" result="shape"/>
<feGaussianBlur stdDeviation="1" result="effect1_foregroundBlur_619_1815"/>
</filter>
<linearGradient id="paint0_linear_619_1815" x1="44" y1="-44" x2="98.2474" y2="64.8063" gradientUnits="userSpaceOnUse">
<stop stop-color="#D9D9D9" stop-opacity="0"/>
<stop offset="1" stop-color="white"/>
</linearGradient>
<clipPath id="clip0_619_1815">
<rect width="262" height="163" fill="white"/>
</clipPath>
<clipPath id="clip1_619_1815">
<rect width="218" height="162" fill="white" transform="translate(0 1)"/>
</clipPath>
</defs>
</svg>
