<svg width="262" height="163" viewBox="0 0 262 163" fill="none" xmlns="http://www.w3.org/2000/svg">
<g clip-path="url(#clip0_619_1741)">
<rect width="262" height="163" rx="10" fill="#3F907B"/>
<g filter="url(#filter0_f_619_1741)">
<path fill-rule="evenodd" clip-rule="evenodd" d="M253.79 -48.2809C289.235 -48.2209 328.916 -52.6909 354.703 -38.5751C380.841 -24.2667 377.797 -0.852482 378.52 19.9977C379.264 41.4905 381.887 64.1447 358.844 80.9743C333.582 99.4242 293.457 116.122 253.79 111.094C215.847 106.284 211.214 76.4547 186.396 59.1155C165.968 44.8437 129.731 38.185 123.403 19.9977C116.164 -0.80827 125.135 -24.6993 152.287 -38.9179C178.73 -52.7651 218.176 -48.3412 253.79 -48.2809Z" fill="white" fill-opacity="0.25"/>
</g>
<g filter="url(#filter1_f_619_1741)">
<path fill-rule="evenodd" clip-rule="evenodd" d="M127.972 23.7479C156.599 19.4753 189.029 34.0712 205.483 53.2151C221.956 72.3816 207.528 98.5626 212.001 121.516C214.633 135.019 224.245 146.599 226.326 160.163C228.627 175.154 231.622 190.601 224.764 204.681C217.447 219.702 204.62 233.712 186.792 241.322C169.123 248.863 147.346 241.896 127.972 245.994C99.8139 251.949 76.735 273.771 47.8563 270.707C18.288 267.568 -11.4082 251.569 -23.6549 229.901C-35.9076 208.223 -18.7861 183.705 -14.6231 160.163C-11.0451 139.93 -16.1359 117.322 -0.845663 100.916C14.2112 84.7608 45.4063 86.1873 65.5937 74.0941C89.6609 59.6766 98.3745 28.1654 127.972 23.7479Z" fill="white" fill-opacity="0.3"/>
</g>
<ellipse cx="44" cy="22.5" rx="72" ry="66.5" fill="url(#paint0_linear_619_1741)" fill-opacity="0.2"/>
<path d="M167.277 76.2H169.545V86H167.277V76.2ZM162.825 86H160.557V76.2H162.825V86ZM167.445 81.982H162.657V80.064H167.445V81.982ZM176.217 86.168C174.827 86.168 173.739 85.7807 172.955 85.006C172.171 84.2313 171.779 83.1253 171.779 81.688V76.2H174.047V81.604C174.047 82.5373 174.239 83.2093 174.621 83.62C175.004 84.0307 175.541 84.236 176.231 84.236C176.922 84.236 177.459 84.0307 177.841 83.62C178.224 83.2093 178.415 82.5373 178.415 81.604V76.2H180.655V81.688C180.655 83.1253 180.263 84.2313 179.479 85.006C178.695 85.7807 177.608 86.168 176.217 86.168ZM182.896 86V76.2H187.684C188.916 76.2 189.84 76.4333 190.456 76.9C191.082 77.3667 191.394 77.9827 191.394 78.748C191.394 79.2613 191.268 79.7093 191.016 80.092C190.764 80.4653 190.419 80.7547 189.98 80.96C189.542 81.1653 189.038 81.268 188.468 81.268L188.734 80.694C189.35 80.694 189.896 80.7967 190.372 81.002C190.848 81.198 191.217 81.492 191.478 81.884C191.749 82.276 191.884 82.7567 191.884 83.326C191.884 84.166 191.553 84.824 190.89 85.3C190.228 85.7667 189.252 86 187.964 86H182.896ZM185.15 84.292H187.796C188.384 84.292 188.828 84.1987 189.126 84.012C189.434 83.816 189.588 83.508 189.588 83.088C189.588 82.6773 189.434 82.374 189.126 82.178C188.828 81.9727 188.384 81.87 187.796 81.87H184.982V80.218H187.404C187.955 80.218 188.375 80.1247 188.664 79.938C188.963 79.742 189.112 79.448 189.112 79.056C189.112 78.6733 188.963 78.3887 188.664 78.202C188.375 78.006 187.955 77.908 187.404 77.908H185.15V84.292ZM197.955 86.168C196.565 86.168 195.477 85.7807 194.693 85.006C193.909 84.2313 193.517 83.1253 193.517 81.688V76.2H195.785V81.604C195.785 82.5373 195.977 83.2093 196.359 83.62C196.742 84.0307 197.279 84.236 197.969 84.236C198.66 84.236 199.197 84.0307 199.579 83.62C199.962 83.2093 200.153 82.5373 200.153 81.604V76.2H202.393V81.688C202.393 83.1253 202.001 84.2313 201.217 85.006C200.433 85.7807 199.346 86.168 197.955 86.168ZM204.635 86V76.2H206.511L212.293 83.256H211.383V76.2H213.623V86H211.761L205.965 78.944H206.875V86H204.635ZM220.673 86.168C219.899 86.168 219.185 86.0467 218.531 85.804C217.887 85.552 217.323 85.1973 216.837 84.74C216.361 84.2827 215.988 83.746 215.717 83.13C215.456 82.514 215.325 81.8373 215.325 81.1C215.325 80.3627 215.456 79.686 215.717 79.07C215.988 78.454 216.366 77.9173 216.851 77.46C217.337 77.0027 217.906 76.6527 218.559 76.41C219.213 76.158 219.931 76.032 220.715 76.032C221.583 76.032 222.363 76.1767 223.053 76.466C223.753 76.7553 224.341 77.1753 224.817 77.726L223.361 79.07C223.007 78.6967 222.619 78.4213 222.199 78.244C221.779 78.0573 221.322 77.964 220.827 77.964C220.351 77.964 219.917 78.0387 219.525 78.188C219.133 78.3373 218.793 78.552 218.503 78.832C218.223 79.112 218.004 79.4433 217.845 79.826C217.696 80.2087 217.621 80.6333 217.621 81.1C217.621 81.5573 217.696 81.9773 217.845 82.36C218.004 82.7427 218.223 83.0787 218.503 83.368C218.793 83.648 219.129 83.8627 219.511 84.012C219.903 84.1613 220.333 84.236 220.799 84.236C221.247 84.236 221.681 84.166 222.101 84.026C222.531 83.8767 222.946 83.6293 223.347 83.284L224.635 84.922C224.103 85.3233 223.483 85.6313 222.773 85.846C222.073 86.0607 221.373 86.168 220.673 86.168ZM222.563 84.628V80.946H224.635V84.922L222.563 84.628ZM225.454 86L229.822 76.2H232.062L236.444 86H234.064L230.48 77.348H231.376L227.778 86H225.454ZM227.638 83.9L228.24 82.178H233.28L233.896 83.9H227.638ZM237.461 86V76.2H239.337L245.119 83.256H244.209V76.2H246.449V86H244.587L238.791 78.944H239.701V86H237.461Z" fill="black"/>
<mask id="mask0_619_1741" style="mask-type:luminance" maskUnits="userSpaceOnUse" x="15" y="38" width="84" height="89">
<path d="M98.2813 38.2817H15.8188V126.078H98.2813V38.2817Z" fill="white"/>
</mask>
<g mask="url(#mask0_619_1741)">
<path fill-rule="evenodd" clip-rule="evenodd" d="M59.234 60.0648C57.8287 60.9214 56.4479 61.3353 55.7999 61.1663C54.1745 60.7427 54.0252 54.7291 55.2828 52.3583C56.5401 49.9876 63.005 48.9543 63.3307 53.6515C63.4438 55.2817 62.7671 56.7366 61.7672 57.9238L63.5601 66.3764H58.3519L59.234 60.0648Z" fill="#915B3C"/>
<path fill-rule="evenodd" clip-rule="evenodd" d="M62.1674 58.9813C62.821 56.0399 64.6831 54.0348 64.3988 52.7201C64.1143 51.4054 62.8828 51.085 62.8828 51.085C62.8828 51.085 62.2457 48.4785 58.7738 48.8677C55.3019 49.2569 53.1831 50.7153 54.0982 53.9243C54.9393 53.9243 55.9549 53.6166 57.3589 54.1438C58.0273 54.3947 58.3151 55.7 58.3151 55.7H58.9496C58.9496 55.7 59.8734 54.1509 60.7714 54.5615C61.6693 54.9721 61.1795 56.5561 61.1795 56.5561L61.4922 58.9813H62.1674Z" fill="black"/>
<path fill-rule="evenodd" clip-rule="evenodd" d="M78.0997 93.813C80.0174 93.813 81.5718 95.3852 81.5718 97.3248V117.518C81.5718 119.458 80.0174 121.03 78.0997 121.03H53.144C51.2263 121.03 49.6719 119.458 49.6719 117.518V97.3248C49.6719 95.3852 51.2263 93.813 53.144 93.813H78.0997ZM74.6276 99.9587C75.107 99.9587 75.4957 100.352 75.4957 100.837V114.006C75.4957 114.491 75.107 114.884 74.6276 114.884H56.6161C56.1367 114.884 55.7481 114.491 55.7481 114.006V100.837C55.7481 100.352 56.1367 99.9587 56.6161 99.9587H74.6276Z" fill="#C5CFD6"/>
<path fill-rule="evenodd" clip-rule="evenodd" d="M28.1536 119.932C32.4321 114.648 35.327 110.73 36.8383 108.18C39.4262 103.812 41.5442 99.9253 42.2126 98.4407C43.8065 94.9005 38.5432 93.2429 37.3521 94.8941C35.5492 97.3933 31.6988 105.258 25.801 118.487L28.1536 119.932Z" fill="#B28B67"/>
<path fill-rule="evenodd" clip-rule="evenodd" d="M36.9211 118.396L44.8836 98.1234C46.5867 94.4278 38.3624 91.9985 37.1108 93.7184C34.2693 97.6229 27.5158 113.026 26.6692 114.189L36.9211 118.396Z" fill="#2F3676"/>
<path fill-rule="evenodd" clip-rule="evenodd" d="M58.1278 114.331C56.5767 112.042 50.9349 104.343 47.8621 101.158C46.9791 100.242 46.1174 99.3637 45.3025 98.5448C42.8803 96.1113 38.0567 100.202 40.4746 102.418C46.4958 107.939 55.2811 115.391 56.0151 116.055C57.0439 116.986 59.1026 115.769 58.1278 114.331Z" fill="#915B3C"/>
<path fill-rule="evenodd" clip-rule="evenodd" d="M57.123 113.388C57.2733 113.181 57.5644 113.132 57.7588 113.297C58.1136 113.599 58.6238 114.064 58.808 114.387C59.1014 114.901 59.4951 115.986 59.4951 115.986C58.9055 116.331 48.8954 122.176 48.8954 122.176C48.8954 122.176 47.6936 121.036 48.5208 120.406C49.3483 119.776 49.8862 119.343 49.8862 119.343L53.545 114.245C53.6168 114.145 53.7561 114.124 53.8529 114.2L54.6131 114.792C54.6131 114.792 55.6593 114.7 56.1744 114.399C56.4882 114.215 56.8712 113.736 57.123 113.388Z" fill="#E4E4E4"/>
<path fill-rule="evenodd" clip-rule="evenodd" d="M29.3926 118.898C29.6252 118.794 29.9016 118.899 29.9882 119.14C30.1462 119.581 30.3582 120.242 30.3582 120.614C30.3582 121.208 30.1626 122.347 30.1626 122.347C29.4817 122.347 17.9231 122.347 17.9231 122.347C17.9231 122.347 17.446 120.752 18.4739 120.624C19.5018 120.497 20.1817 120.395 20.1817 120.395L25.8705 117.83C25.9822 117.779 26.1129 117.832 26.1595 117.946L26.5252 118.844C26.5252 118.844 27.4767 119.293 28.0717 119.293C28.4339 119.293 29.0028 119.071 29.3926 118.898Z" fill="#E4E4E4"/>
<path fill-rule="evenodd" clip-rule="evenodd" d="M47.7486 99.1357C47.7486 99.1357 57.6756 97.5 61.0472 96.8986C67.4539 95.7559 69.3221 92.2689 68.2176 84.6606H56.4133C54.07 85.345 36.832 93.1264 36.832 93.1264C34.7644 94.1646 35.1494 97.2256 35.5274 98.234C35.5505 98.2957 45.9844 116.358 45.9844 116.358L55.6407 110.136L47.7304 99.8688C47.7304 99.8688 47.4171 99.2305 47.7486 99.1357Z" fill="#5C63AB"/>
<path fill-rule="evenodd" clip-rule="evenodd" d="M39.9762 86.929L46.8983 81.7876L48.4284 85.6136L41.5738 88.4887C39.6351 90.792 38.5512 91.7523 38.3216 91.3693C38.1282 91.0464 38.2795 90.7442 38.4188 90.4656C38.5273 90.2488 38.6284 90.0464 38.554 89.8601C38.3836 89.4342 37.0814 89.4792 35.8474 89.5752C34.6134 89.6711 34.973 89.1158 35.2706 88.8414C36.5302 88.0789 38.0987 87.4415 39.9762 86.929ZM76.2773 95.988C75.6415 94.6832 73.4758 81.9652 73.4758 81.9652L68.941 81.9832C68.941 81.9832 73.1409 95.6972 73.4758 96.5363C73.9106 97.6263 73.172 99.2099 72.6711 100.284C72.5936 100.45 72.5218 100.604 72.4608 100.742C73.1559 101.057 73.4899 100.676 73.8419 100.276C74.2392 99.8228 74.66 99.3436 75.6502 99.8096C76.0327 99.9898 76.3947 100.202 76.7484 100.411C77.9702 101.129 79.0925 101.789 80.6194 100.836C80.8614 100.685 81.1268 100.116 80.4857 99.6715C78.8892 98.564 76.5883 96.6261 76.2773 95.988Z" fill="#915B3C"/>
<path fill-rule="evenodd" clip-rule="evenodd" d="M60.5883 62.7181L58.7119 62.3926C51.7497 68.4758 48.89 80.1626 40.356 86.3536L42.4099 88.9289C57.215 87.0748 60.8846 72.8197 60.5883 62.7181Z" fill="#2C9378"/>
<path fill-rule="evenodd" clip-rule="evenodd" d="M68.7685 86.5699C68.7685 86.5699 57.4824 86.5699 52.1651 86.5699C51.4062 86.5699 51.5492 85.4619 51.6591 84.9026C52.9246 78.4496 57.8659 71.4934 57.8659 62.3075L62.655 61.5479C66.6164 67.9917 67.9862 75.9256 68.7685 86.5699Z" fill="#DDE3E9"/>
<path fill-rule="evenodd" clip-rule="evenodd" d="M70.6354 91.1793C71.3817 92.9921 72.1135 94.5737 72.8029 95.7886H76.3638C76.7468 83.2598 72.0573 73.6193 68.1323 67.8063C69.0038 67.7433 69.7904 67.3746 70.2876 66.467C72.0379 63.2723 71.4058 61.5133 69.5352 60.9351C68.5064 60.6173 67.539 60.8344 66.381 61.094C65.4334 61.3065 64.3579 61.5477 63.017 61.548C63.0166 61.548 63.0161 61.548 63.0157 61.548C62.8857 61.548 62.7674 61.5567 62.66 61.5736L61.0709 61.6654C61.0709 61.6654 54.6186 83.7835 57.512 91.1793H70.6354Z" fill="#2C9378"/>
<path fill-rule="evenodd" clip-rule="evenodd" d="M70.6355 91.1792C69.6563 88.8008 68.6525 86.0247 67.6863 83.1577C67.3266 86.3151 66.7276 89.4861 65.7305 91.1792H70.6355Z" fill="black" fill-opacity="0.1"/>
</g>
<mask id="mask1_619_1741" style="mask-type:luminance" maskUnits="userSpaceOnUse" x="62" y="37" width="88" height="88">
<path d="M62.7049 37H149.291V124.797H62.7049V37Z" fill="white"/>
</mask>
<g mask="url(#mask1_619_1741)">
<path fill-rule="evenodd" clip-rule="evenodd" d="M107.35 58.7835C108.826 59.6401 110.275 60.0541 110.956 59.8851C112.663 59.4614 112.819 53.4478 111.499 51.0771C110.179 48.7063 103.391 47.673 103.049 52.3702C102.93 54.0005 103.64 55.4554 104.69 56.6425L102.808 65.0951H108.276L107.35 58.7835Z" fill="#B28B67"/>
<path fill-rule="evenodd" clip-rule="evenodd" d="M110.267 49.5138C110.141 49.4418 109.879 49.2898 109.746 49.2348C109.715 49.2215 109.495 49.0704 109.489 49.0723C109.323 49.1264 108.84 49.3262 108.799 49.4989C108.793 49.512 108.786 49.5243 108.78 49.535C108.712 49.6547 108.649 49.7773 108.589 49.9015C108.458 50.174 108.345 50.4588 108.236 50.7413C108.026 51.2917 107.843 51.8548 107.674 52.4192C107.503 52.9938 107.357 53.575 107.194 54.152C106.96 54.9822 106.66 55.792 106.427 56.6218C106.279 57.1517 106.196 57.6878 106.235 58.2331C106.236 58.2397 106.236 58.2462 106.237 58.2528C106.237 58.2556 106.237 58.2582 106.237 58.261C106.244 58.3448 106.253 58.4288 106.266 58.5131C106.277 58.5852 106.288 58.6576 106.3 58.7299C106.512 58.3215 106.675 57.8716 106.847 57.4445C106.864 57.4027 106.88 57.3606 106.896 57.3184C106.951 57.2318 107.008 57.1458 107.065 57.0601C107.426 56.52 107.789 55.9818 108.135 55.4318C108.758 54.4427 109.375 53.4327 110.113 52.5244C110.331 52.2562 110.554 51.9921 110.77 51.7217C110.892 51.5678 111.011 51.4113 111.127 51.2521C111.209 51.1382 111.568 50.7413 111.438 50.5029C111.372 50.3809 110.592 49.7006 110.267 49.5138Z" fill="#2C2C2C"/>
<path fill-rule="evenodd" clip-rule="evenodd" d="M109.786 49.2545C109.908 49.2939 109.849 49.0498 109.731 48.9638C109.184 48.5658 107.094 48.4213 105.276 48.7849C104.058 49.0286 102.641 49.6349 101.668 50.4144C100.791 51.1171 100.187 52.2435 99.8766 53.3319C99.5505 54.4747 99.5011 55.6661 99.6829 56.838C99.7228 57.0954 99.8085 57.3407 99.8563 57.5927C99.9101 57.8764 99.9377 58.1495 100.034 58.4256C100.092 58.5946 100.192 58.7603 100.242 58.9302C100.3 59.1241 100.265 59.3037 100.223 59.5008C100.155 59.8223 100.071 60.1432 99.9509 60.4503C99.7709 60.9114 99.5526 61.3432 99.4157 61.8217C99.2336 62.4584 98.4716 64.5302 99.0285 65.0949H109.628C109.361 64.3937 108.56 63.5681 108.398 62.8175C108.302 62.3752 108.257 61.4095 108.247 61.3743C108.008 59.7881 107.541 59.0308 107.249 58.7558C106.957 58.481 106.568 58.3964 106.548 58.158C106.465 57.1718 106.872 56.2269 107.171 55.3065C107.527 54.2096 107.788 53.0855 108.154 51.9922C108.317 51.5081 109.154 49.0498 109.786 49.2545Z" fill="#A1C9AC"/>
<path fill-rule="evenodd" clip-rule="evenodd" d="M105.67 53.9322C105.584 52.263 105.67 51.6108 106.07 50.3892H105.823C105.434 50.874 105.108 52.3569 105.474 53.9322H105.67ZM100.84 53.8536C100.797 53.7523 100.753 53.6484 100.707 53.542L100.551 53.6145C101.045 55.3564 101.646 56.7011 103.711 57.8283L103.872 57.72C101.919 56.3973 101.5 55.4102 100.84 53.8536ZM103.768 51.7703C103.788 51.9213 103.808 52.0685 103.828 52.2121C104.124 54.4189 104.313 55.8183 105.967 58.3562L105.78 58.4114C103.966 56.0578 103.678 54.1368 103.593 51.7838L103.768 51.7703ZM101.982 58.9231L101.821 59.1109C102.625 59.2729 103.171 59.8422 103.797 60.495C104.46 61.1855 105.212 61.9693 106.453 62.4627L106.684 62.3282C105.329 61.6497 104.699 60.9752 104.149 60.3866C103.579 59.777 103.095 59.259 101.982 58.9231Z" fill="black" fill-opacity="0.2"/>
<path fill-rule="evenodd" clip-rule="evenodd" d="M92.924 92.5312H110.527L112.833 119.748H86.63L92.924 92.5312Z" fill="#C5CFD6"/>
<path fill-rule="evenodd" clip-rule="evenodd" d="M92.9241 92.5312H98.338L101.578 119.748H86.63L92.9241 92.5312Z" fill="black" fill-opacity="0.1"/>
<path fill-rule="evenodd" clip-rule="evenodd" d="M120.198 97.9236C118.22 101.965 115.13 111.775 115.13 111.775L117.754 112.93C117.754 112.93 124.412 102.617 128.481 95.5683C128.291 97.1552 128.098 98.9418 127.919 100.82C127.495 105.269 127.919 114.882 128.147 117.658C128.29 119.403 130.752 119.038 130.982 117.654C131.021 117.419 131.179 116.596 131.416 115.368C132.577 109.347 135.614 93.5889 135.619 89.7302C135.621 88.1778 132.472 86.7829 130.596 87.8685C129.306 86.5434 126.867 85.7798 125.465 87.9686C124.574 89.3602 122.457 93.3106 120.198 97.9236Z" fill="#B28B67"/>
<path fill-rule="evenodd" clip-rule="evenodd" d="M115.317 108.142L124.324 87.5895C126.481 84.2463 132.531 88.27 131.795 90.2092C130.125 94.6115 121.629 108.864 121.131 110.176L115.317 108.142Z" fill="#0066AE"/>
<path fill-rule="evenodd" clip-rule="evenodd" d="M115.491 110.57C115.333 110.363 115.028 110.314 114.823 110.479C114.451 110.781 113.915 111.246 113.722 111.568C113.414 112.082 113 113.168 113 113.168C113.619 113.512 124.13 119.358 124.13 119.358C124.13 119.358 125.392 118.217 124.523 117.588C123.654 116.957 123.09 116.525 123.09 116.525L119.248 111.426C119.172 111.326 119.026 111.306 118.925 111.381L118.126 111.973C118.126 111.973 117.028 111.881 116.487 111.58C116.157 111.397 115.755 110.917 115.491 110.57Z" fill="#E4E4E4"/>
<path fill-rule="evenodd" clip-rule="evenodd" d="M128.202 116.298C127.958 116.195 127.668 116.3 127.577 116.541C127.411 116.982 127.188 117.643 127.188 118.015C127.188 118.609 127.394 119.748 127.394 119.748C128.109 119.748 140.245 119.748 140.245 119.748C140.245 119.748 140.746 118.153 139.667 118.025C138.588 117.898 137.874 117.796 137.874 117.796L131.9 115.231C131.783 115.18 131.646 115.233 131.597 115.347L131.213 116.245C131.213 116.245 130.214 116.694 129.589 116.694C129.209 116.694 128.611 116.472 128.202 116.298Z" fill="#E4E4E4"/>
<path fill-rule="evenodd" clip-rule="evenodd" d="M136.25 91.3092C136.25 97.1405 133.375 110.742 133.374 112.026L127.188 112.031C127.188 112.031 128.546 93.8257 128.151 93.6295C127.756 93.4335 111.962 95.1486 107.225 95.1486C100.394 95.1486 97.5683 90.9991 97.339 83.3125H110.871C113.626 83.5965 127.997 86.3887 133.334 87.3485C135.619 87.7596 136.25 89.703 136.25 91.3092Z" fill="#003A70"/>
<path fill-rule="evenodd" clip-rule="evenodd" d="M86.7206 93.1696C87.3882 91.8647 90.7245 75.0708 90.7245 75.0708L95.7139 75.0888C95.7139 75.0888 90.0138 92.8788 89.6622 93.7179C89.2056 94.8079 89.9812 96.3915 90.5071 97.4655C90.5885 97.6317 90.6639 97.7855 90.7279 97.9236C89.9981 98.2381 89.6476 97.858 89.2781 97.4572C88.8606 97.0043 88.4188 96.5254 87.3791 96.9914C86.9774 97.1714 86.5973 97.3841 86.2259 97.5922C84.9431 98.3103 83.7646 98.9703 82.1614 98.0173C81.9073 97.8663 81.6287 97.2976 82.3018 96.8531C83.9781 95.7458 86.3941 93.8077 86.7206 93.1696ZM128.743 86.6259L122.288 80.5603L120.144 84.1336L126.856 87.9457C128.539 90.4995 129.528 91.6029 129.821 91.2561C130.069 90.9635 129.956 90.6428 129.851 90.3476C129.77 90.1176 129.694 89.9029 129.798 89.7287C130.037 89.3312 131.384 89.5588 132.653 89.8276C133.923 90.0963 133.629 89.4958 133.359 89.1823C132.16 88.2497 130.621 87.3977 128.743 86.6259Z" fill="#B28B67"/>
<path fill-rule="evenodd" clip-rule="evenodd" d="M105.928 61.4363L107.899 61.1108C111.002 71.6798 126.95 78.8839 127.929 82.8348C128.288 84.2839 127.205 85.0163 127.764 85.4575L125.203 87.2635C124.77 86.776 123.844 87.6675 121.911 87.044C119.979 86.4204 105.928 73.9509 105.928 61.4363Z" fill="#FBF5E5"/>
<path fill-rule="evenodd" clip-rule="evenodd" d="M102.424 59.2297C101.922 59.1959 101.487 59.5605 101.451 60.0442L101.358 61.33C97.6499 64.0787 88.4597 72.2925 86.0647 87.5832C85.8132 89.1894 86.2682 90.0496 86.6316 90.737C86.8802 91.2072 87.0862 91.5966 86.9939 92.0884L90.3455 92.9796C90.3455 92.6165 90.7679 92.3402 91.313 91.9837C92.1055 91.4655 93.157 90.7779 93.5457 89.4071C93.9144 88.108 94.454 86.4851 95.0988 84.6797C95.1597 87.0707 95.6304 89.2695 96.6558 91.0909C99.2139 95.6345 113.998 90.6514 115.542 86.0162C116.367 83.5428 115.197 81.4662 113.65 78.7197C111.687 75.2335 109.116 70.6681 109.243 62.8414L109.407 60.5802C109.442 60.0965 109.063 59.6768 108.561 59.643L102.424 59.2297Z" fill="#FFEFC6"/>
</g>
</g>
<defs>
<filter id="filter0_f_619_1741" x="71" y="-99" width="358" height="261" filterUnits="userSpaceOnUse" color-interpolation-filters="sRGB">
<feFlood flood-opacity="0" result="BackgroundImageFix"/>
<feBlend mode="normal" in="SourceGraphic" in2="BackgroundImageFix" result="shape"/>
<feGaussianBlur stdDeviation="25" result="effect1_foregroundBlur_619_1741"/>
</filter>
<filter id="filter1_f_619_1741" x="-58" y="-7" width="317" height="308" filterUnits="userSpaceOnUse" color-interpolation-filters="sRGB">
<feFlood flood-opacity="0" result="BackgroundImageFix"/>
<feBlend mode="normal" in="SourceGraphic" in2="BackgroundImageFix" result="shape"/>
<feGaussianBlur stdDeviation="15" result="effect1_foregroundBlur_619_1741"/>
</filter>
<linearGradient id="paint0_linear_619_1741" x1="44" y1="-44" x2="98.2474" y2="64.8063" gradientUnits="userSpaceOnUse">
<stop stop-color="#D9D9D9" stop-opacity="0"/>
<stop offset="1" stop-color="white"/>
</linearGradient>
<clipPath id="clip0_619_1741">
<rect width="262" height="163" fill="white"/>
</clipPath>
</defs>
</svg>
