<svg width="262" height="163" viewBox="0 0 262 163" fill="none" xmlns="http://www.w3.org/2000/svg">
<g clip-path="url(#clip0_619_1850)">
<rect width="262" height="163" rx="10" fill="#88C462"/>
<g filter="url(#filter0_f_619_1850)">
<path fill-rule="evenodd" clip-rule="evenodd" d="M253.79 -48.2809C289.235 -48.2209 328.916 -52.6909 354.703 -38.5751C380.841 -24.2667 377.797 -0.852482 378.52 19.9977C379.264 41.4905 381.887 64.1447 358.844 80.9743C333.582 99.4242 293.457 116.122 253.79 111.094C215.847 106.284 211.214 76.4547 186.396 59.1155C165.968 44.8437 129.731 38.185 123.403 19.9977C116.164 -0.80827 125.135 -24.6993 152.287 -38.9179C178.73 -52.7651 218.176 -48.3412 253.79 -48.2809Z" fill="white" fill-opacity="0.25"/>
</g>
<g filter="url(#filter1_f_619_1850)">
<path fill-rule="evenodd" clip-rule="evenodd" d="M127.972 23.7479C156.599 19.4753 189.029 34.0712 205.483 53.2151C221.956 72.3816 207.528 98.5626 212.001 121.516C214.633 135.019 224.245 146.599 226.326 160.163C228.627 175.154 231.622 190.601 224.764 204.681C217.447 219.702 204.62 233.712 186.792 241.322C169.123 248.863 147.346 241.896 127.972 245.994C99.8139 251.949 76.735 273.771 47.8563 270.707C18.288 267.568 -11.4082 251.569 -23.6549 229.901C-35.9076 208.223 -18.7861 183.705 -14.6231 160.163C-11.0451 139.93 -16.1359 117.322 -0.845663 100.916C14.2112 84.7608 45.4063 86.1873 65.5937 74.0941C89.6609 59.6766 98.3745 28.1654 127.972 23.7479Z" fill="white" fill-opacity="0.3"/>
</g>
<ellipse cx="44" cy="22.5" rx="72" ry="66.5" fill="url(#paint0_linear_619_1850)" fill-opacity="0.2"/>
<path d="M165.963 83.76L165.837 81.142L170.527 76.2H173.047L168.819 80.75L167.559 82.094L165.963 83.76ZM163.933 86V76.2H166.187V86H163.933ZM170.639 86L167.153 81.73L168.637 80.12L173.285 86H170.639ZM176.383 80.148H181.101V81.912H176.383V80.148ZM176.551 84.18H181.885V86H174.297V76.2H181.703V78.02H176.551V84.18ZM183.689 86V76.2H185.957V84.152H190.871V86H183.689ZM196.383 86.168C194.993 86.168 193.905 85.7807 193.121 85.006C192.337 84.2313 191.945 83.1253 191.945 81.688V76.2H194.213V81.604C194.213 82.5373 194.405 83.2093 194.787 83.62C195.17 84.0307 195.707 84.236 196.397 84.236C197.088 84.236 197.625 84.0307 198.007 83.62C198.39 83.2093 198.581 82.5373 198.581 81.604V76.2H200.821V81.688C200.821 83.1253 200.429 84.2313 199.645 85.006C198.861 85.7807 197.774 86.168 196.383 86.168ZM201.569 86L205.937 76.2H208.177L212.559 86H210.179L206.595 77.348H207.491L203.893 86H201.569ZM203.753 83.9L204.355 82.178H209.395L210.011 83.9H203.753ZM213.576 86V76.2H217.818C218.695 76.2 219.451 76.3447 220.086 76.634C220.721 76.914 221.211 77.32 221.556 77.852C221.901 78.384 222.074 79.0187 222.074 79.756C222.074 80.484 221.901 81.114 221.556 81.646C221.211 82.1687 220.721 82.57 220.086 82.85C219.451 83.13 218.695 83.27 217.818 83.27H214.836L215.844 82.276V86H213.576ZM219.806 86L217.356 82.444H219.778L222.256 86H219.806ZM215.844 82.528L214.836 81.464H217.692C218.392 81.464 218.915 81.3147 219.26 81.016C219.605 80.708 219.778 80.288 219.778 79.756C219.778 79.2147 219.605 78.7947 219.26 78.496C218.915 78.1973 218.392 78.048 217.692 78.048H214.836L215.844 76.97V82.528ZM228.603 86.168C227.828 86.168 227.114 86.0467 226.461 85.804C225.817 85.552 225.252 85.1973 224.767 84.74C224.291 84.2827 223.918 83.746 223.647 83.13C223.386 82.514 223.255 81.8373 223.255 81.1C223.255 80.3627 223.386 79.686 223.647 79.07C223.918 78.454 224.296 77.9173 224.781 77.46C225.266 77.0027 225.836 76.6527 226.489 76.41C227.142 76.158 227.861 76.032 228.645 76.032C229.513 76.032 230.292 76.1767 230.983 76.466C231.683 76.7553 232.271 77.1753 232.747 77.726L231.291 79.07C230.936 78.6967 230.549 78.4213 230.129 78.244C229.709 78.0573 229.252 77.964 228.757 77.964C228.281 77.964 227.847 78.0387 227.455 78.188C227.063 78.3373 226.722 78.552 226.433 78.832C226.153 79.112 225.934 79.4433 225.775 79.826C225.626 80.2087 225.551 80.6333 225.551 81.1C225.551 81.5573 225.626 81.9773 225.775 82.36C225.934 82.7427 226.153 83.0787 226.433 83.368C226.722 83.648 227.058 83.8627 227.441 84.012C227.833 84.1613 228.262 84.236 228.729 84.236C229.177 84.236 229.611 84.166 230.031 84.026C230.46 83.8767 230.876 83.6293 231.277 83.284L232.565 84.922C232.033 85.3233 231.412 85.6313 230.703 85.846C230.003 86.0607 229.303 86.168 228.603 86.168ZM230.493 84.628V80.946H232.565V84.922L230.493 84.628ZM233.384 86L237.752 76.2H239.992L244.374 86H241.994L238.41 77.348H239.306L235.708 86H233.384ZM235.568 83.9L236.17 82.178H241.21L241.826 83.9H235.568Z" fill="black"/>
<g clip-path="url(#clip1_619_1850)">
<ellipse cx="110.5" cy="119" rx="91.5" ry="93" fill="#D9D9D9" fill-opacity="0.05"/>
<path fill-rule="evenodd" clip-rule="evenodd" d="M85.5716 85.9727C80.7212 81.1296 77.4383 75.1942 77.9869 68.5435C79.5675 49.381 110.926 53.5965 117.025 63.2681C123.125 72.9397 122.4 97.4725 114.517 99.2011C111.373 99.8905 104.676 98.2018 97.8591 94.7068L102.138 120.455H76.8745L85.5716 85.9727Z" fill="#B28B67"/>
<path fill-rule="evenodd" clip-rule="evenodd" d="M99.1222 70.6599C100.089 82.1189 102.647 87.8483 106.796 87.8483C113.02 87.8483 118.301 84.4872 121.032 84.4872C123.023 84.4872 122.578 86.6064 121.259 88.1777C120.17 89.474 114.868 90.7235 114.868 92.7332C114.868 94.7429 119.057 93.1881 119.057 94.38C119.057 96.3517 119.793 100.059 115.77 100.059C111.699 100.059 100.027 98.7966 98.0265 93.6568C96.7355 90.3396 95.9008 83.466 95.5224 73.0358C95.2754 73.0108 95.0241 72.998 94.7692 72.998C91.2811 72.998 88.4535 75.4033 88.4535 78.3705C88.4535 79.8768 89.1822 81.2383 90.3561 82.2139C88.8947 83.9686 87.2569 85.8016 85.3802 87.693C78.3297 84.0947 73.0978 73.5612 79.9908 63.4422C81.8961 58.4851 86.2093 55.8373 91.3033 54.6079C95.4297 53.1396 99.7133 52.974 103.329 53.8543C110.418 54.3715 116.747 56.2101 118.541 57.302C118.541 63.0105 117.241 64.7042 106.134 64.555C103.405 65.781 101.307 67.8921 99.1222 70.6599Z" fill="#22292C"/>
<path fill-rule="evenodd" clip-rule="evenodd" d="M62.3432 68.2746C58.7445 64.043 56.3088 58.8572 56.7158 53.0463C57.8885 36.3035 81.1541 39.9867 85.6798 48.437C90.2054 56.8873 89.6676 78.3223 83.8187 79.8326C81.4861 80.4349 76.517 78.9595 71.4597 75.9058L74.6341 98.403H55.8905L62.3432 68.2746Z" fill="#B28B67"/>
<path fill-rule="evenodd" clip-rule="evenodd" d="M87.4492 52.2313C87.2636 51.1359 86.8098 49.9196 86.4437 48.8833C85.9717 47.5474 85.2573 46.3429 84.4712 45.2077C82.9912 43.0704 81.2158 41.1405 79.2556 39.5386C75.6749 36.6128 71.117 34.9251 66.6348 35.4732C64.3717 35.7499 62.1748 36.6146 60.305 38.054C58.6156 39.3544 56.9906 41.2688 54.8031 41.4064C52.4229 41.5559 50.241 39.4513 48.3321 38.1515C46.1797 36.6862 43.8901 35.6185 41.3745 35.2034C37.1604 34.5083 33.2015 35.9346 30.2972 39.3982C27.2067 43.0839 24.9601 48.489 26.9897 53.3726C27.3669 54.2804 27.8523 55.0457 28.5488 55.68C29.1876 56.2617 30.1633 56.8805 30.4223 57.8099C30.6974 58.7978 29.8756 60.0723 29.5569 60.9637C29.1003 62.2408 28.7255 63.5814 28.8588 64.9696C29.0777 67.2493 30.5078 69.4256 32.018 70.924C33.5547 72.4488 35.4461 73.3231 37.4662 73.7262C38.8152 73.9953 40.1937 74.1437 41.5647 74.0427C42.2452 73.9926 42.8458 73.8032 43.5052 73.6526C44.1464 73.5061 44.5048 73.6767 45.0488 74.029C47.5761 75.6657 50.2935 76.299 53.2117 76.0556C55.6746 75.8501 58.5133 75.2521 60.5225 73.5617C62.7537 71.6842 62.7093 69.0953 62.1843 66.3292C62.7405 66.6054 64.2795 66.7764 63.3599 65.6756C62.9955 65.2396 62.3072 65.0622 61.8398 64.8058C61.2955 64.5072 60.7429 64.1214 60.3202 63.6343C58.6137 61.6678 60.3373 57.6658 62.4822 57.0063C65.669 56.0266 66.3825 60.5413 68.6575 61.7092C69.9655 62.3807 71.3337 61.4629 72.3137 60.5257C73.6265 59.2703 74.5211 57.6072 75.2936 55.9147C75.9298 54.521 76.5219 53.1076 77.1704 51.7208C77.4732 51.0731 78.5216 49.2423 77.9951 48.5101C80.2777 48.0541 82.82 49.0043 84.7858 50.2504C85.5983 50.7655 86.2177 51.3335 86.6511 52.2429C86.744 52.4377 86.9461 53.017 87.1999 53.0407C87.6724 53.0849 87.4958 52.5065 87.4492 52.2313Z" fill="#22292C"/>
<path fill-rule="evenodd" clip-rule="evenodd" d="M89.7705 120.422C86.7538 116.875 84.712 112.528 85.0532 107.657C86.0362 93.6218 105.539 96.7093 109.333 103.793C113.127 110.877 112.676 128.845 107.773 130.111C105.818 130.616 101.652 129.379 97.4126 126.82L100.074 145.678H84.3613L89.7705 120.422Z" fill="#B28B67"/>
<path fill-rule="evenodd" clip-rule="evenodd" d="M95.2085 119.435C93.2601 123.182 90.5653 126.003 87.8732 126.003C82.7597 126.003 79.1238 119.155 79.1238 111.791C79.1238 111.532 79.1289 111.275 79.139 111.02C73.7299 114.739 69.5611 122.068 62.4038 122.068C52.6664 122.068 48.7993 102.393 62.4038 102.393C71.6559 102.393 76.207 103.745 80.1291 105.743C80.9026 103.558 82.0822 101.722 83.5246 100.439C83.8716 100.048 84.4036 99.6732 85.0899 99.3262C85.5095 99.0962 85.9437 98.9089 86.3899 98.7679C88.7553 97.8972 92.1814 97.283 96.0084 97.1491C96.723 97.1241 97.4249 97.1168 98.1096 97.126C98.1207 93.5135 101.048 90.5884 104.656 90.5884C108.272 90.5884 111.203 93.5246 111.203 97.1467C111.203 100.65 108.462 103.511 105.011 103.696C103.037 104.306 100.501 104.754 97.6881 104.943C97.9611 105.971 98.1096 107.14 98.1096 108.461C98.1096 109.627 97.9811 110.864 97.7445 112.12C97.1344 111.393 96.3187 110.919 95.4908 110.919C93.1749 110.919 91.5627 112.828 91.5627 114.854C91.5627 117.426 93.0449 119.287 95.2085 119.435Z" fill="#22292C"/>
<path fill-rule="evenodd" clip-rule="evenodd" d="M49.2961 109.554C45.6342 105.248 43.1558 99.9709 43.5699 94.0579C44.7632 77.021 68.4375 80.7689 73.0426 89.3677C77.6478 97.9665 77.1006 119.778 71.1488 121.315C68.7753 121.928 63.7189 120.426 58.5728 117.319L61.8029 140.211H42.7301L49.2961 109.554Z" fill="#B28B67"/>
<path fill-rule="evenodd" clip-rule="evenodd" d="M47.8306 113.389C45.4367 102.72 38.6171 95.4478 39.6586 90.6794C40.353 87.5005 42.2036 85.5236 45.2106 84.7488C46.7657 78.4464 51.7814 75.7657 60.2577 76.7068C72.9721 78.1185 80.7322 83.4079 77.381 95.047C74.3004 95.047 70.5815 93.9309 65.4391 95.8431C63.8074 96.4498 62.6404 98.3313 61.938 101.488H59.6141C57.3587 97.7419 55.1349 96.3655 52.9426 97.3583C50.7503 98.3511 50.252 100.763 51.4476 104.593L50.3028 113.389H47.8306Z" fill="#22292C"/>
</g>
</g>
<defs>
<filter id="filter0_f_619_1850" x="71" y="-99" width="358" height="261" filterUnits="userSpaceOnUse" color-interpolation-filters="sRGB">
<feFlood flood-opacity="0" result="BackgroundImageFix"/>
<feBlend mode="normal" in="SourceGraphic" in2="BackgroundImageFix" result="shape"/>
<feGaussianBlur stdDeviation="25" result="effect1_foregroundBlur_619_1850"/>
</filter>
<filter id="filter1_f_619_1850" x="-58" y="-7" width="317" height="308" filterUnits="userSpaceOnUse" color-interpolation-filters="sRGB">
<feFlood flood-opacity="0" result="BackgroundImageFix"/>
<feBlend mode="normal" in="SourceGraphic" in2="BackgroundImageFix" result="shape"/>
<feGaussianBlur stdDeviation="15" result="effect1_foregroundBlur_619_1850"/>
</filter>
<linearGradient id="paint0_linear_619_1850" x1="44" y1="-44" x2="98.2474" y2="64.8063" gradientUnits="userSpaceOnUse">
<stop stop-color="#D9D9D9" stop-opacity="0"/>
<stop offset="1" stop-color="white"/>
</linearGradient>
<clipPath id="clip0_619_1850">
<rect width="262" height="163" fill="white"/>
</clipPath>
<clipPath id="clip1_619_1850">
<rect width="110" height="112" fill="white" transform="translate(19 26)"/>
</clipPath>
</defs>
</svg>
