<svg width="262" height="163" viewBox="0 0 262 163" fill="none" xmlns="http://www.w3.org/2000/svg">
<g clip-path="url(#clip0_619_1712)">
<rect width="262" height="163" rx="10" fill="#84C15B"/>
<g filter="url(#filter0_f_619_1712)">
<path fill-rule="evenodd" clip-rule="evenodd" d="M253.79 -48.2809C289.235 -48.2209 328.916 -52.6909 354.703 -38.5751C380.841 -24.2667 377.797 -0.852482 378.52 19.9977C379.264 41.4905 381.887 64.1447 358.844 80.9743C333.582 99.4242 293.457 116.122 253.79 111.094C215.847 106.284 211.214 76.4547 186.396 59.1155C165.968 44.8437 129.731 38.185 123.403 19.9977C116.164 -0.80827 125.135 -24.6993 152.287 -38.9179C178.73 -52.7651 218.176 -48.3412 253.79 -48.2809Z" fill="white" fill-opacity="0.25"/>
</g>
<g filter="url(#filter1_f_619_1712)">
<path fill-rule="evenodd" clip-rule="evenodd" d="M127.972 23.7479C156.599 19.4753 189.029 34.0712 205.483 53.2151C221.956 72.3816 207.528 98.5626 212.001 121.516C214.633 135.019 224.245 146.599 226.326 160.163C228.627 175.154 231.622 190.601 224.764 204.681C217.447 219.702 204.62 233.712 186.792 241.322C169.123 248.863 147.346 241.896 127.972 245.994C99.8139 251.949 76.735 273.771 47.8563 270.707C18.288 267.568 -11.4082 251.569 -23.6549 229.901C-35.9076 208.223 -18.7861 183.705 -14.6231 160.163C-11.0451 139.93 -16.1359 117.322 -0.845663 100.916C14.2112 84.7608 45.4063 86.1873 65.5937 74.0941C89.6609 59.6766 98.3745 28.1654 127.972 23.7479Z" fill="white" fill-opacity="0.3"/>
</g>
<ellipse cx="44" cy="22.5" rx="72" ry="66.5" fill="url(#paint0_linear_619_1712)" fill-opacity="0.2"/>
<path d="M85.4451 78.8021C85.4451 78.8021 64.7079 57.9232 59.3537 62.8727C53.9998 67.8222 47.0752 72.1059 47.3728 78.8021C47.6702 85.4985 51.2397 118.397 50.0497 121.309C48.8597 124.22 45.2907 125.676 41.1263 125.967C36.9623 126.258 32.5008 128.878 32.2031 130.625C31.9055 132.372 39.0447 132.76 40.6308 132.372C42.2171 131.984 49.3557 131.208 51.9336 131.596C54.5115 131.984 60.1131 132.178 60.9806 129.849C61.8483 127.52 61.3028 124.414 60.9806 120.532C60.6586 116.65 62.4433 104.422 63.2365 96.4646C64.0297 88.5068 67.0041 80.1605 67.0041 80.1605L85.4451 78.8021Z" fill="#EB996E"/>
<path d="M85.4451 78.8021C85.4451 78.8021 64.7079 57.9232 59.3537 62.8727C53.9998 67.8222 47.0752 72.1059 47.3728 78.8021C47.6702 85.4985 51.2397 118.397 50.0497 121.309C48.8597 124.22 45.2907 125.676 41.1263 125.967C36.9623 126.258 32.5008 128.878 32.2031 130.625C31.9055 132.372 39.0447 132.76 40.6308 132.372C42.2171 131.984 49.3557 131.208 51.9336 131.596C54.5115 131.984 60.1131 132.178 60.9806 129.849C61.8483 127.52 61.3028 124.414 60.9806 120.532C60.6586 116.65 62.4433 104.422 63.2365 96.4646C64.0297 88.5068 67.0041 80.1605 67.0041 80.1605L85.4451 78.8021Z" fill="url(#paint1_linear_619_1712)"/>
<path d="M59.2231 52.2001C59.2231 52.2001 55.7087 63.049 62.7374 69.135C69.766 75.2209 72.4694 78.1316 75.9837 72.5749C79.498 67.0181 84.6343 65.9597 88.6893 66.7535C92.7443 67.5473 98.6916 61.726 99.5026 57.2277C100.314 52.7294 89.5003 50.3479 84.9046 45.3204C80.309 40.2928 64.9 38.4406 59.2231 52.2001Z" fill="#F8AC4C"/>
<path d="M59.2231 52.2001C59.2231 52.2001 55.7087 63.049 62.7374 69.135C69.766 75.2209 72.4694 78.1316 75.9837 72.5749C79.498 67.0181 84.6343 65.9597 88.6893 66.7535C92.7443 67.5473 98.6916 61.726 99.5026 57.2277C100.314 52.7294 89.5003 50.3479 84.9046 45.3204C80.309 40.2928 64.9 38.4406 59.2231 52.2001Z" fill="url(#paint2_linear_619_1712)"/>
<path d="M82.1731 88.7011C82.1731 88.7011 55.4037 62.4987 50.0498 67.4479C44.6956 72.3974 43.8035 82.005 44.1008 88.7011C44.3985 95.3975 47.9677 128.296 46.7777 131.208C45.5882 134.119 42.0187 135.575 37.8545 135.866C33.6903 136.157 29.2288 138.777 28.9311 140.524C28.6338 142.271 35.7727 142.66 37.359 142.271C38.9451 141.883 46.084 141.107 48.6619 141.495C51.2398 141.883 56.8411 142.077 57.7088 139.748C58.5763 137.419 58.0308 134.313 57.7088 130.431C57.3869 126.549 61.7495 115.68 62.5427 107.722C63.3356 99.7644 63.7319 90.0599 63.7319 90.0599L82.1731 88.7011Z" fill="#DABA66"/>
<path d="M82.1742 88.7001L70.1903 89.5839L63.7318 90.0605C63.7318 90.0605 63.3344 99.7636 62.5426 107.723C61.7503 115.68 57.3874 126.55 57.7091 130.432C58.0305 134.313 58.5768 137.42 57.7091 139.748C57.4006 140.579 56.4896 141.087 55.3299 141.384C53.2321 141.916 50.3209 141.746 48.6608 141.495C46.0848 141.106 38.9453 141.884 37.3582 142.273C35.7713 142.659 28.6343 142.27 28.9319 140.524C29.2293 138.777 33.6898 136.158 37.8556 135.867C42.0187 135.575 45.5871 134.12 46.7765 131.207C47.9687 128.296 44.3976 95.3976 44.1002 88.7001C43.8029 82.0058 44.695 72.398 50.0505 67.4472C55.4031 62.499 82.1742 88.7001 82.1742 88.7001Z" fill="url(#paint3_linear_619_1712)"/>
<path d="M70.1903 89.5836L63.7317 90.0601C63.7317 90.0601 63.3344 99.7633 62.5425 107.723C61.7502 115.679 57.3873 126.549 57.709 130.431C58.0304 134.313 58.5768 137.419 57.709 139.748C57.4005 140.579 56.4895 141.087 55.3298 141.383C57.5765 138.068 54.1865 129.172 55.549 125.144C57.098 120.556 56.5195 90.039 56.5195 90.039C60.8449 85.2761 69.5009 87.0248 70.0362 88.9911C70.0767 89.1417 70.1281 89.3402 70.1903 89.5836Z" fill="url(#paint4_linear_619_1712)"/>
<path d="M132.483 97.7998C132.483 110.501 127.257 130.082 124.014 133.434C120.77 136.787 110.497 140.137 104.55 140.492C98.6022 140.843 84.9045 142.608 79.8574 140.492C74.813 138.375 77.6947 141.725 68.325 139.256C61.5532 137.472 61.7451 130.81 62.3723 125.851C62.6129 123.946 62.9184 122.292 62.9184 121.263C62.9184 117.558 60.0339 115.441 56.3793 112.089C55.0706 110.89 54.384 109.554 54.049 108.019C53.4435 105.264 53.9706 101.864 54.0869 97.4479C54.2572 90.9277 55.0763 84.7229 53.4732 82.143C53.3867 82.0001 53.2891 81.8678 53.1864 81.7487C51.4617 79.7536 49.4666 74.562 48.8584 70.1325C48.7635 69.4657 48.7043 68.8147 48.6799 68.1956C48.4988 63.4617 53.3648 62.1678 59.3527 62.8717C65.343 63.5782 68.8654 69.7515 70.6661 73.4559C72.4692 77.1604 81.301 89.5097 78.9464 85.9269C76.5891 82.3415 75.9835 72.5748 76.4431 71.8895C76.9027 71.2041 78.5976 67.8119 83.5528 60.9321C88.508 54.0523 93.6119 51.1284 98.4211 49.8186C98.4211 49.8186 105.09 49.1121 117.074 60.9321C129.058 72.7521 132.483 85.0987 132.483 97.7998Z" fill="white"/>
<path d="M132.483 97.7998C132.483 110.501 127.257 130.082 124.014 133.434C120.77 136.787 110.497 140.137 104.55 140.492C98.6022 140.843 84.9045 142.608 79.8574 140.492C74.813 138.375 77.6947 141.725 68.325 139.256C61.5532 137.472 61.7451 130.81 62.3723 125.851C62.6129 123.946 62.9184 122.292 62.9184 121.263C62.9184 117.558 60.0339 115.441 56.3793 112.089C55.0706 110.89 54.384 109.554 54.049 108.019C53.4435 105.264 53.9706 101.864 54.0869 97.4479C54.2572 90.9277 55.0763 84.7229 53.4732 82.143C53.3867 82.0001 53.2891 81.8678 53.1864 81.7487C51.4617 79.7536 49.4666 74.562 48.8584 70.1325C48.7635 69.4657 48.7043 68.8147 48.6799 68.1956C48.4988 63.4617 53.3648 62.1678 59.3527 62.8717C65.343 63.5782 68.8654 69.7515 70.6661 73.4559C72.4692 77.1604 81.301 89.5097 78.9464 85.9269C76.5891 82.3415 75.9835 72.5748 76.4431 71.8895C76.9027 71.2041 78.5976 67.8119 83.5528 60.9321C88.508 54.0523 93.6119 51.1284 98.4211 49.8186C98.4211 49.8186 105.09 49.1121 117.074 60.9321C129.058 72.7521 132.483 85.0987 132.483 97.7998Z" fill="url(#paint5_linear_619_1712)"/>
<path d="M132.483 97.7998C132.483 110.501 127.257 130.082 124.014 133.434C122.762 134.728 120.464 136.022 117.772 137.142C113.487 138.925 108.202 140.275 104.55 140.492C98.6022 140.843 84.9045 142.608 79.8574 140.492C74.813 138.375 77.6947 141.725 68.325 139.256C61.5532 137.472 61.7451 130.81 62.3723 125.851C62.6129 123.946 62.9184 122.292 62.9184 121.263C62.9184 117.558 60.0339 115.441 56.3793 112.089C55.0706 110.89 54.384 109.554 54.049 108.019C53.4435 105.264 53.9706 101.864 54.0869 97.4479C54.2572 90.9277 55.0763 84.7229 53.4732 82.143C53.3867 82.0001 53.2891 81.8678 53.1864 81.7487C51.4617 79.7536 49.4666 74.562 48.8584 70.1325C48.7635 69.4657 48.7043 68.8147 48.6799 68.1956C48.4988 63.4617 53.3648 62.1678 59.3527 62.8717C65.343 63.5782 68.8654 69.7514 70.6661 73.4559C72.4692 77.1604 81.301 89.5097 78.9464 85.9269C76.5891 82.3415 75.9835 72.5748 76.4431 71.8895C76.9027 71.2041 78.5976 67.8119 83.5528 60.9321C85.5506 58.1564 87.5754 56.0263 89.5921 54.3831C92.5765 51.9566 95.5529 50.5992 98.4211 49.8186C98.4211 49.8186 105.09 49.1121 117.074 60.9321C129.058 72.7521 132.483 85.0987 132.483 97.7998Z" fill="url(#paint6_linear_619_1712)"/>
<path d="M69.009 88.9914C62.3886 84.7338 57.2712 82.8472 53.473 82.1433C53.3865 82.0005 53.2889 81.8682 53.1862 81.7491C51.4615 79.7539 49.4664 74.5623 48.8582 70.1328C68.9468 74.5756 83.3961 98.2447 69.009 88.9914Z" fill="white"/>
<path d="M102.319 127.899C84.9964 132.387 70.4445 128.867 62.3723 125.851C62.6129 123.946 62.9184 122.292 62.9184 121.263C62.9184 117.558 60.034 115.441 56.3793 112.089C55.0707 110.89 54.384 109.554 54.0491 108.019C74.0804 121.218 102.319 127.899 102.319 127.899Z" fill="white"/>
<path d="M69.009 88.9914C62.3886 84.7338 57.2712 82.8472 53.473 82.1433C53.3865 82.0005 53.2889 81.8682 53.1862 81.7491C51.4615 79.7539 49.4664 74.5623 48.8582 70.1328C68.9468 74.5756 83.3961 98.2447 69.009 88.9914Z" fill="url(#paint7_linear_619_1712)"/>
<path d="M102.319 127.899C84.9964 132.387 70.4445 128.867 62.3723 125.851C62.6129 123.946 62.9184 122.292 62.9184 121.263C62.9184 117.558 60.034 115.441 56.3793 112.089C55.0707 110.89 54.384 109.554 54.0491 108.019C74.0804 121.218 102.319 127.899 102.319 127.899Z" fill="url(#paint8_linear_619_1712)"/>
<path d="M69.4958 85.4531C69.4958 85.4531 64.2692 92.5091 63.1878 94.626C62.1065 96.7428 60.1242 97.625 59.5835 97.4486C59.0428 97.2721 54.5153 92.3549 52.9944 91.4618C51.4735 90.5688 46.4721 86.864 45.5262 85.4531C44.5803 84.0422 44.586 82.9878 44.586 82.9878C44.586 82.9878 41.7416 86.3613 42.2822 90.229C42.8229 94.0968 43.2719 95.1944 45.6606 98.4382C48.0492 101.682 50.7815 105.502 52.9052 108.796C55.0289 112.09 57.7812 116.5 61.2055 116.5C64.6298 116.5 79.0477 100.405 82.2014 95.6633C85.3551 90.9215 69.4958 85.4531 69.4958 85.4531Z" fill="#DABA66"/>
<path d="M82.2012 95.6622C79.6466 99.5017 69.7011 110.792 64.1944 114.944C62.9025 115.918 61.8563 116.5 61.2045 116.5C57.7821 116.5 55.0274 112.089 52.9053 108.797C50.7805 105.503 48.0501 101.682 45.6604 98.4382C43.2707 95.1944 42.8219 94.096 42.2813 90.2301C42.1218 89.0814 42.2596 87.9754 42.5351 86.9913C43.1815 84.6545 44.5872 82.9878 44.5872 82.9878C44.5872 83.0222 44.595 84.0674 45.5252 85.4539C46.4714 86.8643 51.4726 90.5688 52.9945 91.4632C53.819 91.9474 55.5275 93.6144 57.0036 95.0671C58.0389 96.0832 58.9608 96.9961 59.3852 97.3242C59.3882 97.3295 59.3933 97.3319 59.396 97.3319C59.4801 97.3954 59.542 97.4353 59.5825 97.4483C60.1232 97.6256 62.1074 96.7418 63.1888 94.625C64.2701 92.5081 69.4956 85.4537 69.4956 85.4537C69.4956 85.4537 71.2717 86.0652 73.5155 87.0574C77.9786 89.0309 84.3017 92.5054 82.2012 95.6622Z" fill="url(#paint9_linear_619_1712)"/>
<path d="M97.1587 83.3368C94.6365 86.864 97.5209 94.273 92.1143 97.4483C87.8701 99.9409 83.1825 97.3266 79.0978 94.0402C77.9786 93.1379 76.903 92.185 75.8943 91.275C71.2068 87.0413 69.2252 88.4517 68.3061 84.7472C67.3872 81.0427 71.569 76.6317 73.5481 75.171C75.5267 73.7104 81.4797 62.8721 81.4797 62.8721C84.4669 61.1363 88.0325 62.5228 91.2279 64.9255C94.204 67.1614 96.8559 70.2785 98.4212 72.5752C101.665 77.3382 99.6836 79.807 97.1587 83.3368Z" fill="white"/>
<path d="M129.21 67.138C126.145 76.7167 111.547 75.0259 105.059 75.3778C98.5709 75.7297 95.1485 81.0219 90.1014 80.4927C85.0543 79.9635 84.4244 78.0239 77.1741 74.322C70.0944 70.7101 66.6555 55.1407 66.4989 54.413C67.0315 57.4057 66.4825 61.0943 63.7875 63.2059C61.0842 65.3228 53.3364 66.7331 49.5464 57.2072C48.5462 54.6908 48.5029 52.0024 49.0436 49.3193C50.552 41.8389 56.6129 34.3822 59.2162 30.7466C59.9596 29.7093 60.8895 28.9181 61.8925 28.3228C65.6525 26.0736 70.4566 26.5128 70.4566 26.5128C78.3017 23.9541 88.2499 31.5457 93.4592 36.5679C94.3543 37.4305 95.1082 38.2164 95.6895 38.8621C99.6525 43.273 107.043 46.271 116.954 48.9171C121.155 50.039 124.55 51.7643 126.832 54.1087C129.93 57.2919 130.976 61.6209 129.21 67.138Z" fill="#31312F"/>
<path d="M85.298 97.8229C85.298 97.8229 98.3705 128.235 121.464 135.333C121.464 135.333 118.714 136.809 117.074 137.423C115.434 138.037 98.6038 131.847 88.5101 114.03C88.5101 114.03 82.7758 104.161 82.8491 96.6594C82.8488 96.6594 84.4413 95.9833 85.298 97.8229Z" fill="#565A8B"/>
<path d="M85.298 97.8229C85.298 97.8229 98.3705 128.235 121.464 135.333C121.464 135.333 118.714 136.809 117.074 137.423C115.434 138.037 98.6038 131.847 88.5101 114.03C88.5101 114.03 82.7758 104.161 82.8491 96.6594C82.8488 96.6594 84.4413 95.9833 85.298 97.8229Z" fill="url(#paint10_linear_619_1712)"/>
<path d="M44.7985 97.6211C44.7985 97.6211 42.3726 101.329 43.4539 103.446C44.5352 105.563 43.2185 106.258 44.7985 108.209C46.3786 110.159 47.4189 110.855 48.5002 110.678C49.5815 110.502 48.5002 108.562 48.5002 108.562L48.9806 106.092L48.3523 102.526L44.7985 97.6211Z" fill="#DABA66"/>
<path d="M44.7985 97.6211C44.7985 97.6211 42.3726 101.329 43.4539 103.446C44.5352 105.563 43.2185 106.258 44.7985 108.209C46.3786 110.159 47.4189 110.855 48.5002 110.678C49.5815 110.502 48.5002 108.562 48.5002 108.562L48.9806 106.092L48.3523 102.526L44.7985 97.6211Z" fill="url(#paint11_linear_619_1712)"/>
<path d="M178.382 86.168C177.598 86.168 176.847 86.0653 176.128 85.86C175.409 85.6453 174.831 85.37 174.392 85.034L175.162 83.326C175.582 83.6247 176.077 83.872 176.646 84.068C177.225 84.2547 177.808 84.348 178.396 84.348C178.844 84.348 179.203 84.306 179.474 84.222C179.754 84.1287 179.959 84.0027 180.09 83.844C180.221 83.6853 180.286 83.5033 180.286 83.298C180.286 83.0367 180.183 82.8313 179.978 82.682C179.773 82.5233 179.502 82.3973 179.166 82.304C178.83 82.2013 178.457 82.108 178.046 82.024C177.645 81.9307 177.239 81.8187 176.828 81.688C176.427 81.5573 176.058 81.3893 175.722 81.184C175.386 80.9787 175.111 80.708 174.896 80.372C174.691 80.036 174.588 79.6067 174.588 79.084C174.588 78.524 174.737 78.0153 175.036 77.558C175.344 77.0913 175.801 76.7227 176.408 76.452C177.024 76.172 177.794 76.032 178.718 76.032C179.334 76.032 179.941 76.1067 180.538 76.256C181.135 76.396 181.663 76.6107 182.12 76.9L181.42 78.622C180.963 78.3607 180.505 78.1693 180.048 78.048C179.591 77.9173 179.143 77.852 178.704 77.852C178.265 77.852 177.906 77.9033 177.626 78.006C177.346 78.1087 177.145 78.244 177.024 78.412C176.903 78.5707 176.842 78.7573 176.842 78.972C176.842 79.224 176.945 79.4293 177.15 79.588C177.355 79.7373 177.626 79.8587 177.962 79.952C178.298 80.0453 178.667 80.1387 179.068 80.232C179.479 80.3253 179.885 80.4327 180.286 80.554C180.697 80.6753 181.07 80.8387 181.406 81.044C181.742 81.2493 182.013 81.52 182.218 81.856C182.433 82.192 182.54 82.6167 182.54 83.13C182.54 83.6807 182.386 84.1847 182.078 84.642C181.77 85.0993 181.308 85.468 180.692 85.748C180.085 86.028 179.315 86.168 178.382 86.168ZM185.983 86V78.048H182.847V76.2H191.387V78.048H188.251V86H185.983ZM192.607 86V76.2H196.849C197.727 76.2 198.483 76.3447 199.117 76.634C199.752 76.914 200.242 77.32 200.587 77.852C200.933 78.384 201.105 79.0187 201.105 79.756C201.105 80.484 200.933 81.114 200.587 81.646C200.242 82.1687 199.752 82.57 199.117 82.85C198.483 83.13 197.727 83.27 196.849 83.27H193.867L194.875 82.276V86H192.607ZM198.837 86L196.387 82.444H198.809L201.287 86H198.837ZM194.875 82.528L193.867 81.464H196.723C197.423 81.464 197.946 81.3147 198.291 81.016C198.637 80.708 198.809 80.288 198.809 79.756C198.809 79.2147 198.637 78.7947 198.291 78.496C197.946 78.1973 197.423 78.048 196.723 78.048H193.867L194.875 76.97V82.528ZM204.988 80.148H209.706V81.912H204.988V80.148ZM205.156 84.18H210.49V86H202.902V76.2H210.308V78.02H205.156V84.18ZM215.515 86.168C214.731 86.168 213.979 86.0653 213.261 85.86C212.542 85.6453 211.963 85.37 211.525 85.034L212.295 83.326C212.715 83.6247 213.209 83.872 213.779 84.068C214.357 84.2547 214.941 84.348 215.529 84.348C215.977 84.348 216.336 84.306 216.607 84.222C216.887 84.1287 217.092 84.0027 217.223 83.844C217.353 83.6853 217.419 83.5033 217.419 83.298C217.419 83.0367 217.316 82.8313 217.111 82.682C216.905 82.5233 216.635 82.3973 216.299 82.304C215.963 82.2013 215.589 82.108 215.179 82.024C214.777 81.9307 214.371 81.8187 213.961 81.688C213.559 81.5573 213.191 81.3893 212.855 81.184C212.519 80.9787 212.243 80.708 212.029 80.372C211.823 80.036 211.721 79.6067 211.721 79.084C211.721 78.524 211.87 78.0153 212.169 77.558C212.477 77.0913 212.934 76.7227 213.541 76.452C214.157 76.172 214.927 76.032 215.851 76.032C216.467 76.032 217.073 76.1067 217.671 76.256C218.268 76.396 218.795 76.6107 219.253 76.9L218.553 78.622C218.095 78.3607 217.638 78.1693 217.181 78.048C216.723 77.9173 216.275 77.852 215.837 77.852C215.398 77.852 215.039 77.9033 214.759 78.006C214.479 78.1087 214.278 78.244 214.157 78.412C214.035 78.5707 213.975 78.7573 213.975 78.972C213.975 79.224 214.077 79.4293 214.283 79.588C214.488 79.7373 214.759 79.8587 215.095 79.952C215.431 80.0453 215.799 80.1387 216.201 80.232C216.611 80.3253 217.017 80.4327 217.419 80.554C217.829 80.6753 218.203 80.8387 218.539 81.044C218.875 81.2493 219.145 81.52 219.351 81.856C219.565 82.192 219.673 82.6167 219.673 83.13C219.673 83.6807 219.519 84.1847 219.211 84.642C218.903 85.0993 218.441 85.468 217.825 85.748C217.218 86.028 216.448 86.168 215.515 86.168ZM224.443 86.168C223.659 86.168 222.907 86.0653 222.189 85.86C221.47 85.6453 220.891 85.37 220.453 85.034L221.223 83.326C221.643 83.6247 222.137 83.872 222.707 84.068C223.285 84.2547 223.869 84.348 224.457 84.348C224.905 84.348 225.264 84.306 225.535 84.222C225.815 84.1287 226.02 84.0027 226.151 83.844C226.281 83.6853 226.347 83.5033 226.347 83.298C226.347 83.0367 226.244 82.8313 226.039 82.682C225.833 82.5233 225.563 82.3973 225.227 82.304C224.891 82.2013 224.517 82.108 224.107 82.024C223.705 81.9307 223.299 81.8187 222.889 81.688C222.487 81.5573 222.119 81.3893 221.783 81.184C221.447 80.9787 221.171 80.708 220.957 80.372C220.751 80.036 220.649 79.6067 220.649 79.084C220.649 78.524 220.798 78.0153 221.097 77.558C221.405 77.0913 221.862 76.7227 222.469 76.452C223.085 76.172 223.855 76.032 224.779 76.032C225.395 76.032 226.001 76.1067 226.599 76.256C227.196 76.396 227.723 76.6107 228.181 76.9L227.481 78.622C227.023 78.3607 226.566 78.1693 226.109 78.048C225.651 77.9173 225.203 77.852 224.765 77.852C224.326 77.852 223.967 77.9033 223.687 78.006C223.407 78.1087 223.206 78.244 223.085 78.412C222.963 78.5707 222.903 78.7573 222.903 78.972C222.903 79.224 223.005 79.4293 223.211 79.588C223.416 79.7373 223.687 79.8587 224.023 79.952C224.359 80.0453 224.727 80.1387 225.129 80.232C225.539 80.3253 225.945 80.4327 226.347 80.554C226.757 80.6753 227.131 80.8387 227.467 81.044C227.803 81.2493 228.073 81.52 228.279 81.856C228.493 82.192 228.601 82.6167 228.601 83.13C228.601 83.6807 228.447 84.1847 228.139 84.642C227.831 85.0993 227.369 85.468 226.753 85.748C226.146 86.028 225.376 86.168 224.443 86.168Z" fill="black"/>
</g>
<defs>
<filter id="filter0_f_619_1712" x="71" y="-99" width="358" height="261" filterUnits="userSpaceOnUse" color-interpolation-filters="sRGB">
<feFlood flood-opacity="0" result="BackgroundImageFix"/>
<feBlend mode="normal" in="SourceGraphic" in2="BackgroundImageFix" result="shape"/>
<feGaussianBlur stdDeviation="25" result="effect1_foregroundBlur_619_1712"/>
</filter>
<filter id="filter1_f_619_1712" x="-58" y="-7" width="317" height="308" filterUnits="userSpaceOnUse" color-interpolation-filters="sRGB">
<feFlood flood-opacity="0" result="BackgroundImageFix"/>
<feBlend mode="normal" in="SourceGraphic" in2="BackgroundImageFix" result="shape"/>
<feGaussianBlur stdDeviation="15" result="effect1_foregroundBlur_619_1712"/>
</filter>
<linearGradient id="paint0_linear_619_1712" x1="44" y1="-44" x2="98.2474" y2="64.8063" gradientUnits="userSpaceOnUse">
<stop stop-color="#D9D9D9" stop-opacity="0"/>
<stop offset="1" stop-color="white"/>
</linearGradient>
<linearGradient id="paint1_linear_619_1712" x1="46.6833" y1="95.9131" x2="65.9385" y2="107.206" gradientUnits="userSpaceOnUse">
<stop stop-color="#FBF5E5"/>
<stop offset="1" stop-color="#EB996E"/>
</linearGradient>
<linearGradient id="paint2_linear_619_1712" x1="58.3445" y1="58.5592" x2="99.5459" y2="58.5592" gradientUnits="userSpaceOnUse">
<stop stop-color="#EB996E"/>
<stop offset="1" stop-color="#130030"/>
</linearGradient>
<linearGradient id="paint3_linear_619_1712" x1="45.9693" y1="113.984" x2="81.4568" y2="64.8373" gradientUnits="userSpaceOnUse">
<stop stop-color="#FCE7AF"/>
<stop offset="1" stop-color="#EB996E"/>
</linearGradient>
<linearGradient id="paint4_linear_619_1712" x1="71.9541" y1="121.693" x2="49.234" y2="104.647" gradientUnits="userSpaceOnUse">
<stop stop-color="#FBF5E5"/>
<stop offset="1" stop-color="#FFBE9D"/>
</linearGradient>
<linearGradient id="paint5_linear_619_1712" x1="101.464" y1="93.0245" x2="27.3933" y2="126.749" gradientUnits="userSpaceOnUse">
<stop stop-color="#575581" stop-opacity="0"/>
<stop offset="1" stop-color="#575581"/>
</linearGradient>
<linearGradient id="paint6_linear_619_1712" x1="90.7409" y1="83.4665" x2="94.24" y2="56.0618" gradientUnits="userSpaceOnUse">
<stop stop-color="#575581" stop-opacity="0"/>
<stop offset="1" stop-color="#575581"/>
</linearGradient>
<linearGradient id="paint7_linear_619_1712" x1="55.1265" y1="77.5316" x2="117.481" y2="107.534" gradientUnits="userSpaceOnUse">
<stop stop-color="#575581" stop-opacity="0"/>
<stop offset="1" stop-color="#575581"/>
</linearGradient>
<linearGradient id="paint8_linear_619_1712" x1="40.636" y1="107.647" x2="102.99" y2="137.649" gradientUnits="userSpaceOnUse">
<stop stop-color="#575581" stop-opacity="0"/>
<stop offset="1" stop-color="#575581"/>
</linearGradient>
<linearGradient id="paint9_linear_619_1712" x1="50.0869" y1="103.547" x2="88.1637" y2="63.8359" gradientUnits="userSpaceOnUse">
<stop stop-color="#FFEEC2"/>
<stop offset="1" stop-color="#EB996E"/>
</linearGradient>
<linearGradient id="paint10_linear_619_1712" x1="93.9867" y1="113.503" x2="75.5161" y2="92.2065" gradientUnits="userSpaceOnUse">
<stop stop-color="#2C9378"/>
<stop offset="1" stop-color="#130030"/>
</linearGradient>
<linearGradient id="paint11_linear_619_1712" x1="43.1762" y1="104.163" x2="48.9807" y2="104.163" gradientUnits="userSpaceOnUse">
<stop stop-color="#FFBE9D"/>
<stop offset="1" stop-color="#FBF5E5"/>
</linearGradient>
<clipPath id="clip0_619_1712">
<rect width="262" height="163" fill="white"/>
</clipPath>
</defs>
</svg>
