<svg width="175" height="162" viewBox="0 0 175 162" fill="none" xmlns="http://www.w3.org/2000/svg">
<g filter="url(#filter0_f_848_1250)">
<path fill-rule="evenodd" clip-rule="evenodd" d="M88.8909 30.0825C98.8586 30.8148 106.336 38.4421 114.533 44.1652C122.923 50.0238 132.167 54.8512 137.161 63.787C142.907 74.0704 146.564 85.9403 144.342 97.5104C141.961 109.905 135.541 122.354 124.68 128.774C114.142 135.003 101.131 130.296 88.8909 130.287C76.663 130.278 63.8967 134.539 53.1391 128.722C41.7554 122.566 32.0845 111.371 30.2175 98.5581C28.4255 86.2592 38.1277 75.8722 43.8296 64.8302C48.4822 55.8201 52.3319 46.3762 60.3599 40.1857C68.5512 33.8692 78.5773 29.3249 88.8909 30.0825Z" fill="#9EE56E" fill-opacity="0.2"/>
</g>
<path d="M101.667 101H64.3333M101.667 101C103.139 101 104.333 99.8059 104.333 98.3332V74.3332C104.333 72.8604 103.139 71.6665 101.667 71.6665H64.3333C62.8605 71.6665 61.6666 72.8604 61.6666 74.3332V98.3332C61.6666 99.8059 62.8605 101 64.3333 101M101.667 101H105C106.841 101 108.333 102.492 108.333 104.333C108.333 106.174 106.841 107.667 105 107.667H61C59.159 107.667 57.6666 106.174 57.6666 104.333C57.6666 102.492 59.159 101 61 101H64.3333" stroke="#2C9378" stroke-width="3" stroke-linecap="round" stroke-linejoin="round"/>
<path d="M93 85.9085C93.0098 85.5141 92.8484 85.1295 92.5439 84.8215C92.2394 84.5135 91.811 84.3016 91.3333 84.2228C90.0162 83.928 88.8548 83.2919 88.027 82.4121C87.1992 81.5323 86.7506 80.4571 86.75 79.3514V69.5242C86.75 68.183 87.4085 66.8968 88.5806 65.9484C89.7527 65.0001 91.3424 64.4673 93 64.4673H113C114.658 64.4673 116.247 65.0001 117.419 65.9484C118.592 66.8968 119.25 68.183 119.25 69.5242V79.3851C119.25 80.7263 118.592 82.0125 117.419 82.9609C116.247 83.9092 114.658 84.442 113 84.442H102.146C101.599 84.4438 101.076 84.6194 100.688 84.9308L94.7708 89.7517C94.624 89.8682 94.4378 89.9469 94.2357 89.9779C94.0337 90.0089 93.8248 89.9908 93.6354 89.9259C93.446 89.861 93.2846 89.7522 93.1716 89.6132C93.0585 89.4742 92.9988 89.3113 93 89.1449V85.9085Z" stroke="#2C9378" stroke-width="2.6" stroke-miterlimit="10"/>
<path d="M96.75 74.3281V74.3446" stroke="#2C9378" stroke-linecap="round" stroke-linejoin="round"/>
<path d="M103 74.3281V74.3446" stroke="#2C9378" stroke-linecap="round" stroke-linejoin="round"/>
<path d="M109.25 74.3281V74.3446" stroke="#2C9378" stroke-linecap="round" stroke-linejoin="round"/>
<defs>
<filter id="filter0_f_848_1250" x="0" y="0" width="175" height="162" filterUnits="userSpaceOnUse" color-interpolation-filters="sRGB">
<feFlood flood-opacity="0" result="BackgroundImageFix"/>
<feBlend mode="normal" in="SourceGraphic" in2="BackgroundImageFix" result="shape"/>
<feGaussianBlur stdDeviation="15" result="effect1_foregroundBlur_848_1250"/>
</filter>
</defs>
</svg>
