<svg width="161" height="156" viewBox="0 0 161 156" fill="none" xmlns="http://www.w3.org/2000/svg">
<g filter="url(#filter0_f_848_1248)">
<path fill-rule="evenodd" clip-rule="evenodd" d="M58.9193 34.3015C77.3685 25.9611 98.2904 32.4537 112.323 46.9895C127.213 62.4133 136.125 84.7569 125.793 103.573C115.332 122.624 91.5403 128.024 70.2643 123.585C50.0523 119.369 33.5319 104.24 30.9327 83.784C28.2955 63.029 39.8141 42.9385 58.9193 34.3015Z" fill="#9EE56E" fill-opacity="0.2"/>
</g>
<path d="M56.0001 102.667H50.6667V100C50.6667 95.0299 54.0661 90.8536 58.6667 89.6695M64.0001 80.8783C60.8929 79.7801 58.6667 76.8168 58.6667 73.3335C58.6667 69.8503 60.8929 66.887 64.0001 65.7887M104 102.667H109.333V100C109.333 95.0299 105.934 90.8536 101.333 89.6695M96.0001 65.7887C99.1073 66.887 101.333 69.8503 101.333 73.3335C101.333 76.8168 99.1073 79.7801 96.0001 80.8783M74.6667 89.3335H85.3334C91.2244 89.3335 96.0001 94.1091 96.0001 100V102.667H64.0001V100C64.0001 94.1091 68.7757 89.3335 74.6667 89.3335ZM88.0001 73.3335C88.0001 77.7518 84.4184 81.3335 80.0001 81.3335C75.5818 81.3335 72.0001 77.7518 72.0001 73.3335C72.0001 68.9152 75.5818 65.3335 80.0001 65.3335C84.4184 65.3335 88.0001 68.9152 88.0001 73.3335Z" stroke="#2C9378" stroke-width="3" stroke-linecap="round" stroke-linejoin="round"/>
<defs>
<filter id="filter0_f_848_1248" x="0.558838" y="0.616699" width="159.695" height="154.429" filterUnits="userSpaceOnUse" color-interpolation-filters="sRGB">
<feFlood flood-opacity="0" result="BackgroundImageFix"/>
<feBlend mode="normal" in="SourceGraphic" in2="BackgroundImageFix" result="shape"/>
<feGaussianBlur stdDeviation="15" result="effect1_foregroundBlur_848_1248"/>
</filter>
</defs>
</svg>
